<?xml version="1.0" encoding="utf-8"?>
<!-- Generator: Adobe Illustrator 28.2.0, SVG Export Plug-In . SVG Version: 6.00 Build 0)  -->
<svg version="1.1" id="Layer_1" xmlns="http://www.w3.org/2000/svg" xmlns:xlink="http://www.w3.org/1999/xlink" x="0px" y="0px"
	 viewBox="0 0 3000 2500" style="enable-background:new 0 0 3000 2500;" xml:space="preserve">
<style type="text/css">
	.st0{fill:url(#SVGID_1_);}
	.st1{fill:url(#SVGID_00000141455249004483931120000006726246066471037879_);}
	.st2{fill:url(#SVGID_00000059992590436341766360000012674989660695996851_);}
	.st3{fill:#A3A3A3;}
	.st4{opacity:0.6;}
	.st5{opacity:0;fill:#0A2028;}
	.st6{opacity:1.111111e-02;fill:#0A2028;}
	.st7{opacity:2.222222e-02;fill:#0A2028;}
	.st8{opacity:3.333334e-02;fill:#0A2028;}
	.st9{opacity:4.444445e-02;fill:#0A2028;}
	.st10{opacity:5.555556e-02;fill:#0A2028;}
	.st11{opacity:6.666667e-02;fill:#0A2028;}
	.st12{opacity:7.777778e-02;fill:#0A2028;}
	.st13{opacity:8.888889e-02;fill:#0A2028;}
	.st14{opacity:0.1;fill:#0A2028;}
	.st15{opacity:0.1111;fill:#0A2028;}
	.st16{opacity:0.1222;fill:#0A2028;}
	.st17{opacity:0.1333;fill:#0A2028;}
	.st18{opacity:0.1444;fill:#0A2028;}
	.st19{opacity:0.1556;fill:#0A2028;}
	.st20{opacity:0.1667;fill:#0A2028;}
	.st21{opacity:0.1778;fill:#0A2028;}
	.st22{opacity:0.1889;fill:#0A2028;}
	.st23{opacity:0.2;fill:#0A2028;}
	.st24{opacity:0.2111;fill:#0A2028;}
	.st25{opacity:0.2222;fill:#0A2028;}
	.st26{opacity:0.2333;fill:#0A2028;}
	.st27{opacity:0.2444;fill:#0A2028;}
	.st28{opacity:0.2556;fill:#0A2028;}
	.st29{opacity:0.2667;fill:#0A2028;}
	.st30{opacity:0.2778;fill:#0A2028;}
	.st31{opacity:0.2889;fill:#0A2028;}
	.st32{opacity:0.3;fill:#0A2028;}
	.st33{fill:url(#SVGID_00000050648432198094296440000011054717305795199671_);}
	.st34{fill:url(#SVGID_00000132805909913169137610000011524612627938027689_);}
	.st35{fill:url(#SVGID_00000132082044236045143970000011216309912346964133_);}
	.st36{fill:url(#SVGID_00000110471300056553228210000015940409800437339581_);}
	.st37{fill:#8952A0;}
	.st38{fill:url(#SVGID_00000073691234968592801690000005866187752278713223_);}
	.st39{fill:url(#SVGID_00000071547835207061448930000016028349025608758974_);}
	.st40{fill:url(#SVGID_00000116927194883602415120000017121365871535173772_);}
	.st41{fill:url(#SVGID_00000095310064160964639720000013491694428890029452_);}
	.st42{fill:url(#SVGID_00000021084328824013429520000008199852791729836971_);}
	.st43{fill:url(#SVGID_00000081608543614963905360000012180460827310282648_);}
	.st44{fill:url(#SVGID_00000034768614435192590900000001724594345443471233_);}
	.st45{fill:url(#SVGID_00000108290726529683421470000013404810283055459719_);}
	.st46{fill:url(#SVGID_00000052786243435825041600000002117053412843435427_);}
	.st47{fill:url(#SVGID_00000105387094321286345090000013186671827221874058_);}
	.st48{filter:url(#Adobe_OpacityMaskFilter);}
	.st49{filter:url(#Adobe_OpacityMaskFilter_00000007396731545338605220000005041403489841308068_);}
	
		.st50{mask:url(#SVGID_00000008126276701380665020000016386150683759252623_);fill:url(#SVGID_00000147187843339437970440000017180265027467711113_);}
	.st51{opacity:0.28;fill:url(#SVGID_00000062907852889234540100000004699880751684867242_);}
	.st52{fill:url(#SVGID_00000110428482113313775120000011235498919759459996_);}
	.st53{fill:url(#SVGID_00000180339062139367818940000007603294475488173705_);}
	.st54{fill:url(#SVGID_00000117646386981729513960000009203152794367367055_);}
	.st55{fill:#B5A9D1;}
	.st56{fill:#FFFFFF;}
	.st57{fill:url(#SVGID_00000112632414315532773210000005657429231268703164_);}
	.st58{fill:url(#SVGID_00000080885826922113296840000000808323847451256480_);}
	.st59{fill:#45496D;}
	.st60{fill:#9DA6BF;}
	.st61{opacity:0.49;}
	.st62{fill:none;stroke:#FFFFFF;stroke-miterlimit:10;}
	.st63{fill:url(#SVGID_00000047053332430507885360000002220656639663923898_);}
	.st64{fill:url(#SVGID_00000163762921148106325930000005213928444669295770_);}
	.st65{fill:url(#SVGID_00000113328712533046305930000002290956141806550442_);}
	.st66{fill:url(#SVGID_00000071550318012207844690000003147063890601980570_);}
	.st67{fill:url(#SVGID_00000096765871448258521940000003313249951257008573_);}
	.st68{fill:url(#SVGID_00000074424894892991609900000010072171433135577520_);}
	.st69{fill:url(#SVGID_00000000216772230730012600000011732455170030883985_);}
	.st70{fill:url(#SVGID_00000094595981381825764160000014083908436912551846_);}
	.st71{fill:url(#SVGID_00000012473875710517405320000008296598605017985421_);}
	.st72{fill:url(#SVGID_00000026143848393349609230000012981733806057223555_);}
	.st73{fill:url(#SVGID_00000134940938680513046750000014379381515955677342_);}
	.st74{fill:url(#SVGID_00000169516582811960315540000004834098870671465878_);}
	.st75{fill:url(#SVGID_00000046308600860728066590000016502660082693549487_);}
	.st76{fill:url(#SVGID_00000109003004412654107350000012090392436168957626_);}
	.st77{fill:url(#SVGID_00000096740176116500458020000013137070337335003317_);}
	.st78{fill:url(#SVGID_00000003093583024095455830000010663840478167277745_);}
	.st79{fill:#2E344B;}
	.st80{fill:url(#SVGID_00000052824982411573553750000007263625677602943134_);}
	.st81{fill:url(#SVGID_00000155825808507569296900000003914654876364533439_);}
	.st82{fill:url(#SVGID_00000020364921563072588210000011257684604046198144_);}
	.st83{fill:url(#SVGID_00000015356090923676862280000001080547113191653280_);}
	.st84{fill:url(#SVGID_00000162351683021394692250000006814382670501526950_);}
	.st85{fill:url(#SVGID_00000041986148764514110900000015034881643592028578_);}
	.st86{fill:url(#SVGID_00000040561122527801601670000014226306254572236941_);}
	.st87{fill:url(#SVGID_00000085961436141539010130000006639219608765910680_);}
	.st88{fill:url(#SVGID_00000072274949541252603360000005995888972681934523_);}
	.st89{filter:url(#Adobe_OpacityMaskFilter_00000003791997259838519920000002499368114384357797_);}
	.st90{filter:url(#Adobe_OpacityMaskFilter_00000096746312109093236270000011085390774315179193_);}
	
		.st91{mask:url(#SVGID_00000053506434607372531260000014077983985388360107_);fill:url(#SVGID_00000000184059549336307150000010548908379496152196_);}
	.st92{opacity:0.39;fill:url(#SVGID_00000145780002361852536880000013084421154457143946_);}
	.st93{enable-background:new    ;}
	.st94{fill:#878788;}
	.st95{fill:#DBDADC;}
	.st96{fill:#17564E;}
	.st97{clip-path:url(#SVGID_00000049181131842443383940000002398497508972214176_);enable-background:new    ;}
	.st98{fill:url(#SVGID_00000047760552285306867550000014386754626713985966_);}
	.st99{fill:url(#SVGID_00000070819536688183068080000011394480319554281916_);}
	.st100{fill:#329E93;}
	.st101{fill:url(#SVGID_00000123443119283424058340000012178591991444853683_);}
	.st102{fill:#530053;}
	.st103{fill:#458FCC;}
	.st104{fill:#6F2B8B;}
	.st105{fill:url(#SVGID_00000157280231167358684340000009898338390533103519_);}
	.st106{fill:url(#SVGID_00000133502110526177182480000014146161281160944043_);}
	.st107{fill:url(#SVGID_00000093872760835255202090000006973166660416784568_);}
	.st108{fill:url(#SVGID_00000062173733968269855060000008687273154562268853_);}
	.st109{fill:url(#SVGID_00000131342536437289571930000001002382516758640779_);}
	.st110{fill:url(#SVGID_00000006686998899887926690000012346529182048285373_);}
	.st111{fill:url(#SVGID_00000176028025987655458940000000974403747421863338_);}
	.st112{fill:url(#SVGID_00000182520314549711101330000014279223158812240060_);}
	.st113{fill:url(#SVGID_00000145031473923663211200000010161502214014978223_);}
	.st114{fill:url(#SVGID_00000026865403636280868610000012657834818105437851_);}
	.st115{fill:url(#SVGID_00000056387634452844584700000012869052503667308426_);}
	.st116{fill:url(#SVGID_00000070085351682018415080000009670911457589051578_);}
	.st117{fill:#F9A161;}
	.st118{opacity:0.23;fill:url(#SVGID_00000040541410882312951600000006162921420002944409_);}
	.st119{opacity:0.23;fill:url(#SVGID_00000078767794992438735790000014542039731103345319_);}
	.st120{fill:url(#SVGID_00000060716630975719934320000000986813433427805344_);}
	.st121{fill:url(#SVGID_00000119796306194422527840000015117170149373191334_);}
</style>
<g>
	<g>
		<linearGradient id="SVGID_1_" gradientUnits="userSpaceOnUse" x1="1232.5114" y1="381.7926" x2="1396.6716" y2="630.9033">
			<stop  offset="0" style="stop-color:#A1A19B"/>
			<stop  offset="1" style="stop-color:#EDEDEC"/>
		</linearGradient>
		<path class="st0" d="M1436.7,415.2v293.2c0,2-0.7,3.8-2.2,5.1c-1.4,1.3-3.2,2.1-5.1,2.1c-1.1,0-2.3-0.3-3.4-0.9l-245.2-131.7
			c-7.5-4-12.2-11.8-12.2-20.4V271.5c0-6.2,5.2-10,10-10c1.6,0,3.2,0.4,4.7,1.2l238.9,128.3C1431.2,395.9,1436.7,405.1,1436.7,415.2
			z"/>
		
			<linearGradient id="SVGID_00000077289468583940420680000014593321354042119056_" gradientUnits="userSpaceOnUse" x1="1164.9935" y1="490.3753" x2="1433.014" y2="490.3753">
			<stop  offset="0" style="stop-color:#5F6271"/>
			<stop  offset="1" style="stop-color:#2B3149"/>
		</linearGradient>
		<path style="fill:url(#SVGID_00000077289468583940420680000014593321354042119056_);" d="M1433,417l0,293.2c0,2-0.7,3.8-2.2,5.1
			c-1.4,1.3-3.2,2.1-5.1,2.1c-1.1,0-2.3-0.3-3.4-0.9l-245.2-131.7c-7.5-4-12.2-11.8-12.2-20.4V273.3c0-6.2,5.2-10,10-10
			c1.6,0,3.2,0.4,4.7,1.2l238.9,128.3C1427.5,397.6,1433,406.9,1433,417z"/>
		
			<linearGradient id="SVGID_00000168075427879490369860000002196357547478463159_" gradientUnits="userSpaceOnUse" x1="1365.8392" y1="688.2175" x2="1248.0239" y2="339.4478">
			<stop  offset="0" style="stop-color:#FFFFFF"/>
			<stop  offset="1" style="stop-color:#EDEDEC"/>
		</linearGradient>
		<path style="fill:url(#SVGID_00000168075427879490369860000002196357547478463159_);" d="M1181.7,576.5c-4.4-2.4-7.2-7-7.2-12
			V273.3l0.5-0.5l239.1,128.4c5.8,3.1,9.4,9.1,9.4,15.7v289.3L1181.7,576.5z"/>
		<g>
			<g>
				<path class="st3" d="M1327.5,394.7l-67.9-34.4c-1.7-0.9-3.1-3-3.1-4.7l0,0c0-1.7,1.4-2.4,3.1-1.5l67.9,34.4
					c1.7,0.9,3.1,3,3.1,4.7l0,0C1330.6,394.9,1329.2,395.6,1327.5,394.7z"/>
				<path class="st3" d="M1364.6,601l-67.9-34.4c-1.7-0.9-3.1-3-3.1-4.7l0,0c0-1.7,1.4-2.4,3.1-1.5l67.9,34.4c1.7,0.9,3.1,3,3.1,4.7
					l0,0C1367.7,601.2,1366.3,601.9,1364.6,601z"/>
				<path class="st3" d="M1364.8,442.6l-142.5-71.7c-1.7-0.9-3.1-3-3.1-4.7l0,0c0-1.7,1.4-2.4,3.1-1.5l142.5,71.7
					c1.7,0.9,3.1,3,3.1,4.7l0,0C1367.9,442.7,1366.5,443.4,1364.8,442.6z"/>
				<path class="st3" d="M1364.8,462.5l-142.5-71.7c-1.7-0.9-3.1-3-3.1-4.7l0,0c0-1.7,1.4-2.4,3.1-1.5l142.5,71.7
					c1.7,0.9,3.1,3,3.1,4.7l0,0C1367.9,462.6,1366.5,463.3,1364.8,462.5z"/>
				<path class="st3" d="M1364.8,484l-142.5-71.7c-1.7-0.9-3.1-3-3.1-4.7l0,0c0-1.7,1.4-2.4,3.1-1.5l142.5,71.7
					c1.7,0.9,3.1,3,3.1,4.7l0,0C1367.9,484.2,1366.5,484.9,1364.8,484z"/>
				<path class="st3" d="M1364.8,518.2l-142.5-71.7c-1.7-0.9-3.1-3-3.1-4.7l0,0c0-1.7,1.4-2.4,3.1-1.5l142.5,71.7
					c1.7,0.9,3.1,3,3.1,4.7l0,0C1367.9,518.4,1366.5,519.1,1364.8,518.2z"/>
				<path class="st3" d="M1364.8,538.1l-142.5-71.7c-1.7-0.9-3.1-3-3.1-4.7l0,0c0-1.7,1.4-2.4,3.1-1.5l142.5,71.7
					c1.7,0.9,3.1,3,3.1,4.7v0C1367.9,538.3,1366.5,539,1364.8,538.1z"/>
				<path class="st3" d="M1364.8,559.7L1222.3,488c-1.7-0.9-3.1-3-3.1-4.7l0,0c0-1.7,1.4-2.4,3.1-1.5l142.5,71.7
					c1.7,0.9,3.1,3,3.1,4.7v0C1367.9,559.9,1366.5,560.5,1364.8,559.7z"/>
			</g>
		</g>
	</g>
	<g class="st4">
		
			<ellipse transform="matrix(4.154194e-03 -1 1 4.154194e-03 -302.1857 3412.2422)" class="st5" cx="1562.1" cy="1857.8" rx="272.5" ry="543.3"/>
		
			<ellipse transform="matrix(4.154185e-03 -1 1 4.154185e-03 -302.1858 3412.2422)" class="st6" cx="1562.1" cy="1857.8" rx="266.9" ry="532.2"/>
		
			<ellipse transform="matrix(4.154175e-03 -1 1 4.154175e-03 -302.1858 3412.2424)" class="st7" cx="1562.1" cy="1857.8" rx="261.3" ry="521"/>
		
			<ellipse transform="matrix(4.154165e-03 -1 1 4.154165e-03 -302.1858 3412.2424)" class="st8" cx="1562.1" cy="1857.8" rx="255.7" ry="509.9"/>
		
			<ellipse transform="matrix(4.154154e-03 -1 1 4.154154e-03 -302.1859 3412.2427)" class="st9" cx="1562.1" cy="1857.8" rx="250.1" ry="498.7"/>
		
			<ellipse transform="matrix(4.154143e-03 -1 1 4.154143e-03 -302.1859 3412.2427)" class="st10" cx="1562.1" cy="1857.8" rx="244.5" ry="487.6"/>
		
			<ellipse transform="matrix(4.154131e-03 -1 1 4.154131e-03 -302.1859 3412.2429)" class="st11" cx="1562.1" cy="1857.8" rx="238.9" ry="476.4"/>
		
			<ellipse transform="matrix(4.154119e-03 -1 1 4.154119e-03 -302.1859 3412.2429)" class="st12" cx="1562.1" cy="1857.8" rx="233.3" ry="465.3"/>
		
			<ellipse transform="matrix(4.154106e-03 -1 1 4.154106e-03 -302.186 3412.2432)" class="st13" cx="1562.1" cy="1857.8" rx="227.7" ry="454.1"/>
		
			<ellipse transform="matrix(4.154093e-03 -1 1 4.154093e-03 -302.186 3412.2432)" class="st14" cx="1562.1" cy="1857.8" rx="222.1" ry="442.9"/>
		
			<ellipse transform="matrix(4.154079e-03 -1 1 4.154079e-03 -302.186 3412.2434)" class="st15" cx="1562.1" cy="1857.8" rx="216.6" ry="431.8"/>
		
			<ellipse transform="matrix(4.154064e-03 -1 1 4.154064e-03 -302.1861 3412.2437)" class="st16" cx="1562.1" cy="1857.8" rx="211" ry="420.6"/>
		
			<ellipse transform="matrix(4.154048e-03 -1 1 4.154048e-03 -302.1861 3412.2437)" class="st17" cx="1562.1" cy="1857.8" rx="205.4" ry="409.5"/>
		
			<ellipse transform="matrix(4.154032e-03 -1 1 4.154032e-03 -302.1861 3412.2439)" class="st18" cx="1562.1" cy="1857.8" rx="199.8" ry="398.3"/>
		
			<ellipse transform="matrix(4.154014e-03 -1 1 4.154014e-03 -302.1861 3412.2439)" class="st19" cx="1562.1" cy="1857.8" rx="194.2" ry="387.2"/>
		
			<ellipse transform="matrix(4.153995e-03 -1 1 4.153995e-03 -302.1862 3412.2441)" class="st20" cx="1562.1" cy="1857.8" rx="188.6" ry="376"/>
		
			<ellipse transform="matrix(4.153975e-03 -1 1 4.153975e-03 -302.1862 3412.2444)" class="st21" cx="1562.1" cy="1857.8" rx="183" ry="364.9"/>
		
			<ellipse transform="matrix(4.153954e-03 -1 1 4.153954e-03 -302.1862 3412.2444)" class="st22" cx="1562.1" cy="1857.8" rx="177.4" ry="353.7"/>
		
			<ellipse transform="matrix(4.153932e-03 -1 1 4.153932e-03 -302.1862 3412.2446)" class="st23" cx="1562.1" cy="1857.8" rx="171.8" ry="342.6"/>
		
			<ellipse transform="matrix(4.153908e-03 -1 1 4.153908e-03 -302.1862 3412.2446)" class="st24" cx="1562.1" cy="1857.8" rx="166.2" ry="331.4"/>
		
			<ellipse transform="matrix(4.153883e-03 -1 1 4.153883e-03 -302.1862 3412.2449)" class="st25" cx="1562.1" cy="1857.8" rx="160.6" ry="320.3"/>
		
			<ellipse transform="matrix(4.153855e-03 -1 1 4.153855e-03 -302.1862 3412.2451)" class="st26" cx="1562.1" cy="1857.8" rx="155" ry="309.1"/>
		
			<ellipse transform="matrix(4.153826e-03 -1 1 4.153826e-03 -302.1862 3412.2451)" class="st27" cx="1562.1" cy="1857.8" rx="149.4" ry="298"/>
		
			<ellipse transform="matrix(4.153794e-03 -1 1 4.153794e-03 -302.1862 3412.2454)" class="st28" cx="1562.1" cy="1857.8" rx="143.8" ry="286.8"/>
		
			<ellipse transform="matrix(4.153760e-03 -1 1 4.153760e-03 -302.1862 3412.2456)" class="st29" cx="1562.1" cy="1857.8" rx="138.2" ry="275.7"/>
		
			<ellipse transform="matrix(4.153723e-03 -1 1 4.153723e-03 -302.1862 3412.2458)" class="st30" cx="1562.1" cy="1857.8" rx="132.7" ry="264.5"/>
		
			<ellipse transform="matrix(4.153682e-03 -1 1 4.153682e-03 -302.1862 3412.2458)" class="st31" cx="1562.1" cy="1857.8" rx="127.1" ry="253.4"/>
		
			<ellipse transform="matrix(4.153638e-03 -1 1 4.153638e-03 -302.1862 3412.2461)" class="st32" cx="1562.1" cy="1857.8" rx="121.5" ry="242.2"/>
	</g>
	<g>
		
			<linearGradient id="SVGID_00000116202313082438434620000016081844190966205082_" gradientUnits="userSpaceOnUse" x1="4111.8677" y1="1664.5531" x2="4507.3149" y2="1389.4594" gradientTransform="matrix(-1 0 0 1 5787.166 0)">
			<stop  offset="0" style="stop-color:#5F6271"/>
			<stop  offset="1" style="stop-color:#2B3149"/>
		</linearGradient>
		<path style="fill:url(#SVGID_00000116202313082438434620000016081844190966205082_);" d="M2389.8,1414.5l-423.9-200.4
			c-36.8-21.4-82.3-21.3-119,0.3l-977.4,528.1c-30.1,17.7-18,99.3,12.1,116.9l408.5,239c29.3,17.1,65.5,17.1,94.8,0l995-581.2
			C2403.9,1503.1,2413.9,1428.6,2389.8,1414.5z"/>
	</g>
	<g>
		
			<linearGradient id="SVGID_00000159449491431350356270000018245510495625625007_" gradientUnits="userSpaceOnUse" x1="4111.8677" y1="1661.0023" x2="4507.3149" y2="1385.9084" gradientTransform="matrix(-1 0 0 1 5787.166 0)">
			<stop  offset="0" style="stop-color:#C5C5C1"/>
			<stop  offset="1" style="stop-color:#D9D9D6"/>
		</linearGradient>
		<path style="fill:url(#SVGID_00000159449491431350356270000018245510495625625007_);" d="M2389.8,1411l-423.9-200.4
			c-36.8-21.4-82.3-21.3-119,0.3l-977.4,528.1c-30.1,17.7-18,99.3,12.1,116.9l408.5,239c29.3,17.1,65.5,17.1,94.8,0l995-581.2
			C2403.9,1499.6,2413.9,1425,2389.8,1411z"/>
	</g>
	<g>
		
			<linearGradient id="SVGID_00000121973116519353189350000011509570315397274001_" gradientUnits="userSpaceOnUse" x1="4190.2422" y1="2133.2124" x2="4166.0322" y2="1723.6628" gradientTransform="matrix(-1 0 0 1 5787.166 0)">
			<stop  offset="0" style="stop-color:#F8F8F7"/>
			<stop  offset="1" style="stop-color:#FCFCFC"/>
		</linearGradient>
		<path style="fill:url(#SVGID_00000121973116519353189350000011509570315397274001_);" d="M2379.7,1402.4l-413.9-240.2
			c-36.8-21.4-82.3-21.3-119,0.3l-965.3,566.2c-30.1,17.7-30.1,61.2,0,78.8l408.5,239c29.3,17.1,65.5,17.1,94.8,0l995-581.2
			C2403.9,1451.3,2403.9,1416.4,2379.7,1402.4z"/>
	</g>
	
		<linearGradient id="SVGID_00000130612392792639375920000012912765908010289802_" gradientUnits="userSpaceOnUse" x1="1563.3278" y1="1655.1112" x2="2081.7893" y2="1294.4421">
		<stop  offset="0" style="stop-color:#F8F8F7"/>
		<stop  offset="1" style="stop-color:#FCFCFC"/>
	</linearGradient>
	<path style="fill:url(#SVGID_00000130612392792639375920000012912765908010289802_);" d="M2379.8,1462.6l-995,581.2
		c-29.3,17.1-65.5,17.1-94.8,0l-408.5-239c-14.6-8.5-22.1-23.2-22.6-38c-0.5,15.8,7,31.7,22.6,40.8l408.5,239
		c29.3,17.1,65.5,17.1,94.8,0l995-581.2c12.5-7.3,18.4-20.2,18-32.9C2397.3,1444.2,2391.4,1455.8,2379.8,1462.6z"/>
	<g>
		<g>
			<g>
				<g>
					<polygon class="st37" points="1303.2,849.7 1303,1205.4 1207.8,1260.7 1208.1,905.1 					"/>
				</g>
				<g>
					
						<linearGradient id="SVGID_00000176006905267618750820000014834557750041221006_" gradientUnits="userSpaceOnUse" x1="1084.0834" y1="900.1802" x2="1280.2239" y2="1266.776">
						<stop  offset="0" style="stop-color:#5F6271"/>
						<stop  offset="1" style="stop-color:#2B3149"/>
					</linearGradient>
					<polygon style="fill:url(#SVGID_00000176006905267618750820000014834557750041221006_);" points="1208.1,905.1 1207.8,1260.7 
						1132.2,1217 1132.5,861.4 					"/>
				</g>
				
					<linearGradient id="SVGID_00000072989204018769365330000002210174885885167513_" gradientUnits="userSpaceOnUse" x1="1132.4651" y1="855.5783" x2="1303.2374" y2="855.5783">
					<stop  offset="0" style="stop-color:#FFFFFF"/>
					<stop  offset="1" style="stop-color:#CCCDD2"/>
				</linearGradient>
				<polygon style="fill:url(#SVGID_00000072989204018769365330000002210174885885167513_);" points="1132.5,861.4 1227.6,806.1 
					1303.2,849.7 1208.1,905.1 				"/>
			</g>
		</g>
		<g>
			<g>
				<g>
					<polygon class="st37" points="1184.6,870.7 1184.3,1275.7 1089.2,1331.1 1089.4,926 					"/>
				</g>
				<g>
					
						<linearGradient id="SVGID_00000049216971132142274480000012090616712469794741_" gradientUnits="userSpaceOnUse" x1="955.733" y1="927.7245" x2="1173.9504" y2="1335.5835">
						<stop  offset="0" style="stop-color:#5F6271"/>
						<stop  offset="1" style="stop-color:#2B3149"/>
					</linearGradient>
					<polygon style="fill:url(#SVGID_00000049216971132142274480000012090616712469794741_);" points="1089.4,926 1089.2,1331.1 
						1013.6,1287.4 1013.8,882.3 					"/>
				</g>
				
					<linearGradient id="SVGID_00000033359283733825486730000015444071866788788897_" gradientUnits="userSpaceOnUse" x1="1013.8018" y1="876.4894" x2="1184.5742" y2="876.4894">
					<stop  offset="0" style="stop-color:#FFFFFF"/>
					<stop  offset="1" style="stop-color:#CCCDD2"/>
				</linearGradient>
				<polygon style="fill:url(#SVGID_00000033359283733825486730000015444071866788788897_);" points="1013.8,882.3 1109,827 
					1184.6,870.7 1089.4,926 				"/>
			</g>
		</g>
		<g>
			<g>
				<g>
					<polygon class="st37" points="1065.9,1056.2 1065.7,1346.1 970.5,1401.4 970.7,1111.5 					"/>
				</g>
				<g>
					
						<linearGradient id="SVGID_00000121976282855649549590000014532341563972195999_" gradientUnits="userSpaceOnUse" x1="859.6083" y1="1097.7986" x2="1026.4601" y2="1409.6523">
						<stop  offset="0" style="stop-color:#5F6271"/>
						<stop  offset="1" style="stop-color:#2B3149"/>
					</linearGradient>
					<polygon style="fill:url(#SVGID_00000121976282855649549590000014532341563972195999_);" points="970.7,1111.5 970.5,1401.4 
						894.9,1357.8 895.1,1067.8 					"/>
				</g>
				
					<linearGradient id="SVGID_00000093898729308843105340000015549160545819959182_" gradientUnits="userSpaceOnUse" x1="895.1385" y1="1061.9967" x2="1065.9109" y2="1061.9967">
					<stop  offset="0" style="stop-color:#FFFFFF"/>
					<stop  offset="1" style="stop-color:#CCCDD2"/>
				</linearGradient>
				<polygon style="fill:url(#SVGID_00000093898729308843105340000015549160545819959182_);" points="895.1,1067.8 990.3,1012.5 
					1065.9,1056.2 970.7,1111.5 				"/>
			</g>
		</g>
		<g>
			<g>
				<g>
					<polygon class="st37" points="947.2,1218.1 947,1416.5 851.8,1471.8 852.1,1273.4 					"/>
				</g>
				<g>
					
						<linearGradient id="SVGID_00000041257278628015016890000010411443938144708786_" gradientUnits="userSpaceOnUse" x1="758.8677" y1="1247.457" x2="884.8734" y2="1482.9677">
						<stop  offset="0" style="stop-color:#5F6271"/>
						<stop  offset="1" style="stop-color:#2B3149"/>
					</linearGradient>
					<polygon style="fill:url(#SVGID_00000041257278628015016890000010411443938144708786_);" points="852.1,1273.4 851.8,1471.8 
						776.2,1428.2 776.5,1229.8 					"/>
				</g>
				
					<linearGradient id="SVGID_00000125582478390532068030000005477872248496811955_" gradientUnits="userSpaceOnUse" x1="776.4752" y1="1223.9279" x2="947.2476" y2="1223.9279">
					<stop  offset="0" style="stop-color:#FFFFFF"/>
					<stop  offset="1" style="stop-color:#CCCDD2"/>
				</linearGradient>
				<polygon style="fill:url(#SVGID_00000125582478390532068030000005477872248496811955_);" points="776.5,1229.8 871.6,1174.4 
					947.2,1218.1 852.1,1273.4 				"/>
			</g>
		</g>
		<g>
			<g>
				<g>
					<polygon class="st37" points="828.6,1336.8 828.3,1486.9 733.2,1542.2 733.4,1392.1 					"/>
				</g>
				<g>
					
						<linearGradient id="SVGID_00000030459775378158354870000001356020804260577966_" gradientUnits="userSpaceOnUse" x1="649.6564" y1="1359.6509" x2="754.1209" y2="1554.8999">
						<stop  offset="0" style="stop-color:#5F6271"/>
						<stop  offset="1" style="stop-color:#2B3149"/>
					</linearGradient>
					<polygon style="fill:url(#SVGID_00000030459775378158354870000001356020804260577966_);" points="733.4,1392.1 733.2,1542.2 
						657.6,1498.6 657.8,1348.4 					"/>
				</g>
				
					<linearGradient id="SVGID_00000040556107607728055250000012037819468631052709_" gradientUnits="userSpaceOnUse" x1="657.812" y1="1342.5939" x2="828.5843" y2="1342.5939">
					<stop  offset="0" style="stop-color:#FFFFFF"/>
					<stop  offset="1" style="stop-color:#CCCDD2"/>
				</linearGradient>
				<polygon style="fill:url(#SVGID_00000040556107607728055250000012037819468631052709_);" points="657.8,1348.4 753,1293.1 
					828.6,1336.8 733.4,1392.1 				"/>
			</g>
		</g>
	</g>
	<g>
		<g>
			<defs>
				<filter id="Adobe_OpacityMaskFilter" filterUnits="userSpaceOnUse" x="1972.1" y="1359.7" width="372.3" height="217.4">
					<feFlood  style="flood-color:white;flood-opacity:1" result="back"/>
					<feBlend  in="SourceGraphic" in2="back" mode="normal"/>
				</filter>
			</defs>
			
				<mask maskUnits="userSpaceOnUse" x="1972.1" y="1359.7" width="372.3" height="217.4" id="SVGID_00000080202627457714770730000017653144041747279006_">
				<g class="st48">
					<defs>
						
							<filter id="Adobe_OpacityMaskFilter_00000154413439689284751540000015085936829064162737_" filterUnits="userSpaceOnUse" x="1972.1" y="1359.7" width="372.3" height="217.4">
							<feFlood  style="flood-color:white;flood-opacity:1" result="back"/>
							<feBlend  in="SourceGraphic" in2="back" mode="normal"/>
						</filter>
					</defs>
					
						<mask maskUnits="userSpaceOnUse" x="1972.1" y="1359.7" width="372.3" height="217.4" id="SVGID_00000080202627457714770730000017653144041747279006_">
					</mask>
					
						<linearGradient id="SVGID_00000179641255661844714980000018406181692539908531_" gradientUnits="userSpaceOnUse" x1="1972.1285" y1="1468.4009" x2="2344.4617" y2="1468.4009">
						<stop  offset="0" style="stop-color:#FFFFFF"/>
						<stop  offset="1" style="stop-color:#000000"/>
					</linearGradient>
					
						<polygon style="mask:url(#SVGID_00000080202627457714770730000017653144041747279006_);fill:url(#SVGID_00000179641255661844714980000018406181692539908531_);" points="
						1972.1,1467.4 2157.4,1359.7 2344.5,1469.4 2159.2,1577.1 					"/>
				</g>
			</mask>
			
				<linearGradient id="SVGID_00000124844328986607351770000004443701384286837944_" gradientUnits="userSpaceOnUse" x1="1972.1285" y1="1468.4009" x2="2344.4617" y2="1468.4009">
				<stop  offset="0" style="stop-color:#2C274C"/>
				<stop  offset="1" style="stop-color:#2C274C"/>
			</linearGradient>
			<polygon style="opacity:0.28;fill:url(#SVGID_00000124844328986607351770000004443701384286837944_);" points="1972.1,1467.4 
				2157.4,1359.7 2344.5,1469.4 2159.2,1577.1 			"/>
			<g>
				<polygon class="st37" points="2344.5,1186.9 2344,1348.1 2158.7,1455.7 2159.2,1294.5 				"/>
			</g>
			<g>
				
					<linearGradient id="SVGID_00000129891424354322624060000005331164736564724620_" gradientUnits="userSpaceOnUse" x1="1735.1232" y1="702.9056" x2="2171.2075" y2="1517.9681">
					<stop  offset="0" style="stop-color:#5F6271"/>
					<stop  offset="1" style="stop-color:#2B3149"/>
				</linearGradient>
				<polygon style="fill:url(#SVGID_00000129891424354322624060000005331164736564724620_);" points="2159.2,1294.5 2158.7,1455.7 
					1971.7,1346 1972.1,1184.8 				"/>
			</g>
			
				<linearGradient id="SVGID_00000119828987517815190400000010909682209736493977_" gradientUnits="userSpaceOnUse" x1="1972.1285" y1="1185.8203" x2="2344.4617" y2="1185.8203">
				<stop  offset="0" style="stop-color:#FFFFFF"/>
				<stop  offset="1" style="stop-color:#CCCDD2"/>
			</linearGradient>
			<polygon style="fill:url(#SVGID_00000119828987517815190400000010909682209736493977_);" points="1972.1,1184.8 2157.4,1077.1 
				2344.5,1186.9 2159.2,1294.5 			"/>
		</g>
		<g>
			
				<linearGradient id="SVGID_00000103248880422591643580000002223204984271018380_" gradientUnits="userSpaceOnUse" x1="2132.7629" y1="629.7551" x2="2216.6982" y2="795.4738">
				<stop  offset="0" style="stop-color:#5F6271"/>
				<stop  offset="1" style="stop-color:#2B3149"/>
			</linearGradient>
			<path style="fill:url(#SVGID_00000103248880422591643580000002223204984271018380_);" d="M2269.9,737.2
				c0,57.9-46.9,85.3-104.9,61.2c-57.9-24.1-104.8-90.6-104.8-148.5c0-57.9,46.9-85.3,104.8-61.2
				C2223,612.8,2269.9,679.3,2269.9,737.2z"/>
			
				<ellipse transform="matrix(0.7758 -0.6309 0.6309 0.7758 38.8727 1515.0035)" class="st55" cx="2151.5" cy="702.8" rx="85.3" ry="128.9"/>
			<path class="st37" d="M2234.7,737.4c0,46-37.3,67.7-83.2,48.6c-46-19.1-83.2-71.9-83.2-117.9c0-46,37.3-67.7,83.2-48.6
				C2197.5,638.7,2234.7,691.5,2234.7,737.4z"/>
			<g>
				<path class="st56" d="M2136.6,684.5c0,14.6-7.7,21.9-16.7,21.9c-8.7,0-16.2-7-16.3-21c0-13.9,7.6-21.7,16.8-21.7
					C2130.2,663.7,2136.6,671.2,2136.6,684.5z M2111.2,685.1c-0.2,8.9,3.1,15.6,9,15.6c6.2,0,9-6.6,9-15.8c0-8.5-2.5-15.5-9-15.5
					C2114.3,669.4,2111.2,676.4,2111.2,685.1z M2119.3,735.6l40.9-71.9h6l-40.9,71.9H2119.3z M2181.9,713.3
					c0,14.7-7.7,21.9-16.6,21.9c-8.7,0-16.2-7-16.3-20.9c0-14,7.6-21.8,16.8-21.8C2175.6,692.5,2181.9,700,2181.9,713.3z
					 M2156.4,713.9c-0.1,8.9,3.3,15.6,9.1,15.6c6.2,0,9-6.6,9-15.8c0-8.5-2.5-15.5-9-15.5C2159.6,698.2,2156.4,705.1,2156.4,713.9z"
					/>
			</g>
		</g>
		<g>
			
				<ellipse transform="matrix(0.7758 -0.6309 0.6309 0.7758 -144.6228 1589.8352)" class="st37" cx="2165.1" cy="998.4" rx="85.3" ry="128.9"/>
			
				<ellipse transform="matrix(0.7758 -0.6309 0.6309 0.7758 -153.4949 1583.3505)" class="st37" cx="2151.5" cy="1007.7" rx="85.3" ry="128.9"/>
			
				<linearGradient id="SVGID_00000094590821464372968450000004074738653373345983_" gradientUnits="userSpaceOnUse" x1="2136.1616" y1="964.5374" x2="2170.8323" y2="1032.9899">
				<stop  offset="0" style="stop-color:#FAFAF9"/>
				<stop  offset="1" style="stop-color:#D9D9D6"/>
			</linearGradient>
			<polygon style="fill:url(#SVGID_00000094590821464372968450000004074738653373345983_);" points="2097.6,958.2 2120.4,1041.2 
				2211.7,1018.3 2208.7,1000 2135.2,1016.5 2120.4,955.7 			"/>
			
				<linearGradient id="SVGID_00000016033421044997512070000015948488943520503229_" gradientUnits="userSpaceOnUse" x1="2052.4741" y1="989.48" x2="2256.3643" y2="989.48">
				<stop  offset="0" style="stop-color:#38ACA8"/>
				<stop  offset="1" style="stop-color:#C3E6E5"/>
			</linearGradient>
			<path style="fill:url(#SVGID_00000016033421044997512070000015948488943520503229_);" d="M2150.9,904.4
				c57.9,24.1,104.8,90.6,104.8,148.5c0,12.1-2.1,22.8-5.8,32c4.1-9.6,6.4-20.8,6.4-33.5c0-57.9-46.9-124.4-104.8-148.5
				c-45.8-19.1-84.8-5.9-99,29.2C2067.2,898.1,2105.7,885.5,2150.9,904.4z"/>
		</g>
	</g>
	<g>
		<g>
			<g>
				<path class="st59" d="M531.3,1333.6c0,1.2-0.2,2.4-0.5,3.6c-4.9,16.6-43.2,29.5-89.6,29.5c-46.5,0-84.8-12.9-89.6-29.5
					c-0.4-1.2-0.5-2.4-0.5-3.6c0-18.3,40.3-33.1,90.2-33.1C490.9,1300.5,531.3,1315.3,531.3,1333.6z"/>
				<path class="st60" d="M530.7,1337.2l-20.2,133.5c0,14.1-31.1,25.5-69.5,25.5c-38.4,0-69.5-11.4-69.5-25.5l-20.1-133.5
					c4.9,16.6,43.1,29.5,89.6,29.5C487.6,1366.7,525.9,1353.8,530.7,1337.2z"/>
			</g>
			<path class="st37" d="M462.9,1312.9c-21.1-14.9,23.6-61.6,60.5-59.4c36.9,2.1,35.1,25.4,62.3,21.1c27.2-4.3,45.5-0.7,58,17.9
				c12.5,18.6,3.6,56.2,3.6,56.2s-16.8-33.7-49.1-31.5c-32.2,2.1-46.9,2.4-70.9-16.7C503.4,1281.4,492.3,1333.7,462.9,1312.9z"/>
			<path class="st37" d="M445.5,1310.8c-30.6-13.3-18.6-76.4,21-84.3c39.7-7.8,45.1-31.9,56.5-54.7c11.4-22.8,40.3-6.6,65.5-23.4
				c25.2-16.8,108.2,10.2,108.2,10.2s-61.3,3-78.1,28.2c-16.8,25.2-52.8,13.8-64.6,37.9c-11.8,24-18.4,42.1-58,50.5
				C456.3,1283.6,445.5,1310.8,445.5,1310.8z"/>
			<path class="st37" d="M413.4,1322.7c0,0-60.2-27.1-49.4-78.5c10.8-51.4,14.9-63.7-27.1-74.2c-41.9-10.4-55.5-29.6-37.9-66.7
				c17.6-37.1-41.9-78.4-41.9-78.4s100.1,1.4,111.6,45.3c11.5,44,10.1,58.2,41.3,64.3s67,18.3,57.5,72.4
				c-9.5,54.1-22.1,103.8-22.1,103.8S436.2,1337.4,413.4,1322.7z"/>
			<path class="st37" d="M456.6,1299.7c0,0-44.2-20.8-33.4-60.2c10.8-39.4,21.8-46.3,11.1-76.5c-10.7-30.2-8.5-66.5,22.7-84
				s14-74.1,31.8-96c17.8-21.9,44.6-28.6,44.6-28.6s-15.9,38.7-6.5,63.7c9.4,25,39.7,63.5-3.1,97.4c-42.8,33.9,14.1,59.2-0.5,98.2
				C508.8,1252.7,454.1,1267,456.6,1299.7z"/>
			<path class="st37" d="M434.6,1311.2c21-22.9-12.4-98.2-55.8-109.5c-43.3-11.2-61.5,10.5-83.5,0c-22-10.5-59.1-38.1-94-8.7
				c-34.9,29.4-40.2,46.1-40.2,46.1s65.2-41.3,89.4-4c24.3,37.3,67.5,32,103.8,26.6c36.3-5.5,38,64.5,59.1,65.3
				C434.7,1327.7,434.6,1311.2,434.6,1311.2z"/>
			<path class="st37" d="M425.6,1315c-8.3-34.2-55.3-50.5-73.5-26c-18.2,24.4-56.1-1.9-67.5,26c-11.4,28,8.3,43.1-17.4,59
				c-25.8,15.9-3.8,55.3-3.8,55.3s11.4-26.4,32.6-29.5c21.2-3.1,50.8-25.1,49.3-53.9c-1.5-28.8,24.3-46.7,47.7-24.5
				C416.5,1343.8,425.6,1315,425.6,1315z"/>
			<path class="st37" d="M435.2,1287.3c-12.7,23.4-34.9,37.5-8.4,50.9c26.5,13.5,11.2,38.2-6.5,50.1c-17.7,11.9,17.9,15.7,47.4,28.6
				c29.6,12.9,24.3,47.7,24.3,47.7s23.8-6.1,30.8-51.5c7-45.5-30.1-25-27.1-62.1C498.8,1313.8,445.9,1267.7,435.2,1287.3z"/>
			<g class="st61">
				<path class="st62" d="M438.5,1272.7c0,0,51.5-59.5,34.7-102.7c-16.7-43.1-6.6-85.4,24-99.9c30.6-14.6-20.9-93.8,36.1-115.7"/>
				<path class="st62" d="M525.4,1205.4c0,0,13.5-38.8,37-29.4c23.5,9.4,41.8-26.1,68.7-22.9c26.9,3.2,58.9,3.4,58.9,3.4"/>
				<path class="st62" d="M425.6,1231.4c0,0,14.5-66.7-30-75.7c-44.5-9-62.2-28.7-55.5-69.7c6.7-41-76.7-60.7-76.7-60.7"/>
				<path class="st62" d="M495.9,1275.2c0,0,29.8-10.6,58,14.6c28.2,25.2,40.3-9.9,66.8,0c26.5,9.9,26.5,58.9,26.5,58.9"/>
				<path class="st62" d="M421.5,1294.9c0,0-3.1-70.4-63.4-68.1c-60.3,2.3-67.6,4.1-94.7-21.4c-27.1-25.5-78.3-3.7-102.2,33.6"/>
				<path class="st62" d="M419.6,1310.8c0,0-38-51-74-10.3c-36,40.7-47.1,22.4-48.4,52.8c-1.3,30.5-28.3,25.4-33.8,44.2
					c-5.5,18.8,0,31.8,0,31.8"/>
				<path class="st62" d="M435.2,1287.3c0,0,40.8,6.8,29.7,53.6c-11.1,46.8-2.4,46.2,21.1,56c23.5,9.8,18.2,40.5,6,67.7"/>
			</g>
		</g>
		<g class="st4">
			
				<ellipse transform="matrix(0.4569 -0.8895 0.8895 0.4569 -1078.8197 1236.632)" class="st5" cx="473.2" cy="1501.7" rx="62" ry="182.8"/>
			
				<ellipse transform="matrix(0.4569 -0.8895 0.8895 0.4569 -1078.8197 1236.632)" class="st6" cx="473.2" cy="1501.7" rx="60.7" ry="179"/>
			
				<ellipse transform="matrix(0.4569 -0.8895 0.8895 0.4569 -1078.8197 1236.632)" class="st7" cx="473.2" cy="1501.7" rx="59.4" ry="175.3"/>
			
				<ellipse transform="matrix(0.4569 -0.8895 0.8895 0.4569 -1078.8198 1236.632)" class="st8" cx="473.2" cy="1501.7" rx="58.2" ry="171.5"/>
			
				<ellipse transform="matrix(0.4569 -0.8895 0.8895 0.4569 -1078.8198 1236.6321)" class="st9" cx="473.2" cy="1501.7" rx="56.9" ry="167.8"/>
			
				<ellipse transform="matrix(0.4569 -0.8895 0.8895 0.4569 -1078.8198 1236.6321)" class="st10" cx="473.2" cy="1501.7" rx="55.6" ry="164"/>
			
				<ellipse transform="matrix(0.4569 -0.8895 0.8895 0.4569 -1078.8198 1236.6321)" class="st11" cx="473.2" cy="1501.7" rx="54.3" ry="160.3"/>
			
				<ellipse transform="matrix(0.4569 -0.8895 0.8895 0.4569 -1078.8198 1236.6321)" class="st12" cx="473.2" cy="1501.7" rx="53.1" ry="156.5"/>
			
				<ellipse transform="matrix(0.4569 -0.8895 0.8895 0.4569 -1078.8198 1236.6321)" class="st13" cx="473.2" cy="1501.7" rx="51.8" ry="152.8"/>
			
				<ellipse transform="matrix(0.4569 -0.8895 0.8895 0.4569 -1078.8199 1236.6322)" class="st14" cx="473.2" cy="1501.7" rx="50.5" ry="149"/>
			
				<ellipse transform="matrix(0.4569 -0.8895 0.8895 0.4569 -1078.8199 1236.6322)" class="st15" cx="473.2" cy="1501.7" rx="49.3" ry="145.3"/>
			
				<ellipse transform="matrix(0.4569 -0.8895 0.8895 0.4569 -1078.8199 1236.6322)" class="st16" cx="473.2" cy="1501.7" rx="48" ry="141.5"/>
			
				<ellipse transform="matrix(0.4569 -0.8895 0.8895 0.4569 -1078.8199 1236.6322)" class="st17" cx="473.2" cy="1501.7" rx="46.7" ry="137.8"/>
			
				<ellipse transform="matrix(0.4569 -0.8895 0.8895 0.4569 -1078.8199 1236.6323)" class="st18" cx="473.2" cy="1501.7" rx="45.4" ry="134"/>
			
				<ellipse transform="matrix(0.4569 -0.8895 0.8895 0.4569 -1078.8199 1236.6323)" class="st19" cx="473.2" cy="1501.7" rx="44.2" ry="130.3"/>
			
				<ellipse transform="matrix(0.4569 -0.8895 0.8895 0.4569 -1078.8201 1236.6323)" class="st20" cx="473.2" cy="1501.7" rx="42.9" ry="126.5"/>
			
				<ellipse transform="matrix(0.4569 -0.8895 0.8895 0.4569 -1078.8201 1236.6323)" class="st21" cx="473.2" cy="1501.7" rx="41.6" ry="122.8"/>
			
				<ellipse transform="matrix(0.4569 -0.8895 0.8895 0.4569 -1078.8201 1236.6324)" class="st22" cx="473.2" cy="1501.7" rx="40.4" ry="119"/>
			
				<ellipse transform="matrix(0.4569 -0.8895 0.8895 0.4569 -1078.8201 1236.6324)" class="st23" cx="473.2" cy="1501.7" rx="39.1" ry="115.3"/>
			
				<ellipse transform="matrix(0.4569 -0.8895 0.8895 0.4569 -1078.8201 1236.6324)" class="st24" cx="473.2" cy="1501.7" rx="37.8" ry="111.5"/>
			
				<ellipse transform="matrix(0.4569 -0.8895 0.8895 0.4569 -1078.8202 1236.6324)" class="st25" cx="473.2" cy="1501.7" rx="36.5" ry="107.7"/>
			
				<ellipse transform="matrix(0.4569 -0.8895 0.8895 0.4569 -1078.8202 1236.6326)" class="st26" cx="473.2" cy="1501.7" rx="35.3" ry="104"/>
			
				<ellipse transform="matrix(0.4569 -0.8895 0.8895 0.4569 -1078.8202 1236.6326)" class="st27" cx="473.2" cy="1501.7" rx="34" ry="100.2"/>
			
				<ellipse transform="matrix(0.4569 -0.8895 0.8895 0.4569 -1078.8202 1236.6326)" class="st28" cx="473.2" cy="1501.7" rx="32.7" ry="96.5"/>
			
				<ellipse transform="matrix(0.4569 -0.8895 0.8895 0.4569 -1078.8202 1236.6327)" class="st29" cx="473.2" cy="1501.7" rx="31.4" ry="92.7"/>
			
				<ellipse transform="matrix(0.4569 -0.8895 0.8895 0.4569 -1078.8203 1236.6327)" class="st30" cx="473.2" cy="1501.7" rx="30.2" ry="89"/>
			
				<ellipse transform="matrix(0.4569 -0.8895 0.8895 0.4569 -1078.8203 1236.6328)" class="st31" cx="473.2" cy="1501.7" rx="28.9" ry="85.2"/>
			
				<ellipse transform="matrix(0.4569 -0.8895 0.8895 0.4569 -1078.8203 1236.6328)" class="st32" cx="473.2" cy="1501.7" rx="27.6" ry="81.5"/>
		</g>
	</g>
	<g>
		
			<linearGradient id="SVGID_00000021097433471855127240000014414724902990949031_" gradientUnits="userSpaceOnUse" x1="1816.7145" y1="1508.5093" x2="1875.4982" y2="1508.5093">
			<stop  offset="0.2232" style="stop-color:#FFD097"/>
			<stop  offset="1" style="stop-color:#EAA56C"/>
		</linearGradient>
		<path style="fill:url(#SVGID_00000021097433471855127240000014414724902990949031_);" d="M1818.7,1481.6c0,0-6.6,32.7,4.5,41.9
			c11.1,9.2,43.2,24.3,50.4-6.2c7.2-30.5-7.9-35.7-7.9-35.7H1818.7z"/>
		
			<linearGradient id="SVGID_00000159446428032688287580000011806297211587284874_" gradientUnits="userSpaceOnUse" x1="1775.7651" y1="1422.4417" x2="1818.6852" y2="1422.4417">
			<stop  offset="0.2232" style="stop-color:#FFD097"/>
			<stop  offset="1" style="stop-color:#EAA56C"/>
		</linearGradient>
		<path style="fill:url(#SVGID_00000159446428032688287580000011806297211587284874_);" d="M1779.9,1414.2c0,0-9.3,25.5,0,32.1
			c9.3,6.5,37.7-10.2,38.7-26.2c1-16-5.9-22.9-5.9-22.9L1779.9,1414.2z"/>
		
			<linearGradient id="SVGID_00000096021043368910533450000009421095866768413576_" gradientUnits="userSpaceOnUse" x1="1710.2883" y1="1464.1445" x2="1835.3721" y2="1464.1445">
			<stop  offset="0" style="stop-color:#5F6271"/>
			<stop  offset="1" style="stop-color:#2B3149"/>
		</linearGradient>
		<path style="fill:url(#SVGID_00000096021043368910533450000009421095866768413576_);" d="M1772.5,1432.6c0,0,15.8,10.4,32.2-3.8
			c16.4-14.2,13.6-20.2,19.1-16.9c5.5,3.3,18.1,14.4,7.4,24.4c-10.7,10-59.3,71.6-66.9,75.5c-7.6,3.8-54,10.4-54,0
			c0-10.4,36-21.3,44.2-43.1C1762.7,1446.8,1772.5,1432.6,1772.5,1432.6z"/>
		
			<linearGradient id="SVGID_00000098918125410351453080000015913869559174700177_" gradientUnits="userSpaceOnUse" x1="1673.1633" y1="1264.5358" x2="1905.6997" y2="1264.5358">
			<stop  offset="0" style="stop-color:#5F6271"/>
			<stop  offset="1" style="stop-color:#2B3149"/>
		</linearGradient>
		<path style="fill:url(#SVGID_00000098918125410351453080000015913869559174700177_);" d="M1905.7,1047.6l-27.3,227.3l-4.8,213
			c0,0-3.9,4.8-26,9.6c-22.2,4.8-30.8-7.7-30.8-7.7l-20.2-251.6l-23.6-122.4l-6.7,102.6l53.4,185.6c0,0-6.7,13.5-22.2,18.3
			c-15.4,4.8-24.5,1.9-24.5,1.9l-90.2-188l-9.5-206L1905.7,1047.6z"/>
		
			<linearGradient id="SVGID_00000073716738451755420870000002440127075259926696_" gradientUnits="userSpaceOnUse" x1="1772.9054" y1="588.244" x2="1772.9054" y2="1129.3484">
			<stop  offset="0" style="stop-color:#FFFFFF"/>
			<stop  offset="1" style="stop-color:#CCCDD2"/>
		</linearGradient>
		<path style="fill:url(#SVGID_00000073716738451755420870000002440127075259926696_);" d="M1946.8,940.5
			c-4.8,13.6-44.7,29.1-44.7,29.1l3.5,78c0,0-55.8,31.5-126.1,29.5c-5.5-0.1-11.3-0.6-17-1.1c-31.1-3.4-51.7-11.3-65.2-19.6
			c-20.2-12.6-24.3-26-24.3-26l3.3-137.8c0,0-5.2,1.1-28.4,9.5c-23.3,8.3-39.4,11-39.4,11l-10.2-33.4c0,0,47.6-16.1,58.9-31.7
			c11.3-15.4,31-200,44.7-210.8c13.7-10.7,61.4,0,61.4,0l3.7,0.8l65.7,15.1l8.1,1.8c0,0,76.8,54.8,81.6,57.8
			C1927.2,715.8,1951.5,926.8,1946.8,940.5z"/>
		
			<linearGradient id="SVGID_00000134949059836832544740000006539506383562585788_" gradientUnits="userSpaceOnUse" x1="1779.6073" y1="865.2365" x2="1948.0039" y2="865.2365">
			<stop  offset="0" style="stop-color:#5F6271"/>
			<stop  offset="1" style="stop-color:#2B3149"/>
		</linearGradient>
		<path style="fill:url(#SVGID_00000134949059836832544740000006539506383562585788_);" d="M1946.8,940.5
			c-4.8,13.6-44.7,29.1-44.7,29.1l3.5,78c0,0-55.8,31.5-126.1,29.5c1.1-31.4,3.8-100.8,7.1-165c2.4-46.6,5.1-90.5,7.9-114.9
			c6.1-51.7,26.4-112.1,36.8-140.2c0.6-1.4,1-2.7,1.4-3.8l3.7,0.8l4.4,1c0,0,4.1,6.2,13.4,9.6c24.6,8.9,66.5,33.9,68.1,37.7
			C1942,749.1,1951.5,926.8,1946.8,940.5z"/>
		
			<linearGradient id="SVGID_00000161598530861417212090000015515425358163395503_" gradientUnits="userSpaceOnUse" x1="1628.4988" y1="816.5848" x2="1700.1635" y2="837.7584">
			<stop  offset="0" style="stop-color:#5F6271"/>
			<stop  offset="1" style="stop-color:#2B3149"/>
		</linearGradient>
		<path style="fill:url(#SVGID_00000161598530861417212090000015515425358163395503_);" d="M1767,638.1
			c-13.7,21.6-47.8,85.8-58.5,202.6c-2.4,26.7-4.4,52.2-5.8,76.1c-3.8,58.8-5.1,107.4-5.2,139.7c-20.2-12.6-24.3-26-24.3-26l6-242.6
			c0,0-56.1,51.7-74.9,77.5c-14.6,20-21.4,47-21.4,47l15.5-32.5c0,0-51.4-45.8-40.1-61.4c11.3-15.4,125.9-162.6,139.6-173.4
			c6.1-4.8,23.2-13.1,35.7-12.1c15.3,1.1,29.8,4.4,29.8,4.4L1767,638.1z"/>
		
			<linearGradient id="SVGID_00000080197218223073888800000013152272415865495432_" gradientUnits="userSpaceOnUse" x1="1786.6752" y1="783.1324" x2="1854.9513" y2="783.1324">
			<stop  offset="0" style="stop-color:#5F6271"/>
			<stop  offset="1" style="stop-color:#2B3149"/>
		</linearGradient>
		<path style="fill:url(#SVGID_00000080197218223073888800000013152272415865495432_);" d="M1855,658l-0.7,6.6L1841.7,779l-30.1,7.8
			l16.8,19.4l-41.7,106c2.4-46.6,5.1-90.5,7.9-114.9c6.1-51.7,26.4-112.1,36.8-140.2c3.3-2.1,5.1-3,5.1-3l4.4,1L1855,658z"/>
		
			<linearGradient id="SVGID_00000110466735625038277420000011615153565541502361_" gradientUnits="userSpaceOnUse" x1="1694.65" y1="774.9335" x2="1767.0259" y2="774.9335">
			<stop  offset="0" style="stop-color:#5F6271"/>
			<stop  offset="1" style="stop-color:#2B3149"/>
		</linearGradient>
		<path style="fill:url(#SVGID_00000110466735625038277420000011615153565541502361_);" d="M1767,638.1
			c-13.7,21.6-47.8,85.8-58.5,202.6c-2.4,26.7-4.4,52.2-5.8,76.1l-0.1,0.3l-7.9-165.2l14.4-5.2l-14.4-15.7l38.9-98
			c15.3,1.1,29.8,4.4,29.8,4.4L1767,638.1z"/>
		
			<linearGradient id="SVGID_00000009580374792849574910000018080485485152554657_" gradientUnits="userSpaceOnUse" x1="1510.0588" y1="911.3376" x2="1690.0496" y2="911.3376">
			<stop  offset="0" style="stop-color:#FFFFFF"/>
			<stop  offset="1" style="stop-color:#CCCDD2"/>
		</linearGradient>
		<polygon style="fill:url(#SVGID_00000009580374792849574910000018080485485152554657_);" points="1510.1,763.1 1690,871.3 
			1690,1059.6 1510.1,956 		"/>
		<polygon class="st37" points="1702.1,864.9 1690,871.3 1690,1059.6 1702.1,1053.2 		"/>
		
			<linearGradient id="SVGID_00000114770546680530286480000002630406581963256217_" gradientUnits="userSpaceOnUse" x1="1510.0588" y1="813.9929" x2="1702.0995" y2="813.9929">
			<stop  offset="0" style="stop-color:#C5C5C1"/>
			<stop  offset="1" style="stop-color:#D9D9D6"/>
		</linearGradient>
		<polygon style="fill:url(#SVGID_00000114770546680530286480000002630406581963256217_);" points="1510.1,763.1 1522.1,756.7 
			1702.1,864.9 1690,871.3 		"/>
		
			<linearGradient id="SVGID_00000029749767960932978070000015735312345411189380_" gradientUnits="userSpaceOnUse" x1="1702.0995" y1="1000.9351" x2="1802.4131" y2="1000.9351">
			<stop  offset="0" style="stop-color:#5F6271"/>
			<stop  offset="1" style="stop-color:#2B3149"/>
		</linearGradient>
		<polygon style="fill:url(#SVGID_00000029749767960932978070000015735312345411189380_);" points="1702.1,948.7 1802.4,999.7 
			1702.1,1053.2 		"/>
		<polygon class="st37" points="1690,1059.6 1690,1071.2 1802.4,1012.1 1802.4,999.7 		"/>
		
			<linearGradient id="SVGID_00000145778738959955446860000015056948432694995638_" gradientUnits="userSpaceOnUse" x1="1518.4335" y1="1015.9702" x2="1690.0496" y2="1015.9702">
			<stop  offset="0" style="stop-color:#5F6271"/>
			<stop  offset="1" style="stop-color:#2B3149"/>
		</linearGradient>
		<polygon style="fill:url(#SVGID_00000145778738959955446860000015056948432694995638_);" points="1518.4,960.8 1518.4,975 
			1690,1071.2 1690,1059.6 		"/>
		
			<linearGradient id="SVGID_00000018216814260543569870000013035859860390912191_" gradientUnits="userSpaceOnUse" x1="1729.8175" y1="992.6975" x2="1828.1938" y2="992.6975">
			<stop  offset="0.2232" style="stop-color:#FFD097"/>
			<stop  offset="1" style="stop-color:#EAA56C"/>
		</linearGradient>
		<path style="fill:url(#SVGID_00000018216814260543569870000013035859860390912191_);" d="M1795.5,960.8c0,0-20.1-4.8-33.7,1.4
			c-13.6,6.3-26.2,14.3-26.2,14.3s-1.3,5,10.7,0c12-5,15.5-5.5,15.5-5.5s-18.2,18.5-26.2,28.7c-8,10.1-9.5,32.8,8.6,25.2
			c18.1-7.6,38.8-20.6,55.4-21.1s28.7-11,28.7-11S1815.1,962.4,1795.5,960.8z"/>
		
			<linearGradient id="SVGID_00000080923487782370550560000000464952967040395705_" gradientUnits="userSpaceOnUse" x1="1713.895" y1="825.4753" x2="1790.652" y2="825.4753">
			<stop  offset="0" style="stop-color:#FF871A"/>
			<stop  offset="1" style="stop-color:#FFC900"/>
		</linearGradient>
		<path style="fill:url(#SVGID_00000080923487782370550560000000464952967040395705_);" d="M1770.5,690.2
			c3,3.4-56.6,229.2-56.6,229.2l12,41.4l33.8-31.2l31-232.7L1770.5,690.2z"/>
		
			<linearGradient id="SVGID_00000002380610074161366280000007887958200621931945_" gradientUnits="userSpaceOnUse" x1="1779.8787" y1="1542.5248" x2="1882.5405" y2="1542.5248">
			<stop  offset="0" style="stop-color:#5F6271"/>
			<stop  offset="1" style="stop-color:#2B3149"/>
		</linearGradient>
		<path style="fill:url(#SVGID_00000002380610074161366280000007887958200621931945_);" d="M1812.3,1492.1c0,0-4.9,19.1,8.2,21.3
			s24.6,18,37.7,10.9c13.1-7.1,22.9-25.6,22.9-25.6s4.9,11.2-3.3,27.4c-8.2,16.2-39.3,62.6-50.2,65.3c-10.9,2.7-51.3,4.4-47.5-16.4
			c3.8-20.7,24.6-45.8,25.1-57.8S1812.3,1492.1,1812.3,1492.1z"/>
		<path class="st79" d="M1885.4,770.8c0,0-4.8,119.3,0,121.7c4.8,2.4,37,27.4,37,27.4s-36.4-16.5-51.3-7.6
			c-14.9,8.8-72.8,50-72.8,50s68.6-56.1,70.4-66.2C1870.5,885.9,1885.4,770.8,1885.4,770.8z"/>
		<g>
			
				<linearGradient id="SVGID_00000133528250028505906660000015845168528119082881_" gradientUnits="userSpaceOnUse" x1="1769.1427" y1="638.7352" x2="1833.2456" y2="638.7352">
				<stop  offset="0" style="stop-color:#F9C48B"/>
				<stop  offset="1" style="stop-color:#EAA56C"/>
			</linearGradient>
			<path style="fill:url(#SVGID_00000133528250028505906660000015845168528119082881_);" d="M1770.6,636.4l-1.5,20.3
				c0,0,5.9,10.7,28.7,10.7c22.8,0,35.4-13.3,35.4-13.3l-2.8-44L1770.6,636.4z"/>
			
				<linearGradient id="SVGID_00000165214350318424666650000016997672596642019765_" gradientUnits="userSpaceOnUse" x1="1749.38" y1="594.608" x2="1842.799" y2="594.608">
				<stop  offset="0.2232" style="stop-color:#FFD097"/>
				<stop  offset="1" style="stop-color:#EAA56C"/>
			</linearGradient>
			<path style="fill:url(#SVGID_00000165214350318424666650000016997672596642019765_);" d="M1760.7,545.1c0,0-12.7,26.6-11.1,52.5
				c1.6,25.9-0.4,51.2,16.4,51.7c16.9,0.6,49-7.6,63.8-22.9c14.8-15.3,19.8-63.1,0-78.9C1810,531.7,1760.7,545.1,1760.7,545.1z"/>
			
				<linearGradient id="SVGID_00000172417169597690480500000016293629040781888956_" gradientUnits="userSpaceOnUse" x1="1749.5208" y1="571.0012" x2="1868.7937" y2="571.0012">
				<stop  offset="0" style="stop-color:#5F6271"/>
				<stop  offset="1" style="stop-color:#2B3149"/>
			</linearGradient>
			<path style="fill:url(#SVGID_00000172417169597690480500000016293629040781888956_);" d="M1752.8,524.7
				c-9.3,11.4,2.5,31,21.4,33.4c18.9,2.4,43.2,3.3,43.2,3.3s-4.9,18.9,0,27.6c4.9,8.6,3.7,21.4,6.6,17.3c2.9-4.1-0.9-14.8,9.2-14
				c10.1,0.8-3.5,28.5-3.5,34.2c0,5.7,20.6-2.9,32.9-30.1c12.4-27.2,5.9-67.6-19.3-76.4C1818.2,511.2,1763.9,511.1,1752.8,524.7z"/>
		</g>
		<polygon class="st56" points="1794,666.9 1801.7,693 1836.4,654.1 		"/>
		<polygon class="st56" points="1782.7,665.2 1753.6,680.7 1757.9,654.1 1767,656.5 		"/>
		
			<linearGradient id="SVGID_00000093170227585271785990000006301669918709280172_" gradientUnits="userSpaceOnUse" x1="1766.9645" y1="679.8437" x2="1795.033" y2="679.8437">
			<stop  offset="0" style="stop-color:#FF871A"/>
			<stop  offset="1" style="stop-color:#FFC900"/>
		</linearGradient>
		<path style="fill:url(#SVGID_00000093170227585271785990000006301669918709280172_);" d="M1782.7,662.8c0,0-14.2,21.6-15.7,26.2
			c-1.5,4.6,24.7,10.6,27,6.4c2.3-4.2,0-30.1,0-30.1L1782.7,662.8z"/>
		<g>
			<g>
				
					<linearGradient id="SVGID_00000050655736699208416500000018166416189150287805_" gradientUnits="userSpaceOnUse" x1="4509.9507" y1="567.824" x2="4521.1221" y2="602.2197" gradientTransform="matrix(-1 0 0 1 5997.5996 -3.650000e-02)">
					<stop  offset="0" style="stop-color:#EFEFF1"/>
					<stop  offset="1" style="stop-color:#CCCDD2"/>
				</linearGradient>
				<polygon style="fill:url(#SVGID_00000050655736699208416500000018166416189150287805_);" points="1471.5,551 1471.6,595.8 
					1495.6,609.7 1495.5,565 				"/>
			</g>
			<g>
				
					<linearGradient id="SVGID_00000063609405455022380420000015903863070600981912_" gradientUnits="userSpaceOnUse" x1="4473.1401" y1="584.9771" x2="4484.2852" y2="619.2927" gradientTransform="matrix(-1 0 0 1 5997.5996 -3.650000e-02)">
					<stop  offset="0" style="stop-color:#EFEFF1"/>
					<stop  offset="1" style="stop-color:#CCCDD2"/>
				</linearGradient>
				<polygon style="fill:url(#SVGID_00000063609405455022380420000015903863070600981912_);" points="1508.1,565.8 1508.1,617 
					1532.1,631 1532,579.7 				"/>
			</g>
			<g>
				
					<linearGradient id="SVGID_00000049924431281449258580000011908277664751679912_" gradientUnits="userSpaceOnUse" x1="4426.1274" y1="563.0922" x2="4447.1255" y2="627.7448" gradientTransform="matrix(-1 0 0 1 5997.5996 -3.650000e-02)">
					<stop  offset="0" style="stop-color:#EFEFF1"/>
					<stop  offset="1" style="stop-color:#CCCDD2"/>
				</linearGradient>
				<polygon style="fill:url(#SVGID_00000049924431281449258580000011908277664751679912_);" points="1544.6,565.3 1544.7,638.3 
					1568.6,652.2 1568.6,579.2 				"/>
			</g>
			<g>
				
					<linearGradient id="SVGID_00000042736387624806259580000015413188922568321448_" gradientUnits="userSpaceOnUse" x1="4354.875" y1="449.4941" x2="4405.4355" y2="605.1678" gradientTransform="matrix(-1 0 0 1 5997.5996 -3.650000e-02)">
					<stop  offset="0" style="stop-color:#EFEFF1"/>
					<stop  offset="1" style="stop-color:#CCCDD2"/>
				</linearGradient>
				<polygon style="fill:url(#SVGID_00000042736387624806259580000015413188922568321448_);" points="1581.2,530.6 1581.2,659.5 
					1605.2,673.4 1605.1,544.5 				"/>
			</g>
			<g>
				
					<linearGradient id="SVGID_00000140725231145344496550000013128347314883525567_" gradientUnits="userSpaceOnUse" x1="4303.6689" y1="436.0345" x2="4358.2168" y2="603.9838" gradientTransform="matrix(-1 0 0 1 5997.5996 -3.650000e-02)">
					<stop  offset="0" style="stop-color:#EFEFF1"/>
					<stop  offset="1" style="stop-color:#CCCDD2"/>
				</linearGradient>
				<polygon style="fill:url(#SVGID_00000140725231145344496550000013128347314883525567_);" points="1617.7,572.7 1617.8,680.7 
					1641.7,694.7 1641.7,586.7 				"/>
			</g>
		</g>
	</g>
	<g>
		<defs>
			
				<filter id="Adobe_OpacityMaskFilter_00000122708090813260416180000014321606636258070182_" filterUnits="userSpaceOnUse" x="2068.3" y="1636.6" width="760.3" height="407.8">
				<feFlood  style="flood-color:white;flood-opacity:1" result="back"/>
				<feBlend  in="SourceGraphic" in2="back" mode="normal"/>
			</filter>
		</defs>
		
			<mask maskUnits="userSpaceOnUse" x="2068.3" y="1636.6" width="760.3" height="407.8" id="SVGID_00000135651167838102192710000000203423534542709689_">
			<g style="filter:url(#Adobe_OpacityMaskFilter_00000122708090813260416180000014321606636258070182_);">
				<defs>
					
						<filter id="Adobe_OpacityMaskFilter_00000009570334417446018980000000131168996293314976_" filterUnits="userSpaceOnUse" x="2068.3" y="1636.6" width="760.3" height="407.8">
						<feFlood  style="flood-color:white;flood-opacity:1" result="back"/>
						<feBlend  in="SourceGraphic" in2="back" mode="normal"/>
					</filter>
				</defs>
				
					<mask maskUnits="userSpaceOnUse" x="2068.3" y="1636.6" width="760.3" height="407.8" id="SVGID_00000135651167838102192710000000203423534542709689_">
				</mask>
				
					<linearGradient id="SVGID_00000173123920596206412300000009740553311370847151_" gradientUnits="userSpaceOnUse" x1="2068.2961" y1="1840.4283" x2="2828.5764" y2="1840.4283">
					<stop  offset="0" style="stop-color:#000000"/>
					<stop  offset="1" style="stop-color:#FFFFFF"/>
				</linearGradient>
				
					<path style="mask:url(#SVGID_00000135651167838102192710000000203423534542709689_);fill:url(#SVGID_00000173123920596206412300000009740553311370847151_);" d="
					M2240.8,1691.9c0,0-231.8,59.1-158.1,213.8c73.7,154.7,393.2,144.1,498.1,132.8c104.9-11.3,247.7-85.7,247.7-162
					s-247.7-237.1-247.7-237.1S2317.9,1618.1,2240.8,1691.9z"/>
			</g>
		</mask>
		
			<linearGradient id="SVGID_00000011726209770848007470000015366442876534318000_" gradientUnits="userSpaceOnUse" x1="2068.2961" y1="1840.4283" x2="2828.5764" y2="1840.4283">
			<stop  offset="0" style="stop-color:#000102"/>
			<stop  offset="1" style="stop-color:#000000"/>
		</linearGradient>
		<path style="opacity:0.39;fill:url(#SVGID_00000011726209770848007470000015366442876534318000_);" d="M2240.8,1691.9
			c0,0-231.8,59.1-158.1,213.8c73.7,154.7,393.2,144.1,498.1,132.8c104.9-11.3,247.7-85.7,247.7-162s-247.7-237.1-247.7-237.1
			S2317.9,1618.1,2240.8,1691.9z"/>
		<g>
			<g>
				<g class="st93">
					<g>
						<polygon class="st94" points="2535.6,1714.2 2535.4,1791.4 2339,1672.5 2339.2,1595.3 						"/>
					</g>
					<g>
						<path class="st95" d="M2514.7,1550.3l20.9,163.9l-196.4-118.9C2388.6,1567.9,2451,1552.9,2514.7,1550.3z"/>
					</g>
				</g>
			</g>
			<g>
				<path class="st96" d="M2257.5,1812.6c-20.1-23.2-30.1-48.6-30-74l-0.2,77.2c-0.1,25.4,9.9,50.8,30,74L2257.5,1812.6z"/>
				<g>
					<polygon class="st96" points="2511.2,1739.4 2511,1816.6 2257.3,1889.8 2257.5,1812.6 					"/>
				</g>
				<path class="st55" d="M2314.7,1618.9l196.4,118.9l-253.7,73.2c-53.2-61.5-35.7-138.2,52.4-189.4
					C2311.5,1620.7,2313.1,1619.7,2314.7,1618.9z"/>
				<g class="st93">
					<defs>
						<path id="SVGID_00000161627115442465192960000007140885807818984117_" class="st93" d="M2227.3,1814.2l0.2-77.2
							c-0.1,25.4,9.9,50.8,30,74l-0.2,77.2C2237.2,1864.9,2227.2,1839.5,2227.3,1814.2z"/>
					</defs>
					<clipPath id="SVGID_00000060014020210828900010000008029486402799624878_">
						<use xlink:href="#SVGID_00000161627115442465192960000007140885807818984117_"  style="overflow:visible;"/>
					</clipPath>
					<g style="clip-path:url(#SVGID_00000060014020210828900010000008029486402799624878_);enable-background:new    ;">
						
							<linearGradient id="SVGID_00000109730213832677141880000008401464216420216218_" gradientUnits="userSpaceOnUse" x1="2227.2539" y1="1812.566" x2="2257.4958" y2="1812.566">
							<stop  offset="0" style="stop-color:#57BDB2"/>
							<stop  offset="1" style="stop-color:#7CDAC9"/>
						</linearGradient>
						<path style="fill:url(#SVGID_00000109730213832677141880000008401464216420216218_);" d="M2257.5,1811
							c-20.1-23.2-30.1-48.6-30-74l-0.2,77.2c-0.1,25.4,9.9,50.8,30,74L2257.5,1811z"/>
					</g>
				</g>
				<g>
					<polygon class="st100" points="2511.2,1737.8 2511,1815 2257.3,1888.2 2257.5,1811 					"/>
				</g>
				
					<linearGradient id="SVGID_00000015321889351077806460000009017491756258784429_" gradientUnits="userSpaceOnUse" x1="2442.1147" y1="1695.7252" x2="2231.9885" y2="1774.0563">
					<stop  offset="0" style="stop-color:#63DBBF"/>
					<stop  offset="1" style="stop-color:#FFFFFF"/>
				</linearGradient>
				<path style="fill:url(#SVGID_00000015321889351077806460000009017491756258784429_);" d="M2258.3,1808.3
					c-27.6-31.9-36.1-67.9-25.7-102.2c-11.7,35.2-3.4,72.2,24.9,105l253.7-73.2l-2.8-1.7L2258.3,1808.3z"/>
			</g>
			<g>
				<g>
					<path class="st102" d="M2840.4,1765.5c0,0.7-0.1,1.4-0.1,2.1c0,0.6-0.1,1.2-0.1,1.9c-0.1,0.7-0.1,1.4-0.2,2.2
						c-0.1,0.6-0.1,1.2-0.2,1.8c-0.1,0.7-0.2,1.4-0.3,2.2c-0.1,0.6-0.2,1.2-0.3,1.8c-0.1,0.7-0.3,1.5-0.4,2.2
						c-0.1,0.6-0.2,1.2-0.3,1.8c-0.1,0.7-0.3,1.4-0.5,2.2c-0.1,0.6-0.3,1.2-0.4,1.8c-0.2,0.7-0.4,1.5-0.6,2.2
						c-0.2,0.6-0.3,1.2-0.5,1.7c-0.2,0.7-0.5,1.5-0.7,2.2c-0.2,0.6-0.3,1.1-0.5,1.7c-0.3,0.8-0.5,1.5-0.8,2.3
						c-0.2,0.5-0.4,1.1-0.6,1.6c-0.4,1.1-0.9,2.2-1.3,3.4c-0.1,0.2-0.2,0.4-0.2,0.6c-0.6,1.3-1.1,2.6-1.7,3.9
						c-0.2,0.4-0.4,0.8-0.6,1.2c-0.4,0.9-0.9,1.8-1.3,2.7c-0.3,0.5-0.5,1-0.8,1.5c-0.4,0.8-0.8,1.6-1.3,2.4
						c-0.3,0.5-0.5,0.9-0.8,1.4c-0.5,0.9-1,1.8-1.6,2.7c-0.3,0.5-0.6,1-1,1.6c-0.5,0.8-1.1,1.7-1.6,2.5c-0.4,0.5-0.7,1.1-1.1,1.6
						c-0.6,0.8-1.1,1.6-1.7,2.4c-0.4,0.5-0.8,1-1.1,1.6c-0.6,0.8-1.2,1.7-1.9,2.5c-0.4,0.5-0.7,0.9-1.1,1.4
						c-1.1,1.4-2.3,2.9-3.6,4.3c-0.2,0.2-0.4,0.5-0.6,0.7c-1,1.2-2.1,2.4-3.2,3.6c-0.4,0.4-0.8,0.9-1.2,1.3c-1,1.1-2,2.1-3.1,3.2
						c-0.4,0.4-0.7,0.7-1.1,1.1c-1.4,1.4-2.8,2.8-4.3,4.1c-0.5,0.5-1.1,1-1.7,1.5c-0.7,0.6-1.4,1.3-2.1,1.9c-0.6,0.5-1.2,1-1.8,1.5
						c-0.7,0.6-1.5,1.2-2.2,1.9c-0.6,0.5-1.3,1-1.9,1.6c-0.7,0.6-1.5,1.2-2.3,1.8c-0.7,0.5-1.4,1-2,1.6c-0.8,0.6-1.5,1.2-2.3,1.8
						c-0.7,0.5-1.4,1-2.1,1.5c-0.8,0.6-1.6,1.2-2.4,1.7c-0.7,0.5-1.5,1-2.2,1.5c-0.8,0.6-1.6,1.1-2.5,1.7c-0.8,0.5-1.5,1-2.3,1.5
						c-0.8,0.6-1.7,1.1-2.6,1.7c-0.8,0.5-1.6,1-2.4,1.5c-0.9,0.5-1.8,1.1-2.6,1.6c-1.4,0.8-2.8,1.7-4.2,2.5
						c-3.1,1.8-6.2,3.5-9.4,5.2c-0.8,0.4-1.7,0.9-2.5,1.3c-2.9,1.5-5.7,2.9-8.7,4.3c-0.4,0.2-0.8,0.4-1.2,0.6c-3.3,1.5-6.6,3-10,4.5
						c-0.9,0.4-1.7,0.7-2.6,1.1c-2.9,1.2-5.8,2.4-8.7,3.5c-0.6,0.2-1.3,0.5-1.9,0.7c-3.5,1.3-7,2.6-10.5,3.8
						c-0.8,0.3-1.7,0.6-2.6,0.9c-2.4,0.8-4.8,1.6-7.2,2.3c-2.3,0.7-4.6,1.4-6.9,2.1c-2,0.6-3.9,1.1-5.9,1.7
						c-2.3,0.6-4.7,1.3-7.1,1.9c-2,0.5-4,1-6,1.5c-2.4,0.6-4.8,1.1-7.2,1.7c-2,0.4-4,0.9-6,1.3c-2.5,0.5-4.9,1-7.4,1.5
						c-2.2,0.4-4.4,0.9-6.6,1.2c-1,0.2-2,0.3-3,0.5c-3.4,0.6-6.8,1.1-10.2,1.6c-0.6,0.1-1.1,0.2-1.7,0.3c-3.9,0.5-7.8,1-11.8,1.5
						c-1,0.1-2,0.2-3,0.3c-3.8,0.4-7.6,0.8-11.3,1.1c-0.1,0-0.3,0-0.4,0c-4.1,0.3-8.1,0.6-12.2,0.8c-0.7,0-1.4,0.1-2.1,0.1
						c-3.7,0.2-7.4,0.3-11.1,0.5c-2.8,0.1-5.5,0.1-8.3,0.2c-1.9,0-3.9,0.1-5.8,0.1c-2.9,0-5.9,0-8.8-0.1c-1.8,0-3.5,0-5.3-0.1
						c-2.7-0.1-5.4-0.2-8.1-0.3c-1.9-0.1-3.8-0.1-5.7-0.2c-2.9-0.2-5.8-0.4-8.7-0.6c-1.7-0.1-3.4-0.2-5.1-0.4c-3.5-0.3-7-0.6-10.4-1
						c-1.1-0.1-2.2-0.2-3.2-0.3c-4.5-0.5-9.1-1.1-13.6-1.7c-0.7-0.1-1.4-0.2-2.1-0.3c-3.9-0.6-7.8-1.2-11.7-1.8
						c-1.6-0.3-3.2-0.6-4.8-0.9c-2.9-0.5-5.9-1.1-8.8-1.7c-3.6-0.7-7.3-1.5-10.9-2.4c-0.7-0.2-1.4-0.3-2.2-0.5
						c-3.7-0.9-7.5-1.8-11.1-2.8c-0.5-0.1-1-0.3-1.5-0.4c-3.2-0.9-6.5-1.8-9.7-2.8c-0.9-0.3-1.8-0.5-2.7-0.8
						c-3.6-1.1-7.3-2.3-10.8-3.5c-0.7-0.2-1.4-0.5-2.1-0.7c-3-1-5.9-2.1-8.8-3.2c-1-0.4-2-0.7-3-1.1c-2.3-0.9-4.6-1.8-6.9-2.8
						c-1.6-0.6-3.2-1.3-4.7-2c-2.2-1-4.4-2-6.6-3c-1.4-0.7-2.9-1.3-4.3-2c-2.4-1.1-4.7-2.3-7.1-3.5c-1.2-0.6-2.4-1.2-3.5-1.8
						c-3.5-1.8-6.9-3.7-10.2-5.6c-22.4-12.9-40.3-27.5-53.7-43l-0.2,77.2c13.4,15.5,31.3,30.1,53.7,43c3.3,1.9,6.8,3.8,10.2,5.6
						c1.2,0.6,2.3,1.2,3.5,1.8c2.3,1.2,4.7,2.4,7.1,3.5c1.4,0.7,2.9,1.3,4.3,2c2.2,1,4.4,2,6.6,2.9c1.6,0.7,3.1,1.3,4.7,2
						c1.5,0.6,3,1.3,4.5,1.9c0.8,0.3,1.6,0.6,2.4,0.9c1,0.4,2,0.8,3,1.1c2.9,1.1,5.8,2.2,8.8,3.2c0.7,0.2,1.4,0.5,2.1,0.7
						c3.6,1.2,7.2,2.4,10.8,3.5c0.9,0.3,1.8,0.5,2.7,0.8c1.6,0.5,3.1,0.9,4.7,1.4c1.6,0.5,3.3,0.9,5,1.4c0.5,0.1,1,0.3,1.5,0.4
						c3.7,1,7.4,1.9,11.1,2.8c0.7,0.2,1.4,0.3,2.2,0.5c3.3,0.8,6.6,1.5,9.9,2.2c0.3,0.1,0.6,0.1,1,0.2c2.9,0.6,5.8,1.1,8.8,1.7
						c1.6,0.3,3.2,0.6,4.8,0.9c3.9,0.7,7.8,1.3,11.7,1.8c0.7,0.1,1.3,0.2,2,0.3c0,0,0.1,0,0.1,0c4.5,0.6,9,1.2,13.6,1.7
						c1.1,0.1,2.2,0.2,3.2,0.3c3.5,0.4,6.9,0.7,10.4,1c0.1,0,0.2,0,0.3,0c1.6,0.1,3.2,0.2,4.8,0.3c2.9,0.2,5.8,0.4,8.7,0.6
						c1.9,0.1,3.8,0.2,5.7,0.2c2.7,0.1,5.4,0.2,8.1,0.3c0.2,0,0.4,0,0.7,0c1.5,0,3.1,0,4.6,0c2.9,0,5.9,0.1,8.8,0.1
						c1.9,0,3.9-0.1,5.8-0.1c2.8,0,5.5-0.1,8.3-0.2c0.5,0,1,0,1.5,0c3.2-0.1,6.4-0.3,9.6-0.4c0.7,0,1.4-0.1,2.1-0.1
						c4.1-0.2,8.1-0.5,12.2-0.8c0.1,0,0.3,0,0.4,0c2.4-0.2,4.8-0.4,7.2-0.7c1.4-0.1,2.7-0.3,4.1-0.4c1-0.1,2-0.2,3-0.3
						c3.9-0.5,7.9-0.9,11.8-1.5c0.6-0.1,1.1-0.2,1.7-0.3c3.4-0.5,6.8-1,10.2-1.6c1-0.2,2-0.3,3-0.5c0.8-0.1,1.6-0.3,2.4-0.4
						c1.4-0.3,2.8-0.6,4.2-0.8c2.5-0.5,5-0.9,7.4-1.5c2-0.4,4-0.9,6-1.3c2.4-0.5,4.8-1.1,7.2-1.7c2-0.5,4-1,6-1.5
						c2.4-0.6,4.7-1.2,7.1-1.9c2-0.5,3.9-1.1,5.9-1.7c2.3-0.7,4.6-1.4,6.9-2.1c1-0.3,2-0.6,3-0.9c1.4-0.5,2.8-0.9,4.2-1.4
						c0.9-0.3,1.7-0.6,2.6-0.9c3.5-1.2,7-2.5,10.5-3.8c0.6-0.2,1.3-0.5,1.9-0.7c2.9-1.1,5.8-2.3,8.7-3.5c0.9-0.4,1.7-0.7,2.6-1.1
						c3.4-1.5,6.7-2.9,10-4.5c0.4-0.2,0.8-0.4,1.2-0.6c2.9-1.4,5.8-2.8,8.7-4.3c0.8-0.4,1.7-0.9,2.5-1.3c3.2-1.7,6.3-3.4,9.4-5.2
						c1.2-0.7,2.3-1.4,3.5-2c0.3-0.2,0.5-0.3,0.8-0.5c0.9-0.5,1.8-1.1,2.6-1.6c0.8-0.5,1.6-1,2.4-1.5c0.9-0.6,1.7-1.1,2.6-1.7
						c0.8-0.5,1.5-1,2.3-1.5c0.8-0.6,1.6-1.1,2.5-1.7c0.7-0.5,1.5-1,2.2-1.5c0.8-0.6,1.6-1.1,2.4-1.7c0.7-0.5,1.4-1,2.1-1.5
						c0.8-0.6,1.5-1.2,2.3-1.8c0.7-0.5,1.4-1,2-1.6c0.8-0.6,1.5-1.2,2.3-1.8c0.6-0.5,1.3-1,1.9-1.5c0.7-0.6,1.5-1.2,2.2-1.9
						c0.6-0.5,1.2-1,1.8-1.6c0.7-0.6,1.4-1.3,2.1-1.9c0.5-0.5,1-0.9,1.5-1.4c0.1-0.1,0.1-0.1,0.2-0.2c1.5-1.4,2.9-2.8,4.3-4.1
						c0.4-0.4,0.7-0.7,1.1-1.1c1.1-1.1,2.1-2.1,3.1-3.2c0.4-0.4,0.8-0.9,1.2-1.3c1.1-1.2,2.2-2.4,3.2-3.6c0.2-0.2,0.4-0.5,0.6-0.7
						c1.2-1.4,2.4-2.9,3.6-4.3c0.1-0.1,0.2-0.2,0.3-0.4c0.3-0.4,0.5-0.7,0.8-1.1c0.6-0.8,1.3-1.7,1.9-2.5c0.4-0.5,0.8-1.1,1.1-1.6
						c0.6-0.8,1.1-1.6,1.7-2.4c0.4-0.5,0.7-1.1,1.1-1.6c0.5-0.8,1.1-1.6,1.6-2.5c0.3-0.5,0.7-1,1-1.6c0.5-0.9,1.1-1.8,1.6-2.7
						c0.2-0.4,0.4-0.7,0.6-1.1c0.1-0.1,0.1-0.2,0.2-0.3c0.4-0.8,0.9-1.6,1.3-2.4c0.3-0.5,0.5-1,0.8-1.5c0.5-0.9,0.9-1.8,1.3-2.7
						c0.2-0.4,0.4-0.8,0.6-1.2c0.6-1.3,1.2-2.6,1.7-3.9c0.1-0.2,0.2-0.4,0.2-0.6c0.5-1.1,0.9-2.2,1.3-3.4c0,0,0-0.1,0.1-0.1
						c0.2-0.5,0.3-1,0.5-1.5c0.3-0.8,0.6-1.5,0.8-2.3c0.2-0.6,0.4-1.1,0.5-1.7c0.2-0.7,0.5-1.5,0.7-2.2c0.2-0.6,0.3-1.2,0.5-1.7
						c0.2-0.7,0.4-1.5,0.6-2.2c0.1-0.6,0.3-1.2,0.4-1.8c0.2-0.7,0.3-1.4,0.5-2.2c0-0.1,0.1-0.3,0.1-0.4c0.1-0.5,0.2-0.9,0.3-1.4
						c0.1-0.7,0.3-1.5,0.4-2.2c0.1-0.6,0.2-1.2,0.3-1.8c0.1-0.7,0.2-1.4,0.3-2.2c0.1-0.6,0.1-1.2,0.2-1.8c0.1-0.7,0.1-1.4,0.2-2.2
						c0-0.6,0.1-1.2,0.1-1.9c0-0.7,0.1-1.4,0.1-2.1c0-0.2,0-0.5,0-0.7c0-0.8,0-1.7,0-2.5l0.2-77.2
						C2840.5,1763.4,2840.5,1764.5,2840.4,1765.5z"/>
					<polygon class="st102" points="2556.8,1756.8 2535.9,1592.9 2535.6,1670.1 2556.6,1834 					"/>
					<g>
						<path class="st103" d="M2840.4,1760.8c0,0.7-0.1,1.4-0.1,2.1c0,0.6-0.1,1.2-0.1,1.9c-0.1,0.7-0.1,1.4-0.2,2.2
							c-0.1,0.6-0.1,1.2-0.2,1.8c-0.1,0.7-0.2,1.4-0.3,2.2c-0.1,0.6-0.2,1.2-0.3,1.8c-0.1,0.7-0.3,1.5-0.4,2.2
							c-0.1,0.6-0.2,1.2-0.3,1.8c-0.1,0.7-0.3,1.4-0.5,2.2c-0.1,0.6-0.3,1.2-0.4,1.8c-0.2,0.7-0.4,1.5-0.6,2.2
							c-0.2,0.6-0.3,1.2-0.5,1.7c-0.2,0.7-0.5,1.5-0.7,2.2c-0.2,0.6-0.3,1.1-0.5,1.7c-0.3,0.8-0.5,1.5-0.8,2.3
							c-0.2,0.5-0.4,1.1-0.6,1.6c-0.4,1.1-0.9,2.2-1.3,3.4c-0.1,0.2-0.2,0.4-0.2,0.6c-0.6,1.3-1.1,2.6-1.7,3.9
							c-0.2,0.4-0.4,0.8-0.6,1.2c-0.4,0.9-0.9,1.8-1.3,2.7c-0.3,0.5-0.5,1-0.8,1.5c-0.4,0.8-0.8,1.6-1.3,2.4
							c-0.3,0.5-0.5,0.9-0.8,1.4c-0.5,0.9-1,1.8-1.6,2.7c-0.3,0.5-0.6,1-1,1.6c-0.5,0.8-1.1,1.7-1.6,2.5c-0.4,0.5-0.7,1.1-1.1,1.6
							c-0.6,0.8-1.1,1.6-1.7,2.4c-0.4,0.5-0.8,1-1.1,1.6c-0.6,0.8-1.2,1.7-1.9,2.5c-0.4,0.5-0.7,0.9-1.1,1.4
							c-1.1,1.5-2.3,2.9-3.6,4.3c-0.2,0.2-0.4,0.5-0.6,0.7c-1,1.2-2.1,2.4-3.2,3.6c-0.4,0.4-0.8,0.9-1.2,1.3c-1,1.1-2,2.1-3.1,3.2
							c-0.4,0.4-0.7,0.7-1.1,1.1c-1.4,1.4-2.8,2.8-4.3,4.1c-0.5,0.5-1.1,1-1.7,1.5c-0.7,0.6-1.4,1.3-2.1,1.9c-0.6,0.5-1.2,1-1.8,1.5
							c-0.7,0.6-1.5,1.2-2.2,1.9c-0.6,0.5-1.3,1-1.9,1.6c-0.7,0.6-1.5,1.2-2.3,1.8c-0.7,0.5-1.4,1-2,1.6c-0.8,0.6-1.5,1.2-2.3,1.8
							c-0.7,0.5-1.4,1-2.1,1.5c-0.8,0.6-1.6,1.2-2.4,1.7c-0.7,0.5-1.5,1-2.2,1.5c-0.8,0.6-1.6,1.1-2.5,1.7c-0.8,0.5-1.5,1-2.3,1.5
							c-0.8,0.6-1.7,1.1-2.6,1.7c-0.8,0.5-1.6,1-2.4,1.5c-0.9,0.5-1.8,1.1-2.6,1.6c-1.4,0.8-2.8,1.7-4.2,2.5
							c-3.1,1.8-6.2,3.5-9.4,5.2c-0.8,0.4-1.7,0.9-2.5,1.3c-2.9,1.5-5.7,2.9-8.7,4.3c-0.4,0.2-0.8,0.4-1.2,0.6
							c-3.3,1.5-6.6,3-10,4.5c-0.9,0.4-1.7,0.7-2.6,1.1c-2.9,1.2-5.8,2.4-8.7,3.5c-0.6,0.2-1.3,0.5-1.9,0.7c-3.5,1.3-7,2.6-10.5,3.8
							c-0.8,0.3-1.7,0.6-2.6,0.9c-2.4,0.8-4.8,1.6-7.2,2.3c-2.3,0.7-4.6,1.4-6.9,2.1c-2,0.6-3.9,1.1-5.9,1.7
							c-2.3,0.6-4.7,1.3-7.1,1.9c-2,0.5-4,1-6,1.5c-2.4,0.6-4.8,1.1-7.2,1.7c-2,0.4-4,0.9-6,1.3c-2.5,0.5-4.9,1-7.4,1.5
							c-2.2,0.4-4.4,0.9-6.6,1.2c-1,0.2-2,0.3-3,0.5c-3.4,0.6-6.8,1.1-10.2,1.6c-0.6,0.1-1.1,0.2-1.7,0.3c-3.9,0.5-7.8,1-11.8,1.5
							c-1,0.1-2,0.2-3,0.3c-3.8,0.4-7.6,0.8-11.3,1.1c-0.1,0-0.3,0-0.4,0c-4.1,0.3-8.1,0.6-12.2,0.8c-0.7,0-1.4,0.1-2.1,0.1
							c-3.7,0.2-7.4,0.3-11.1,0.5c-2.8,0.1-5.5,0.1-8.3,0.2c-1.9,0-3.9,0.1-5.8,0.1c-2.9,0-5.9,0-8.8-0.1c-1.8,0-3.5,0-5.3-0.1
							c-2.7-0.1-5.4-0.2-8.1-0.3c-1.9-0.1-3.8-0.1-5.7-0.2c-2.9-0.2-5.8-0.4-8.7-0.6c-1.7-0.1-3.4-0.2-5.1-0.4
							c-3.5-0.3-7-0.6-10.4-1c-1.1-0.1-2.2-0.2-3.2-0.3c-4.5-0.5-9.1-1.1-13.6-1.7c-0.7-0.1-1.4-0.2-2.1-0.3
							c-3.9-0.6-7.8-1.2-11.7-1.8c-1.6-0.3-3.2-0.6-4.8-0.9c-2.9-0.5-5.9-1.1-8.8-1.7c-3.6-0.7-7.3-1.5-10.9-2.4
							c-0.7-0.2-1.4-0.3-2.2-0.5c-3.7-0.9-7.5-1.8-11.1-2.8c-0.5-0.1-1-0.3-1.5-0.4c-3.2-0.9-6.5-1.8-9.7-2.8
							c-0.9-0.3-1.8-0.5-2.7-0.8c-3.6-1.1-7.3-2.3-10.8-3.5c-0.7-0.2-1.4-0.5-2.1-0.7c-3-1-5.9-2.1-8.8-3.2c-1-0.4-2-0.7-3-1.1
							c-2.3-0.9-4.6-1.8-6.9-2.8c-1.6-0.6-3.2-1.3-4.7-2c-2.2-1-4.4-2-6.6-3c-1.4-0.7-2.9-1.3-4.3-2c-2.4-1.1-4.7-2.3-7.1-3.5
							c-1.2-0.6-2.4-1.2-3.5-1.8c-3.5-1.8-6.9-3.7-10.2-5.6c-22.4-12.9-40.3-27.5-53.7-43l-0.2,77.2c13.4,15.5,31.3,30.1,53.7,43
							c3.3,1.9,6.8,3.8,10.2,5.6c1.2,0.6,2.3,1.2,3.5,1.8c2.3,1.2,4.7,2.4,7.1,3.5c1.4,0.7,2.9,1.3,4.3,2c2.2,1,4.4,2,6.6,2.9
							c1.6,0.7,3.1,1.3,4.7,2c1.5,0.6,3,1.3,4.5,1.9c0.8,0.3,1.6,0.6,2.4,0.9c1,0.4,2,0.8,3,1.1c2.9,1.1,5.8,2.2,8.8,3.2
							c0.7,0.2,1.4,0.5,2.1,0.7c3.6,1.2,7.2,2.4,10.8,3.5c0.9,0.3,1.8,0.5,2.7,0.8c1.6,0.5,3.1,0.9,4.7,1.4c1.6,0.5,3.3,0.9,5,1.4
							c0.5,0.1,1,0.3,1.5,0.4c3.7,1,7.4,1.9,11.1,2.8c0.7,0.2,1.4,0.3,2.2,0.5c3.3,0.8,6.6,1.5,9.9,2.2c0.3,0.1,0.6,0.1,1,0.2
							c2.9,0.6,5.8,1.1,8.8,1.7c1.6,0.3,3.2,0.6,4.8,0.9c3.9,0.7,7.8,1.3,11.7,1.8c0.7,0.1,1.3,0.2,2,0.3c0,0,0.1,0,0.1,0
							c4.5,0.6,9,1.2,13.6,1.7c1.1,0.1,2.2,0.2,3.2,0.3c3.5,0.4,6.9,0.7,10.4,1c0.1,0,0.2,0,0.3,0c1.6,0.1,3.2,0.2,4.8,0.3
							c2.9,0.2,5.8,0.4,8.7,0.6c1.9,0.1,3.8,0.2,5.7,0.2c2.7,0.1,5.4,0.2,8.1,0.3c0.2,0,0.4,0,0.7,0c1.5,0,3.1,0,4.6,0
							c2.9,0,5.9,0.1,8.8,0.1c1.9,0,3.9-0.1,5.8-0.1c2.8,0,5.5-0.1,8.3-0.2c0.5,0,1,0,1.5,0c3.2-0.1,6.4-0.3,9.6-0.4
							c0.7,0,1.4-0.1,2.1-0.1c4.1-0.2,8.1-0.5,12.2-0.8c0.1,0,0.3,0,0.4,0c2.4-0.2,4.8-0.4,7.2-0.7c1.4-0.1,2.7-0.3,4.1-0.4
							c1-0.1,2-0.2,3-0.3c3.9-0.5,7.9-0.9,11.8-1.5c0.6-0.1,1.1-0.2,1.7-0.3c3.4-0.5,6.8-1,10.2-1.6c1-0.2,2-0.3,3-0.5
							c0.8-0.1,1.6-0.3,2.4-0.4c1.4-0.3,2.8-0.6,4.2-0.8c2.5-0.5,5-0.9,7.4-1.5c2-0.4,4-0.9,6-1.3c2.4-0.5,4.8-1.1,7.2-1.7
							c2-0.5,4-1,6-1.5c2.4-0.6,4.7-1.2,7.1-1.9c2-0.5,3.9-1.1,5.9-1.7c2.3-0.7,4.6-1.4,6.9-2.1c1-0.3,2-0.6,3-0.9
							c1.4-0.5,2.8-0.9,4.2-1.4c0.9-0.3,1.7-0.6,2.6-0.9c3.5-1.2,7-2.5,10.5-3.8c0.6-0.2,1.3-0.5,1.9-0.7c2.9-1.1,5.8-2.3,8.7-3.5
							c0.9-0.4,1.7-0.7,2.6-1.1c3.4-1.5,6.7-2.9,10-4.5c0.4-0.2,0.8-0.4,1.2-0.6c2.9-1.4,5.8-2.8,8.7-4.3c0.8-0.4,1.7-0.9,2.5-1.3
							c3.2-1.7,6.3-3.4,9.4-5.2c1.2-0.7,2.3-1.4,3.5-2c0.3-0.2,0.5-0.3,0.8-0.5c0.9-0.5,1.8-1.1,2.6-1.6c0.8-0.5,1.6-1,2.4-1.5
							c0.9-0.6,1.7-1.1,2.6-1.7c0.8-0.5,1.5-1,2.3-1.5c0.8-0.6,1.6-1.1,2.5-1.7c0.7-0.5,1.5-1,2.2-1.5c0.8-0.6,1.6-1.1,2.4-1.7
							c0.7-0.5,1.4-1,2.1-1.5c0.8-0.6,1.5-1.2,2.3-1.8c0.7-0.5,1.4-1,2-1.6c0.8-0.6,1.5-1.2,2.3-1.8c0.6-0.5,1.3-1,1.9-1.5
							c0.7-0.6,1.5-1.2,2.2-1.9c0.6-0.5,1.2-1,1.8-1.6c0.7-0.6,1.4-1.3,2.1-1.9c0.5-0.5,1-0.9,1.5-1.4c0.1-0.1,0.1-0.1,0.2-0.2
							c1.5-1.4,2.9-2.8,4.3-4.1c0.4-0.4,0.7-0.7,1.1-1.1c1.1-1.1,2.1-2.1,3.1-3.2c0.4-0.4,0.8-0.9,1.2-1.3c1.1-1.2,2.2-2.4,3.2-3.6
							c0.2-0.2,0.4-0.5,0.6-0.7c1.2-1.4,2.4-2.9,3.6-4.3c0.1-0.1,0.2-0.2,0.3-0.4c0.3-0.4,0.5-0.7,0.8-1.1c0.6-0.8,1.3-1.7,1.9-2.5
							c0.4-0.5,0.8-1.1,1.1-1.6c0.6-0.8,1.1-1.6,1.7-2.4c0.4-0.5,0.7-1.1,1.1-1.6c0.5-0.8,1.1-1.6,1.6-2.5c0.3-0.5,0.7-1,1-1.6
							c0.5-0.9,1.1-1.8,1.6-2.7c0.2-0.4,0.4-0.7,0.6-1.1c0.1-0.1,0.1-0.2,0.2-0.3c0.4-0.8,0.9-1.6,1.3-2.4c0.3-0.5,0.5-1,0.8-1.5
							c0.5-0.9,0.9-1.8,1.3-2.7c0.2-0.4,0.4-0.8,0.6-1.2c0.6-1.3,1.2-2.6,1.7-3.9c0.1-0.2,0.2-0.4,0.2-0.6c0.5-1.1,0.9-2.2,1.3-3.4
							c0,0,0-0.1,0.1-0.1c0.2-0.5,0.3-1,0.5-1.5c0.3-0.8,0.6-1.5,0.8-2.3c0.2-0.6,0.4-1.1,0.5-1.7c0.2-0.7,0.5-1.5,0.7-2.2
							c0.2-0.6,0.3-1.2,0.5-1.7c0.2-0.7,0.4-1.5,0.6-2.2c0.1-0.6,0.3-1.2,0.4-1.8c0.2-0.7,0.3-1.4,0.5-2.2c0-0.1,0.1-0.3,0.1-0.4
							c0.1-0.5,0.2-0.9,0.3-1.4c0.1-0.7,0.3-1.5,0.4-2.2c0.1-0.6,0.2-1.2,0.3-1.8c0.1-0.7,0.2-1.4,0.3-2.2c0.1-0.6,0.1-1.2,0.2-1.8
							c0.1-0.7,0.1-1.4,0.2-2.2c0-0.6,0.1-1.2,0.1-1.9c0-0.7,0.1-1.4,0.1-2.1c0-0.2,0-0.5,0-0.7c0-0.8,0-1.7,0-2.5l0.2-77.2
							C2840.5,1758.7,2840.5,1759.7,2840.4,1760.8z"/>
					</g>
				</g>
			</g>
			<g>
				<g>
					<g>
						<path class="st104" d="M2756.8,1640.6c111.2,64.2,111.7,168.2,1.3,232.4c-110.4,64.2-290.1,64.2-401.2,0
							c-22.4-12.9-40.3-27.5-53.7-43l253.7-73.2l-20.9-163.9C2615,1589.7,2696.1,1605.6,2756.8,1640.6z"/>
					</g>
				</g>
			</g>
			<path class="st103" d="M2798.4,1671.1c63.6,62.9,49.2,144.9-43.6,198.8c-110.4,64.2-290.1,64.2-401.2,0
				c-16.1-9.3-29.9-19.5-41.4-30.2c12.1,11.9,26.9,23.2,44.6,33.4c111.2,64.2,290.8,64.2,401.2,0
				C2852.4,1818.2,2865.7,1734.4,2798.4,1671.1z"/>
		</g>
	</g>
	<g>
		
			<linearGradient id="SVGID_00000146491540358156748150000002598798922574822077_" gradientUnits="userSpaceOnUse" x1="1173.7212" y1="1403.6292" x2="1316.4447" y2="1403.6292">
			<stop  offset="0" style="stop-color:#5F6271"/>
			<stop  offset="1" style="stop-color:#2B3149"/>
		</linearGradient>
		<polygon style="fill:url(#SVGID_00000146491540358156748150000002598798922574822077_);" points="1173.7,1374.5 1173.7,1515.5 
			1316.4,1441.8 1316.4,1291.7 		"/>
		
			<linearGradient id="SVGID_00000135689351803836603550000008898071191405891757_" gradientUnits="userSpaceOnUse" x1="1125.9022" y1="1322.923" x2="1310.0471" y2="1322.923">
			<stop  offset="0" style="stop-color:#F8F8F7"/>
			<stop  offset="1" style="stop-color:#FCFCFC"/>
		</linearGradient>
		<polygon style="fill:url(#SVGID_00000135689351803836603550000008898071191405891757_);" points="1264.4,1271.3 1125.9,1349.3 
			1173.7,1374.5 1310,1297 		"/>
		
			<linearGradient id="SVGID_00000098188204632797907710000007356488701150136996_" gradientUnits="userSpaceOnUse" x1="1195.6897" y1="1297.0409" x2="1257.519" y2="1297.0409">
			<stop  offset="0" style="stop-color:#ECECEB"/>
			<stop  offset="1" style="stop-color:#B0B0AB"/>
		</linearGradient>
		<path style="fill:url(#SVGID_00000098188204632797907710000007356488701150136996_);" d="M1247.9,1262.1l-43.2,23.5
			c0,0-9.6,3.4-9,15.1c0.7,11.7,0,32.7,0,32.7l9,1.3v-31.9c0,0,0.5-8.8,8.9-13c8.4-4.2,43.9-23.5,43.9-23.5l-0.5-6.9L1247.9,1262.1z
			"/>
		
			<linearGradient id="SVGID_00000031900783269532802640000016964147544901136043_" gradientUnits="userSpaceOnUse" x1="1149.8116" y1="1332.8193" x2="1149.8116" y2="1535.0054">
			<stop  offset="0" style="stop-color:#C5C5C1"/>
			<stop  offset="1" style="stop-color:#D9D9D6"/>
		</linearGradient>
		<polygon style="fill:url(#SVGID_00000031900783269532802640000016964147544901136043_);" points="1125.9,1349.3 1173.7,1374.5 
			1173.7,1515.5 1125.9,1489.6 		"/>
		<g class="st4">
			
				<ellipse transform="matrix(0.3559 -0.9345 0.9345 0.3559 -780.213 2564.293)" class="st5" cx="1470.2" cy="1848.2" rx="93" ry="274.3"/>
			
				<ellipse transform="matrix(0.3559 -0.9345 0.9345 0.3559 -780.213 2564.293)" class="st6" cx="1470.2" cy="1848.2" rx="91.1" ry="268.6"/>
			
				<ellipse transform="matrix(0.3559 -0.9345 0.9345 0.3559 -780.213 2564.293)" class="st7" cx="1470.2" cy="1848.2" rx="89.2" ry="263"/>
			
				<ellipse transform="matrix(0.3559 -0.9345 0.9345 0.3559 -780.213 2564.293)" class="st8" cx="1470.2" cy="1848.2" rx="87.3" ry="257.4"/>
			
				<ellipse transform="matrix(0.3559 -0.9345 0.9345 0.3559 -780.2131 2564.293)" class="st9" cx="1470.2" cy="1848.2" rx="85.4" ry="251.7"/>
			
				<ellipse transform="matrix(0.3559 -0.9345 0.9345 0.3559 -780.2131 2564.293)" class="st10" cx="1470.2" cy="1848.2" rx="83.4" ry="246.1"/>
			
				<ellipse transform="matrix(0.3559 -0.9345 0.9345 0.3559 -780.2131 2564.2932)" class="st11" cx="1470.2" cy="1848.2" rx="81.5" ry="240.5"/>
			
				<ellipse transform="matrix(0.3559 -0.9345 0.9345 0.3559 -780.2131 2564.2932)" class="st12" cx="1470.2" cy="1848.2" rx="79.6" ry="234.8"/>
			
				<ellipse transform="matrix(0.3559 -0.9345 0.9345 0.3559 -780.2131 2564.2932)" class="st13" cx="1470.2" cy="1848.2" rx="77.7" ry="229.2"/>
			
				<ellipse transform="matrix(0.3559 -0.9345 0.9345 0.3559 -780.2131 2564.2932)" class="st14" cx="1470.2" cy="1848.2" rx="75.8" ry="223.6"/>
			
				<ellipse transform="matrix(0.3559 -0.9345 0.9345 0.3559 -780.2132 2564.2932)" class="st15" cx="1470.2" cy="1848.2" rx="73.9" ry="218"/>
			
				<ellipse transform="matrix(0.3559 -0.9345 0.9345 0.3559 -780.2132 2564.2932)" class="st16" cx="1470.2" cy="1848.2" rx="72" ry="212.3"/>
			
				<ellipse transform="matrix(0.3559 -0.9345 0.9345 0.3559 -780.2133 2564.2932)" class="st17" cx="1470.2" cy="1848.2" rx="70.1" ry="206.7"/>
			
				<ellipse transform="matrix(0.3559 -0.9345 0.9345 0.3559 -780.2133 2564.2935)" class="st18" cx="1470.2" cy="1848.2" rx="68.2" ry="201.1"/>
			
				<ellipse transform="matrix(0.3559 -0.9345 0.9345 0.3559 -780.2133 2564.2935)" class="st19" cx="1470.2" cy="1848.2" rx="66.3" ry="195.4"/>
			
				<ellipse transform="matrix(0.3559 -0.9345 0.9345 0.3559 -780.2133 2564.2935)" class="st20" cx="1470.2" cy="1848.2" rx="64.4" ry="189.8"/>
			
				<ellipse transform="matrix(0.3559 -0.9345 0.9345 0.3559 -780.2133 2564.2935)" class="st21" cx="1470.2" cy="1848.2" rx="62.5" ry="184.2"/>
			
				<ellipse transform="matrix(0.3559 -0.9345 0.9345 0.3559 -780.2133 2564.2935)" class="st22" cx="1470.2" cy="1848.2" rx="60.5" ry="178.6"/>
			
				<ellipse transform="matrix(0.3559 -0.9345 0.9345 0.3559 -780.2134 2564.2935)" class="st23" cx="1470.2" cy="1848.2" rx="58.6" ry="172.9"/>
			
				<ellipse transform="matrix(0.3559 -0.9345 0.9345 0.3559 -780.2134 2564.2937)" class="st24" cx="1470.2" cy="1848.2" rx="56.7" ry="167.3"/>
			
				<ellipse transform="matrix(0.3559 -0.9345 0.9345 0.3559 -780.2134 2564.2937)" class="st25" cx="1470.2" cy="1848.2" rx="54.8" ry="161.7"/>
			
				<ellipse transform="matrix(0.3559 -0.9345 0.9345 0.3559 -780.2134 2564.2937)" class="st26" cx="1470.2" cy="1848.2" rx="52.9" ry="156"/>
			
				<ellipse transform="matrix(0.3559 -0.9345 0.9345 0.3559 -780.2134 2564.2937)" class="st27" cx="1470.2" cy="1848.2" rx="51" ry="150.4"/>
			
				<ellipse transform="matrix(0.3559 -0.9345 0.9345 0.3559 -780.2134 2564.2937)" class="st28" cx="1470.2" cy="1848.2" rx="49.1" ry="144.8"/>
			
				<ellipse transform="matrix(0.3559 -0.9345 0.9345 0.3559 -780.2135 2564.2937)" class="st29" cx="1470.2" cy="1848.2" rx="47.2" ry="139.1"/>
			
				<ellipse transform="matrix(0.3559 -0.9345 0.9345 0.3559 -780.2135 2564.2939)" class="st30" cx="1470.2" cy="1848.2" rx="45.3" ry="133.5"/>
			
				<ellipse transform="matrix(0.3559 -0.9345 0.9345 0.3559 -780.2135 2564.2939)" class="st31" cx="1470.2" cy="1848.2" rx="43.4" ry="127.9"/>
			
				<ellipse transform="matrix(0.3559 -0.9345 0.9345 0.3559 -780.2136 2564.2939)" class="st32" cx="1470.2" cy="1848.2" rx="41.5" ry="122.3"/>
		</g>
		<g>
			
				<linearGradient id="SVGID_00000143603362958183626830000016937512668189971611_" gradientUnits="userSpaceOnUse" x1="1408.2231" y1="1103.5531" x2="1609.8199" y2="1103.5531">
				<stop  offset="0.2232" style="stop-color:#FFD097"/>
				<stop  offset="1" style="stop-color:#EAA56C"/>
			</linearGradient>
			<path style="fill:url(#SVGID_00000143603362958183626830000016937512668189971611_);" d="M1466.3,1131.6c0,0-5,26.5,5.6,24.4
				c10.6-2.2,88-97.9,90.7-113c2.7-15.1,5.4-45.4,5.4-45.4s-0.9-2,10.1,14.9c11,16.9,21.8-31.7,27.4-24.7c5.7,7,9.3,59.8-13.6,79.5
				s-93,149.7-131.7,152.8c-38.7,3.1-52.1-75.1-52.1-75.1L1466.3,1131.6z"/>
			
				<linearGradient id="SVGID_00000060017200247693919970000011106961474165061047_" gradientUnits="userSpaceOnUse" x1="1250.4884" y1="1754.8096" x2="1300.879" y2="1754.8096">
				<stop  offset="0.2232" style="stop-color:#FFD097"/>
				<stop  offset="1" style="stop-color:#EAA56C"/>
			</linearGradient>
			<path style="fill:url(#SVGID_00000060017200247693919970000011106961474165061047_);" d="M1250.8,1743.6c0,0-1.6,21,2.9,28.8
				c4.5,7.8,42.5,4.2,46.1-5.7s-2.5-33.7-2.5-33.7L1250.8,1743.6z"/>
			
				<linearGradient id="SVGID_00000046315657412948709260000004621294787780370332_" gradientUnits="userSpaceOnUse" x1="1234.9976" y1="1766.6836" x2="1378.9521" y2="1766.6836">
				<stop  offset="0" style="stop-color:#5F6271"/>
				<stop  offset="1" style="stop-color:#2B3149"/>
			</linearGradient>
			<path style="fill:url(#SVGID_00000046315657412948709260000004621294787780370332_);" d="M1243.4,1759.2c0,0,15.7,16.6,43.1,10.8
				c27.3-5.8,9.1-24,29.8-30.6c20.7-6.6,36.4-15.7,44.7-9.1c8.3,6.6,27.3,10.6,12.4,23.5c-14.9,12.9-67.9,41.1-87.8,49.4
				c-19.9,8.3-35.6-6.6-45.6-13.3C1230.1,1783.2,1236.8,1760,1243.4,1759.2z"/>
			
				<linearGradient id="SVGID_00000034776406451023572800000010009203350019245750_" gradientUnits="userSpaceOnUse" x1="1369.5406" y1="1800.283" x2="1422.0162" y2="1800.283">
				<stop  offset="0.2232" style="stop-color:#FFD097"/>
				<stop  offset="1" style="stop-color:#EAA56C"/>
			</linearGradient>
			<path style="fill:url(#SVGID_00000034776406451023572800000010009203350019245750_);" d="M1373.2,1780.7c0,0-8.2,30.9,0,35.8
				c8.2,4.9,45.2,5.7,47.7-5.3c2.5-11.1,0-30.4,0-30.4H1373.2z"/>
			
				<linearGradient id="SVGID_00000141426307793587535170000010610180221433182388_" gradientUnits="userSpaceOnUse" x1="1241.9932" y1="1502.3485" x2="1359.7291" y2="1502.3485">
				<stop  offset="0" style="stop-color:#5F6271"/>
				<stop  offset="1" style="stop-color:#2B3149"/>
			</linearGradient>
			<path style="fill:url(#SVGID_00000141426307793587535170000010610180221433182388_);" d="M1243.3,1249.8c0,0-5.7,49,6.3,89.5
				c12,40.5,10.8,191.5,10.8,191.5s-8.5,47-10.8,101.7c-2.3,54.7,0,105.6,0,105.6s4.6,15.9,27.2,16.7c22.6,0.7,29.1-8.6,29.1-8.6
				s8.5-151.2,22-212.2c13.5-61,31.8-264.8,31.8-264.8L1243.3,1249.8z"/>
			
				<linearGradient id="SVGID_00000096036480852037668380000006603160187119734406_" gradientUnits="userSpaceOnUse" x1="1300.8611" y1="1523.1683" x2="1442.2834" y2="1523.1683">
				<stop  offset="0" style="stop-color:#5F6271"/>
				<stop  offset="1" style="stop-color:#2B3149"/>
			</linearGradient>
			<path style="fill:url(#SVGID_00000096036480852037668380000006603160187119734406_);" d="M1300.9,1288.5c0,0,2.6,42.1,26.9,79.8
				s31.9,38.4,31.9,38.4l3,132.8c0,0-4.4,68.9-3,136.7c1.4,67.8,9.8,111,9.8,111s-2.2,8.7,26.2,9.3s30.6-15.5,30.6-15.5
				s1.9-178,11.6-234.2c9.7-56.2,0-297,0-297L1300.9,1288.5z"/>
			
				<linearGradient id="SVGID_00000029736196430738640430000000209803624791112598_" gradientUnits="userSpaceOnUse" x1="1308.2524" y1="886.9433" x2="1417.1147" y2="886.9433">
				<stop  offset="0.2232" style="stop-color:#FFD097"/>
				<stop  offset="1" style="stop-color:#EAA56C"/>
			</linearGradient>
			<path style="fill:url(#SVGID_00000029736196430738640430000000209803624791112598_);" d="M1414.5,828.4c0,0,4,20.8,2.1,25.1
				c-1.9,4.2-4.2,7.7-4.2,7.7s5.3,11.2,4.8,17s-9.4,37.8-12.9,39.7c-3.5,1.9-22.4,6.9-22.4,6.9l-3.4,32.2l-70.1-11.3l4.1-93.1
				l50.2-35.9L1414.5,828.4z"/>
			
				<linearGradient id="SVGID_00000112623747244553872280000006563187283248301976_" gradientUnits="userSpaceOnUse" x1="1192.5547" y1="1173.3182" x2="1243.7605" y2="1173.3182" gradientTransform="matrix(0.9992 -4.080000e-02 4.080000e-02 0.9992 -43.6552 51.2242)">
				<stop  offset="0.2232" style="stop-color:#FFD097"/>
				<stop  offset="1" style="stop-color:#EAA56C"/>
			</linearGradient>
			<path style="fill:url(#SVGID_00000112623747244553872280000006563187283248301976_);" d="M1196.5,1067.2c0,0-5.9,28.1-3,38.6
				c2.9,10.6,32.4,132.3,32.8,143c0.4,10.8-1.8,27.8,5.6,31.9c7.3,4.1,24.1-23,15.1-64.1s-7.3-148.6-7.3-148.6L1196.5,1067.2z"/>
			<path class="st117" d="M1410.2,1163.2c3.3,8.6,34.5,86.6,26.5,89.9c-4.3,2.1-7.8,14.2-19.9,24.7l-12.7,8.4l-0.3,0
				c-11.5,5.4-27.6,7-51,7.8c-84.7,2.7-109.4-44.2-109.4-44.2s-6.5-112.3-7.8-139.7c-1.3-25.8,4.1-37.3,4.1-37.3s-13.7,3.3-34.9-2.9
				c-21.2-5.9-13.6-9.8-13.6-9.8s13.3-101.6,27.1-116.1c0,0,18.5-41.5,72-27.3c45,11.9,158.8,60,161.6,82.4
				c2.5,22.4,22,149.6,22,149.6s-17.9,5.9-41.1,9.8c-22.9,3.7-22.9,3.7-22.9,3.7L1410.2,1163.2z"/>
			
				<linearGradient id="SVGID_00000039109845103985046580000012417753591594063498_" gradientUnits="userSpaceOnUse" x1="1378.4722" y1="1148.8795" x2="1437.9741" y2="1148.8795">
				<stop  offset="0" style="stop-color:#5F6271"/>
				<stop  offset="1" style="stop-color:#2B3149"/>
			</linearGradient>
			<path style="opacity:0.23;fill:url(#SVGID_00000039109845103985046580000012417753591594063498_);" d="M1436.7,1253.1
				c-4.3,2.1-7.8,14.2-19.9,24.7l-12.7,8.4l-0.3,0c0,0,12.4-21.7,4.7-59.2c-7.8-37.2-32.8-91.9-29.7-141.4
				c2.8-45.8,27.5-70.7,31.5-74.1c-2.3,2.8-12.1,16.3-11.6,47.5c0.1,35.9,11.3,103.3,11.3,103.3l0.3,0.8
				C1413.5,1171.7,1444.7,1249.8,1436.7,1253.1z"/>
			
				<linearGradient id="SVGID_00000137113161128229577530000017279788105874108600_" gradientUnits="userSpaceOnUse" x1="1199.0297" y1="1018.9553" x2="1243.3063" y2="1018.9553">
				<stop  offset="0" style="stop-color:#5F6271"/>
				<stop  offset="1" style="stop-color:#2B3149"/>
			</linearGradient>
			<path style="opacity:0.23;fill:url(#SVGID_00000137113161128229577530000017279788105874108600_);" d="M1239.6,1073l3.7-109
				c0,0-11.6,48-17.4,72.4c-5.8,24.3-26.8,31.8-26.8,31.8S1222.9,1076.8,1239.6,1073z"/>
			
				<linearGradient id="SVGID_00000141455422199380041640000001703395526386597552_" gradientUnits="userSpaceOnUse" x1="1355.1987" y1="1809.4535" x2="1499.1534" y2="1809.4535">
				<stop  offset="0" style="stop-color:#5F6271"/>
				<stop  offset="1" style="stop-color:#2B3149"/>
			</linearGradient>
			<path style="fill:url(#SVGID_00000141455422199380041640000001703395526386597552_);" d="M1363.6,1801.9c0,0,15.7,16.6,43.1,10.8
				c27.3-5.8,9.1-24,29.8-30.6c20.7-6.6,36.4-15.7,44.7-9.1c8.3,6.6,27.3,10.6,12.4,23.5c-14.9,12.9-67.9,41.1-87.8,49.4
				c-19.9,8.3-35.6-6.6-45.6-13.3C1350.3,1826,1357,1802.8,1363.6,1801.9z"/>
			
				<linearGradient id="SVGID_00000165952692833787759840000002443218382892367804_" gradientUnits="userSpaceOnUse" x1="1282.4841" y1="842.7393" x2="1429.0157" y2="842.7393">
				<stop  offset="0" style="stop-color:#5F6271"/>
				<stop  offset="1" style="stop-color:#2B3149"/>
			</linearGradient>
			<path style="fill:url(#SVGID_00000165952692833787759840000002443218382892367804_);" d="M1398.8,847c-3,10.9,2.2,29.8-3.9,31.4
				c-6,1.6-4.7-22.2-8.8-20.7c-4.2,1.4-9.3-1.9-8.9,20.8c0.4,22.8-4.7,30.1-22.5,30.1c-17.8,0-49-2.3-52.8-17
				c-3.8-14.7-22.3-47.1-19-62.8c3.2-15.7,12.7-17.7,12.7-17.7s-4.6-27.8,47-33.5c51.6-5.6,80.1,16.5,83.4,24.2
				C1440,835.7,1401.8,836.2,1398.8,847z"/>
		</g>
	</g>
	<g class="st4">
		
			<ellipse transform="matrix(0.3559 -0.9345 0.9345 0.3559 -279.1178 2749.2468)" class="st5" cx="1855" cy="1577.1" rx="93" ry="274.3"/>
		
			<ellipse transform="matrix(0.3559 -0.9345 0.9345 0.3559 -279.1178 2749.2468)" class="st6" cx="1855" cy="1577.1" rx="91.1" ry="268.6"/>
		
			<ellipse transform="matrix(0.3559 -0.9345 0.9345 0.3559 -279.1178 2749.2468)" class="st7" cx="1855" cy="1577.1" rx="89.2" ry="263"/>
		
			<ellipse transform="matrix(0.3559 -0.9345 0.9345 0.3559 -279.1178 2749.2468)" class="st8" cx="1855" cy="1577.1" rx="87.3" ry="257.4"/>
		
			<ellipse transform="matrix(0.3559 -0.9345 0.9345 0.3559 -279.1179 2749.2468)" class="st9" cx="1855" cy="1577.1" rx="85.4" ry="251.7"/>
		
			<ellipse transform="matrix(0.3559 -0.9345 0.9345 0.3559 -279.1179 2749.2468)" class="st10" cx="1855" cy="1577.1" rx="83.4" ry="246.1"/>
		
			<ellipse transform="matrix(0.3559 -0.9345 0.9345 0.3559 -279.1179 2749.2468)" class="st11" cx="1855" cy="1577.1" rx="81.5" ry="240.5"/>
		
			<ellipse transform="matrix(0.3559 -0.9345 0.9345 0.3559 -279.1179 2749.2471)" class="st12" cx="1855" cy="1577.1" rx="79.6" ry="234.8"/>
		
			<ellipse transform="matrix(0.3559 -0.9345 0.9345 0.3559 -279.118 2749.2471)" class="st13" cx="1855" cy="1577.1" rx="77.7" ry="229.2"/>
		
			<ellipse transform="matrix(0.3559 -0.9345 0.9345 0.3559 -279.118 2749.2471)" class="st14" cx="1855" cy="1577.1" rx="75.8" ry="223.6"/>
		
			<ellipse transform="matrix(0.3559 -0.9345 0.9345 0.3559 -279.118 2749.2471)" class="st15" cx="1855" cy="1577.1" rx="73.9" ry="218"/>
		
			<ellipse transform="matrix(0.3559 -0.9345 0.9345 0.3559 -279.118 2749.2471)" class="st16" cx="1855" cy="1577.1" rx="72" ry="212.3"/>
		
			<ellipse transform="matrix(0.3559 -0.9345 0.9345 0.3559 -279.118 2749.2471)" class="st17" cx="1855" cy="1577.1" rx="70.1" ry="206.7"/>
		
			<ellipse transform="matrix(0.3559 -0.9345 0.9345 0.3559 -279.118 2749.2471)" class="st18" cx="1855" cy="1577.1" rx="68.2" ry="201.1"/>
		
			<ellipse transform="matrix(0.3559 -0.9345 0.9345 0.3559 -279.1181 2749.2473)" class="st19" cx="1855" cy="1577.1" rx="66.3" ry="195.4"/>
		
			<ellipse transform="matrix(0.3559 -0.9345 0.9345 0.3559 -279.1181 2749.2473)" class="st20" cx="1855" cy="1577.1" rx="64.4" ry="189.8"/>
		
			<ellipse transform="matrix(0.3559 -0.9345 0.9345 0.3559 -279.1181 2749.2473)" class="st21" cx="1855" cy="1577.1" rx="62.5" ry="184.2"/>
		
			<ellipse transform="matrix(0.3559 -0.9345 0.9345 0.3559 -279.1181 2749.2473)" class="st22" cx="1855" cy="1577.1" rx="60.5" ry="178.6"/>
		
			<ellipse transform="matrix(0.3559 -0.9345 0.9345 0.3559 -279.1182 2749.2473)" class="st23" cx="1855" cy="1577.1" rx="58.6" ry="172.9"/>
		
			<ellipse transform="matrix(0.3559 -0.9345 0.9345 0.3559 -279.1182 2749.2473)" class="st24" cx="1855" cy="1577.1" rx="56.7" ry="167.3"/>
		
			<ellipse transform="matrix(0.3559 -0.9345 0.9345 0.3559 -279.1182 2749.2473)" class="st25" cx="1855" cy="1577.1" rx="54.8" ry="161.7"/>
		
			<ellipse transform="matrix(0.3559 -0.9345 0.9345 0.3559 -279.1182 2749.2476)" class="st26" cx="1855" cy="1577.1" rx="52.9" ry="156"/>
		
			<ellipse transform="matrix(0.3559 -0.9345 0.9345 0.3559 -279.1182 2749.2476)" class="st27" cx="1855" cy="1577.1" rx="51" ry="150.4"/>
		
			<ellipse transform="matrix(0.3559 -0.9345 0.9345 0.3559 -279.1183 2749.2476)" class="st28" cx="1855" cy="1577.1" rx="49.1" ry="144.8"/>
		
			<ellipse transform="matrix(0.3559 -0.9345 0.9345 0.3559 -279.1183 2749.2476)" class="st29" cx="1855" cy="1577.1" rx="47.2" ry="139.1"/>
		
			<ellipse transform="matrix(0.3559 -0.9345 0.9345 0.3559 -279.1183 2749.2476)" class="st30" cx="1855" cy="1577.1" rx="45.3" ry="133.5"/>
		
			<ellipse transform="matrix(0.3559 -0.9345 0.9345 0.3559 -279.1183 2749.2476)" class="st31" cx="1855" cy="1577.1" rx="43.4" ry="127.9"/>
		
			<ellipse transform="matrix(0.3559 -0.9345 0.9345 0.3559 -279.1183 2749.2478)" class="st32" cx="1855" cy="1577.1" rx="41.5" ry="122.3"/>
	</g>
</g>
</svg>
