<svg width="55" height="56" viewBox="0 0 55 56" fill="none" xmlns="http://www.w3.org/2000/svg">
<g id="63d92f202436dcb3b0ed29c4_for-org 1" clip-path="url(#clip0_2559_17318)">
<g id="Clip path group">
<mask id="mask0_2559_17318" style="mask-type:luminance" maskUnits="userSpaceOnUse" x="0" y="0" width="55" height="56">
<g id="clip0_6805_220541">
<path id="Vector" d="M55 0.120728H0V55.1207H55V0.120728Z" fill="white"/>
</g>
</mask>
<g mask="url(#mask0_2559_17318)">
<g id="Group">
<path id="Vector_2" fill-rule="evenodd" clip-rule="evenodd" d="M27.3434 5.85522C27.4433 5.81388 27.5556 5.81388 27.6553 5.85522L42.7796 12.1199C42.8793 12.1612 42.9586 12.2405 43.0001 12.3404L49.2648 27.4645C49.306 27.5644 49.306 27.6767 49.2648 27.7764L43.0001 42.9007C42.9586 43.0004 42.8793 43.0797 42.7796 43.1212L27.6553 49.3859C27.5556 49.4271 27.4433 49.4271 27.3434 49.3859L12.2193 43.1212C12.1194 43.0797 12.0402 43.0004 11.9988 42.9007L5.73413 27.7764C5.69279 27.6767 5.69279 27.5644 5.73413 27.4645L11.9988 12.3404C12.0402 12.2405 12.1194 12.1612 12.2193 12.1199L27.3434 5.85522ZM12.687 12.8081L6.5515 27.6206L12.687 42.433L27.4995 48.5685L42.3119 42.433L48.4474 27.6206L42.3119 12.8081L27.4995 6.67259L12.687 12.8081Z" fill="#222222"/>
<path id="Vector_3" fill-rule="evenodd" clip-rule="evenodd" d="M27.9065 6.23108V49.0088H27.0918V6.23108H27.9065Z" fill="#222222"/>
<path id="Vector_4" fill-rule="evenodd" clip-rule="evenodd" d="M48.8892 28.0282H6.11133V27.2135H48.8892V28.0282Z" fill="#222222"/>
<path id="Vector_5" fill-rule="evenodd" clip-rule="evenodd" d="M42.9107 12.7839L12.6621 43.0323L12.0859 42.4561L42.3343 12.2078L42.9107 12.7839Z" fill="#222222"/>
<path id="Vector_6" fill-rule="evenodd" clip-rule="evenodd" d="M42.3364 43.0327L12.0879 12.7842L12.6641 12.208L42.9125 42.4564L42.3364 43.0327Z" fill="#222222"/>
<path id="Vector_7" d="M27.4997 19.4724L33.2612 21.8589L35.6477 27.6206L33.2612 33.382L27.4997 35.7686L21.7381 33.382L19.3516 27.6206L21.7381 21.8589L27.4997 19.4724Z" fill="url(#paint0_linear_2559_17318)"/>
<path id="Vector_8" fill-rule="evenodd" clip-rule="evenodd" d="M27.343 19.0961C27.4429 19.0547 27.555 19.0547 27.6549 19.0961L33.4164 21.4826C33.5163 21.524 33.5956 21.6033 33.6368 21.7031L36.0234 27.4647C36.0649 27.5646 36.0649 27.6767 36.0234 27.7766L33.6368 33.5381C33.5956 33.638 33.5163 33.7173 33.4164 33.7585L27.6549 36.1451C27.555 36.1866 27.4429 36.1866 27.343 36.1451L21.5814 33.7585C21.4816 33.7173 21.4023 33.638 21.3609 33.5381L18.9744 27.7766C18.933 27.6767 18.933 27.5646 18.9744 27.4647L21.3609 21.7031C21.4023 21.6033 21.4816 21.524 21.5814 21.4826L27.343 19.0961ZM22.0491 22.1708L19.7917 27.6205L22.0491 33.0704L27.4988 35.3279L32.9486 33.0704L35.2062 27.6205L32.9486 22.1708L27.4988 19.9134L22.0491 22.1708Z" fill="#222222"/>
<path id="Vector_9" d="M46.6968 12.444C46.6968 14.694 44.8729 16.518 42.623 16.518C40.3728 16.518 38.5488 14.694 38.5488 12.444C38.5488 10.1939 40.3728 8.36987 42.623 8.36987C44.8729 8.36987 46.6968 10.1939 46.6968 12.444Z" fill="#FEC560"/>
<path id="Vector_10" fill-rule="evenodd" clip-rule="evenodd" d="M42.6242 8.77733C40.599 8.77733 38.9575 10.4189 38.9575 12.444C38.9575 14.469 40.599 16.1107 42.6242 16.1107C44.6493 16.1107 46.2908 14.469 46.2908 12.444C46.2908 10.4189 44.6493 8.77733 42.6242 8.77733ZM38.1426 12.444C38.1426 9.96895 40.1492 7.96252 42.6242 7.96252C45.0992 7.9625 47.1057 9.96895 47.1057 12.444C47.1057 14.919 45.0992 16.9255 42.6242 16.9255C40.1492 16.9255 38.1426 14.919 38.1426 12.444Z" fill="#222222"/>
<path id="Vector_11" d="M16.4489 42.7962C16.4489 45.0464 14.6249 46.8703 12.3749 46.8703C10.1248 46.8703 8.30078 45.0464 8.30078 42.7962C8.30078 40.5462 10.1248 38.722 12.3749 38.722C14.6249 38.722 16.4489 40.5462 16.4489 42.7962Z" fill="#FEC560"/>
<path id="Vector_12" fill-rule="evenodd" clip-rule="evenodd" d="M12.376 39.1297C10.351 39.1297 8.70936 40.7713 8.70936 42.7964C8.70936 44.8213 10.351 46.4631 12.376 46.4631C14.4011 46.4631 16.0427 44.8213 16.0427 42.7964C16.0427 40.7713 14.4011 39.1297 12.376 39.1297ZM7.89453 42.7964C7.89453 40.3212 9.90098 38.3148 12.376 38.3148C14.8511 38.3148 16.8575 40.3212 16.8575 42.7964C16.8575 45.2714 14.8511 47.2778 12.376 47.2778C9.90098 47.2778 7.89453 45.2714 7.89453 42.7964Z" fill="#222222"/>
<path id="Vector_13" d="M31.5738 6.23142C31.5738 8.48147 29.7499 10.3055 27.4997 10.3055C25.2497 10.3055 23.4258 8.48147 23.4258 6.23142C23.4258 3.98137 25.2497 2.15735 27.4997 2.15735C29.7499 2.15735 31.5738 3.98137 31.5738 6.23142Z" fill="white"/>
<path id="Vector_14" fill-rule="evenodd" clip-rule="evenodd" d="M27.4992 2.56481C25.474 2.56481 23.8325 4.20644 23.8325 6.23148C23.8325 8.25653 25.474 9.89814 27.4992 9.89814C29.5241 9.89814 31.1658 8.25653 31.1658 6.23148C31.1658 4.20644 29.5241 2.56481 27.4992 2.56481ZM23.0176 6.23148C23.0176 3.75643 25.0242 1.75 27.4992 1.75C29.9742 1.75 31.9805 3.75643 31.9805 6.23148C31.9805 8.70654 29.9742 10.713 27.4992 10.713C25.0242 10.713 23.0176 8.70654 23.0176 6.23148Z" fill="#222222"/>
<path id="Vector_15" d="M31.5738 49.0089C31.5738 51.2589 29.7499 53.0828 27.4997 53.0828C25.2497 53.0828 23.4258 51.2589 23.4258 49.0089C23.4258 46.7588 25.2497 44.9348 27.4997 44.9348C29.7499 44.9348 31.5738 46.7588 31.5738 49.0089Z" fill="white"/>
<path id="Vector_16" fill-rule="evenodd" clip-rule="evenodd" d="M27.4992 45.3423C25.474 45.3423 23.8325 46.9838 23.8325 49.0089C23.8325 51.0341 25.474 52.6756 27.4992 52.6756C29.5241 52.6756 31.1658 51.0341 31.1658 49.0089C31.1658 46.9838 29.5241 45.3423 27.4992 45.3423ZM23.0176 49.0089C23.0176 46.5339 25.0242 44.5273 27.4992 44.5273C29.9742 44.5273 31.9805 46.5339 31.9805 49.0089C31.9805 51.4839 29.9742 53.4905 27.4992 53.4905C25.0242 53.4905 23.0176 51.4839 23.0176 49.0089Z" fill="#222222"/>
<path id="Vector_17" d="M52.9625 27.6205C52.9625 29.8707 51.1385 31.6947 48.8886 31.6947C46.6384 31.6947 44.8145 29.8707 44.8145 27.6205C44.8145 25.3706 46.6384 23.5466 48.8886 23.5466C51.1385 23.5466 52.9625 25.3706 52.9625 27.6205Z" fill="white"/>
<path id="Vector_18" fill-rule="evenodd" clip-rule="evenodd" d="M48.8878 23.9541C46.8627 23.9541 45.2212 25.5956 45.2212 27.6207C45.2212 29.6457 46.8627 31.2874 48.8878 31.2874C50.913 31.2874 52.5545 29.6457 52.5545 27.6207C52.5545 25.5956 50.913 23.9541 48.8878 23.9541ZM44.4062 27.6207C44.4062 25.1457 46.4128 23.1392 48.8878 23.1392C51.3628 23.1392 53.3694 25.1457 53.3694 27.6207C53.3694 30.0957 51.3628 32.1021 48.8878 32.1021C46.4128 32.1021 44.4062 30.0957 44.4062 27.6207Z" fill="#222222"/>
<path id="Vector_19" d="M10.1853 27.6205C10.1853 29.8707 8.36123 31.6947 6.11118 31.6947C3.86113 31.6947 2.03711 29.8707 2.03711 27.6205C2.03711 25.3706 3.86113 23.5466 6.11118 23.5466C8.36123 23.5466 10.1853 25.3706 10.1853 27.6205Z" fill="white"/>
<path id="Vector_20" fill-rule="evenodd" clip-rule="evenodd" d="M6.11038 23.9541C4.08535 23.9541 2.44371 25.5956 2.44371 27.6207C2.44371 29.6457 4.08535 31.2874 6.11038 31.2874C8.13543 31.2874 9.77705 29.6457 9.77705 27.6207C9.77705 25.5956 8.13543 23.9541 6.11038 23.9541ZM1.62891 27.6207C1.62891 25.1457 3.63533 23.1392 6.11038 23.1392C8.58545 23.1392 10.5919 25.1457 10.5919 27.6207C10.5919 30.0957 8.58545 32.1021 6.11038 32.1021C3.63533 32.1021 1.62891 30.0957 1.62891 27.6207Z" fill="#222222"/>
<path id="Vector_21" d="M16.4489 12.4966C16.4489 14.7466 14.6249 16.5706 12.3749 16.5706C10.1248 16.5706 8.30078 14.7466 8.30078 12.4966C8.30078 10.2465 10.1248 8.42249 12.3749 8.42249C14.6249 8.42249 16.4489 10.2465 16.4489 12.4966Z" fill="#FEC560"/>
<path id="Vector_22" fill-rule="evenodd" clip-rule="evenodd" d="M12.376 8.82996C10.351 8.82996 8.70936 10.4716 8.70936 12.4966C8.70936 14.5217 10.351 16.1633 12.376 16.1633C14.4011 16.1633 16.0427 14.5217 16.0427 12.4966C16.0427 10.4716 14.4011 8.82996 12.376 8.82996ZM7.89453 12.4966C7.89453 10.0216 9.90098 8.01514 12.376 8.01514C14.8511 8.01514 16.8575 10.0216 16.8575 12.4966C16.8575 14.9717 14.8511 16.9781 12.376 16.9781C9.90098 16.9781 7.89453 14.9717 7.89453 12.4966Z" fill="#222222"/>
<path id="Vector_23" d="M46.6968 42.7449C46.6968 44.9949 44.8729 46.8188 42.623 46.8188C40.3728 46.8188 38.5488 44.9949 38.5488 42.7449C38.5488 40.4947 40.3728 38.6708 42.623 38.6708C44.8729 38.6708 46.6968 40.4947 46.6968 42.7449Z" fill="#FEC560"/>
<path id="Vector_24" fill-rule="evenodd" clip-rule="evenodd" d="M42.6242 39.0782C40.599 39.0782 38.9575 40.7197 38.9575 42.7449C38.9575 44.77 40.599 46.4116 42.6242 46.4116C44.6493 46.4116 46.2908 44.77 46.2908 42.7449C46.2908 40.7197 44.6493 39.0782 42.6242 39.0782ZM38.1426 42.7449C38.1426 40.2699 40.1492 38.2633 42.6242 38.2633C45.0992 38.2633 47.1057 40.2699 47.1057 42.7449C47.1057 45.2199 45.0992 47.2265 42.6242 47.2265C40.1492 47.2265 38.1426 45.2199 38.1426 42.7449Z" fill="#222222"/>
</g>
</g>
</g>
</g>
<defs>
<linearGradient id="paint0_linear_2559_17318" x1="35.6477" y1="19.4724" x2="19.3516" y2="35.7686" gradientUnits="userSpaceOnUse">
<stop stop-color="#6F2B8C"/>
<stop offset="1" stop-color="#3F93FF"/>
</linearGradient>
<clipPath id="clip0_2559_17318">
<rect width="55" height="55" fill="white" transform="translate(0 0.120728)"/>
</clipPath>
</defs>
</svg>
