<svg width="55" height="56" viewBox="0 0 55 56" fill="none" xmlns="http://www.w3.org/2000/svg">
<g id="63d92f202436dc5261ed29d2_partner-program 1" clip-path="url(#clip0_2559_17353)">
<g id="Clip path group">
<mask id="mask0_2559_17353" style="mask-type:luminance" maskUnits="userSpaceOnUse" x="0" y="0" width="55" height="56">
<g id="clip0_6805_220178">
<path id="Vector" d="M55 0.120728H0V55.1207H55V0.120728Z" fill="white"/>
</g>
</mask>
<g mask="url(#mask0_2559_17353)">
<g id="Group">
<path id="Vector_2" d="M48.8892 27.621C48.8892 39.4336 39.313 49.0098 27.5001 49.0098C15.6875 49.0098 6.11133 39.4336 6.11133 27.621C6.11133 15.8082 15.6875 6.23206 27.5001 6.23206C39.313 6.23206 48.8892 15.8082 48.8892 27.621Z" fill="white"/>
<path id="Vector_3" fill-rule="evenodd" clip-rule="evenodd" d="M27.4995 6.63953C15.9117 6.63953 6.51795 16.0333 6.51795 27.621C6.51795 39.2088 15.9117 48.6025 27.4995 48.6025C39.0873 48.6025 48.4808 39.2088 48.4808 27.621C48.4808 16.0333 39.0873 6.63953 27.4995 6.63953ZM5.70312 27.621C5.70312 15.5832 15.4617 5.82471 27.4995 5.82471C39.5371 5.82471 49.2957 15.5832 49.2957 27.621C49.2957 39.6588 39.5371 49.4172 27.4995 49.4172C15.4617 49.4172 5.70312 39.6588 5.70312 27.621Z" fill="#222222"/>
<path id="Vector_4" d="M39.7219 27.6209C39.7219 34.371 34.2498 39.8431 27.4995 39.8431C20.7494 39.8431 15.2773 34.371 15.2773 27.6209C15.2773 20.8707 20.7494 15.3987 27.4995 15.3987C34.2498 15.3987 39.7219 20.8707 39.7219 27.6209Z" fill="url(#paint0_linear_2559_17353)"/>
<path id="Vector_5" fill-rule="evenodd" clip-rule="evenodd" d="M27.4988 15.8062C20.9736 15.8062 15.684 21.0958 15.684 27.6209C15.684 34.1462 20.9736 39.4358 27.4988 39.4358C34.0239 39.4358 39.3135 34.1462 39.3135 27.6209C39.3135 21.0958 34.0239 15.8062 27.4988 15.8062ZM14.8691 27.6209C14.8691 20.6458 20.5236 14.9913 27.4988 14.9913C34.474 14.9913 40.1284 20.6458 40.1284 27.6209C40.1284 34.5961 34.474 40.2505 27.4988 40.2505C20.5236 40.2505 14.8691 34.5961 14.8691 27.6209Z" fill="#222222"/>
<path id="Vector_6" fill-rule="evenodd" clip-rule="evenodd" d="M23.591 19.1607C22.5189 21.3049 21.8441 24.2955 21.8441 27.6209C21.8441 30.9466 22.5189 33.937 23.591 36.0813C24.6752 38.2497 26.0976 39.4358 27.5478 39.4358C28.998 39.4358 30.4204 38.2497 31.5046 36.0813C32.5766 33.937 33.2515 30.9466 33.2515 27.6209C33.2515 24.2955 32.5766 21.3049 31.5046 19.1607C30.4204 16.9923 28.998 15.8062 27.5478 15.8062C26.0976 15.8062 24.6752 16.9923 23.591 19.1607ZM22.8622 18.7963C23.9898 16.5413 25.6228 14.9913 27.5478 14.9913C29.4728 14.9913 31.1058 16.5413 32.2333 18.7963C33.3732 21.0758 34.0662 24.1965 34.0662 27.6209C34.0662 31.0456 33.3732 34.1661 32.2333 36.4457C31.1058 38.7007 29.4728 40.2505 27.5478 40.2505C25.6228 40.2505 23.9898 38.7007 22.8622 36.4457C21.7225 34.1661 21.0293 31.0456 21.0293 27.6209C21.0293 24.1965 21.7225 21.0758 22.8622 18.7963Z" fill="#222222"/>
<path id="Vector_7" fill-rule="evenodd" clip-rule="evenodd" d="M27.0918 39.8433V15.3987C27.0918 15.1738 27.2742 14.9913 27.4993 14.9913C27.7241 14.9913 27.9065 15.1738 27.9065 15.3987V39.8433C27.9065 40.0681 27.7241 40.2505 27.4993 40.2505C27.2742 40.2505 27.0918 40.0681 27.0918 39.8433Z" fill="#222222"/>
<path id="Vector_8" fill-rule="evenodd" clip-rule="evenodd" d="M40.1303 27.6212C40.1303 27.8462 39.9479 28.0287 39.7231 28.0287H15.2785C15.0535 28.0287 14.8711 27.8462 14.8711 27.6212C14.8711 27.3962 15.0535 27.2137 15.2785 27.2137H39.7231C39.9479 27.2137 40.1303 27.3962 40.1303 27.6212Z" fill="#222222"/>
<path id="Vector_9" fill-rule="evenodd" clip-rule="evenodd" d="M38.1743 21.2653C38.1743 21.4903 37.9919 21.6727 37.7668 21.6727H17.2336C17.0086 21.6727 16.8262 21.4903 16.8262 21.2653C16.8262 21.0403 17.0086 20.8579 17.2336 20.8579H37.7668C37.9919 20.8579 38.1743 21.0403 38.1743 21.2653Z" fill="#222222"/>
<path id="Vector_10" fill-rule="evenodd" clip-rule="evenodd" d="M38.1743 33.9764C38.1743 34.2015 37.9919 34.3839 37.7668 34.3839H17.2336C17.0086 34.3839 16.8262 34.2015 16.8262 33.9764C16.8262 33.7514 17.0086 33.569 17.2336 33.569H37.7668C37.9919 33.569 38.1743 33.7514 38.1743 33.9764Z" fill="#222222"/>
<path id="Vector_11" d="M52.9625 27.6211C52.9625 29.8711 51.1385 31.6952 48.8886 31.6952C46.6384 31.6952 44.8145 29.8711 44.8145 27.6211C44.8145 25.3712 46.6384 23.547 48.8886 23.547C51.1385 23.547 52.9625 25.3712 52.9625 27.6211Z" fill="#F26B66"/>
<path id="Vector_12" fill-rule="evenodd" clip-rule="evenodd" d="M48.8878 23.9541C46.8627 23.9541 45.2212 25.5956 45.2212 27.6207C45.2212 29.6457 46.8627 31.2874 48.8878 31.2874C50.913 31.2874 52.5545 29.6457 52.5545 27.6207C52.5545 25.5956 50.913 23.9541 48.8878 23.9541ZM44.4062 27.6207C44.4062 25.1457 46.4128 23.1392 48.8878 23.1392C51.3628 23.1392 53.3694 25.1457 53.3694 27.6207C53.3694 30.0957 51.3628 32.1021 48.8878 32.1021C46.4128 32.1021 44.4062 30.0957 44.4062 27.6207Z" fill="#222222"/>
<path id="Vector_13" d="M31.5738 6.2319C31.5738 8.48195 29.7499 10.306 27.4997 10.306C25.2497 10.306 23.4258 8.48195 23.4258 6.2319C23.4258 3.98185 25.2497 2.15784 27.4997 2.15784C29.7499 2.15784 31.5738 3.98185 31.5738 6.2319Z" fill="#F26B66"/>
<path id="Vector_14" fill-rule="evenodd" clip-rule="evenodd" d="M27.4992 2.56531C25.474 2.56531 23.8325 4.20692 23.8325 6.23198C23.8325 8.25701 25.474 9.89864 27.4992 9.89864C29.5241 9.89864 31.1658 8.25701 31.1658 6.23198C31.1658 4.20692 29.5241 2.56531 27.4992 2.56531ZM23.0176 6.23198C23.0176 3.75691 25.0242 1.75049 27.4992 1.75049C29.9742 1.75049 31.9805 3.75691 31.9805 6.23198C31.9805 8.70702 29.9742 10.7134 27.4992 10.7134C25.0242 10.7134 23.0176 8.70702 23.0176 6.23198Z" fill="#222222"/>
<path id="Vector_15" d="M10.1853 27.6211C10.1853 29.8711 8.36123 31.6952 6.11118 31.6952C3.86113 31.6952 2.03711 29.8711 2.03711 27.6211C2.03711 25.3712 3.86113 23.547 6.11118 23.547C8.36123 23.547 10.1853 25.3712 10.1853 27.6211Z" fill="#F26B66"/>
<path id="Vector_16" fill-rule="evenodd" clip-rule="evenodd" d="M6.11038 23.9541C4.08535 23.9541 2.44372 25.5956 2.44372 27.6207C2.44372 29.6457 4.08535 31.2874 6.11038 31.2874C8.13544 31.2874 9.77705 29.6457 9.77705 27.6207C9.77705 25.5956 8.13544 23.9541 6.11038 23.9541ZM1.62891 27.6207C1.62891 25.1457 3.63534 23.1392 6.11038 23.1392C8.58545 23.1392 10.5919 25.1457 10.5919 27.6207C10.5919 30.0957 8.58545 32.1021 6.11038 32.1021C3.63534 32.1021 1.62891 30.0957 1.62891 27.6207Z" fill="#222222"/>
<path id="Vector_17" d="M31.5738 49.0097C31.5738 51.2599 29.7499 53.0838 27.4997 53.0838C25.2497 53.0838 23.4258 51.2599 23.4258 49.0097C23.4258 46.7597 25.2497 44.9358 27.4997 44.9358C29.7499 44.9358 31.5738 46.7597 31.5738 49.0097Z" fill="#F26B66"/>
<path id="Vector_18" fill-rule="evenodd" clip-rule="evenodd" d="M27.4992 45.3434C25.474 45.3434 23.8325 46.9849 23.8325 49.01C23.8325 51.0349 25.474 52.6767 27.4992 52.6767C29.5241 52.6767 31.1658 51.0349 31.1658 49.01C31.1658 46.9849 29.5241 45.3434 27.4992 45.3434ZM23.0176 49.01C23.0176 46.535 25.0242 44.5284 27.4992 44.5284C29.9742 44.5284 31.9805 46.535 31.9805 49.01C31.9805 51.485 29.9742 53.4914 27.4992 53.4914C25.0242 53.4914 23.0176 51.485 23.0176 49.01Z" fill="#222222"/>
</g>
</g>
</g>
</g>
<defs>
<linearGradient id="paint0_linear_2559_17353" x1="39.7219" y1="15.3987" x2="15.2773" y2="39.8431" gradientUnits="userSpaceOnUse">
<stop stop-color="#6F2B8C"/>
<stop offset="1" stop-color="#3F93FF"/>
</linearGradient>
<clipPath id="clip0_2559_17353">
<rect width="55" height="55" fill="white" transform="translate(0 0.120728)"/>
</clipPath>
</defs>
</svg>
