<svg id="Layer_1" enable-background="new 0 0 3873 3873" viewBox="0 0 3873 3873" xmlns="http://www.w3.org/2000/svg" xmlns:xlink="http://www.w3.org/1999/xlink"><linearGradient id="SVGID_1_" gradientTransform="matrix(1 0 0 -1 0 3382.983)" gradientUnits="userSpaceOnUse" x1="550.259" x2="3292.301" y1="2230.503" y2="-511.539"><stop offset="0" stop-color="#da4328"/><stop offset="1" stop-color="#f17610"/></linearGradient><g id="Layer_1_00000181051070409007141010000008992509145517733008_"><path clip-rule="evenodd" d="m3279.9 2848.9c92.3-70 152-180.8 152-305.3 0-211.2-171.8-383-383.1-383-211.2 0-383 171.8-383 383 0 124.4 59.7 235.1 151.8 305.2-160.2 13.7-296.8 113.5-358.9 258.5-71.7-79.7-173.7-131.6-287.7-137.3 91.4-70.1 150.5-180.3 150.5-304.1 0-211.2-171.8-383.1-383-383.1-211.3 0-383.1 171.8-383.1 383.1 0 123.8 59.1 234.1 150.6 304.1-114 5.9-215.9 58-287.5 137.8-62.1-145.4-198.8-245.4-359.2-259.1 92.2-70 151.8-180.7 151.8-305.1 0-211.2-171.8-383-383-383s-383.1 171.8-383.1 383c0 124.5 59.7 235.3 152 305.3-221 19.2-395.1 205.1-395.1 431v215.5c0 22 17.8 39.8 39.8 39.8h1070.6v82.6c0 22 17.8 39.8 39.8 39.8h1173.5c22 0 39.8-17.8 39.8-39.8v-82.6h1069.8c22 0 39.8-17.8 39.8-39.8v-215.5c0-225.9-174-411.8-395.1-431zm-534.5-305.3c0-167.3 136.1-303.5 303.5-303.5s303.6 136.2 303.5 303.5c0 167.3-136.1 303.5-303.5 303.5-167.4.1-303.5-136.1-303.5-303.5zm-1110.4 122.4c0-167.3 136.2-303.5 303.5-303.5s303.5 136.2 303.5 303.5-136.1 303.5-303.5 303.5c-167.3 0-303.5-136.2-303.5-303.5zm-1110.3-122.4c0-167.3 136.2-303.5 303.6-303.5 167.3 0 303.5 136.2 303.5 303.5s-136.1 303.5-303.5 303.5c-167.4.1-303.6-136.1-303.6-303.5zm658.2 912v-204.1c0-22-17.8-39.8-39.8-39.8s-39.8 17.8-39.8 39.8v204.1h-550.2v-204.1c0-22-17.8-39.8-39.8-39.8s-39.8 17.8-39.8 39.8v204.1h-192v-175.7c0-194.7 158.5-353.2 353.3-353.2h386.7c161.5 0 299.7 106.7 340.7 261.1-31.8 58.7-49.8 125.8-49.8 197.1v70.7zm1110.3 122.3v-204.1c0-22-17.8-39.8-39.8-39.8s-39.8 17.8-39.8 39.8v204.1h-550.3v-204.1c0-22-17.7-39.8-39.7-39.8s-39.8 17.8-39.8 39.8v204.1h-192v-193c0-185.2 150.7-335.9 335.9-335.9h422.3c185.2 0 335.9 150.7 335.9 335.9v102.9c-.5 2.5-.8 5-.8 7.6s.3 5.1.8 7.6v75zm1302.3-122.3h-192v-204.1c0-22-17.7-39.8-39.8-39.8-22 0-39.8 17.8-39.8 39.8v204.1h-550.2v-204.1c0-22-17.8-39.8-39.8-39.8-21.9 0-39.8 17.8-39.8 39.8v204.1h-128.8v-70.7c0-71.7-18.2-139.1-50.3-198 41.3-153.9 179.2-260.1 340.5-260.1h386.7c194.8 0 353.3 158.4 353.3 353.2zm-2249.4-2105.8 73.3 216.9c20.1 60.3 30.3 122.7 30.3 185.4v46.8c-34.8 15.4-59.2 50.1-59.2 90.5v102.7c0 54.5 44.4 98.9 98.9 98.9h828.6c54.5 0 98.9-44.4 98.9-98.9v-102.7c0-39.8-23.6-74-57.6-89.7v-97.3c0-22.4 9-43.8 25.1-59.9 34.9-34.1 67.2-72.1 96.3-112.9 121-172.6 102.8-461.3 15.1-645.7v-410.1c0-51.3-18.2-98.8-50.7-133.4-33.7-36.9-78.9-57.1-127.2-57.1-48.4 0-92.4 20.9-124.5 54.6-6.9-12.2-15-23.9-24.5-34.6-33.7-36.9-78.9-57.2-127.2-57.2-50.7 0-96.4 22.9-128.8 59.4-32-47.2-86.1-78.3-147.4-78.3-70.9 0-132.2 41.7-160.7 101.8-31.1-28.5-71.4-45.7-115.5-45.7-98 0-177.8 85.4-177.8 190.5v411.2.1 254c.2 71.1 11.7 142 34.6 210.7zm991.4 642.3c0 10.4-9 19.4-19.4 19.4h-828.6c-10.7 0-19.4-8.7-19.4-19.4v-102.7c0-10.7 8.7-19.4 19.4-19.4h828.6c10.7 0 19.4 8.7 19.4 19.4zm78.4-508.5c-26.6 37.4-55 70.8-87.3 102.3-31.4 31.4-48.7 72.8-48.7 116.5v88.1h-750.7v-38.4c0-71.3-11.5-142.1-34.4-210.8l-73.3-216.8c-20.2-60.4-30.3-122.8-30.3-185.6v-95.4c28.2 20.1 62 31.9 98.3 31.9 44.1 0 84.4-17.3 115.5-45.8 28.6 60.1 89.8 101.8 160.7 101.8 61.2 0 115.2-31 147.3-78.2.5.5.8 1.1 1.3 1.6.3.3.6.6.8.9 34.4 36.5 79.5 56.7 126.8 56.7 57.9 0 110.6-29.7 143.4-77.7l77.7 74.8c-78.9 50.8-175.1 129.4-203.2 223.3-6.3 21 5.7 43.1 26.7 49.4s43.2-5.7 49.5-26.6c17.1-57.2 80-122.5 176.7-183.4 19.3-11.7 31.7-31.3 34.1-53.8 2.3-22.4-5.6-44.1-21.7-59.4l-123.6-118.9-228.5-228.6c-18.4-18.4-28.6-43.2-28.6-69.7 0-26.4 10-50.6 28.6-69.8 18.4-18.4 43.2-28.6 69.8-28.6 26.5 0 51.3 10.1 69.7 28.6l33 33c3.6 6.4 8.9 11.7 15.3 15.3l189.2 189.3c24.5 24.6 47.3 56.7 67.6 95.3 1.4 6.1 4.2 11.5 8 16.1 85.7 181.8 81.8 432.2-9.7 562.6zm-472.3-561.4v-127.5l183.1 183.1c-17.3 33.7-49.4 55.2-84.8 55.2-32 0-54.8-16.8-68.5-31.2-19.2-22-29.7-50.2-29.8-79.6zm374.5-559.4c25.7 0 50.1 11 68.9 31.6 19 20.2 29.5 48.4 29.5 79.3v290.4c-3.4-3.7-6.8-7.3-10.3-10.8l-186.4-186.3v-93.3c0-61.2 44.2-110.9 98.3-110.9zm-276.2-37.2c33 0 55.5 17.1 68.1 30.8 19.5 22 30.3 50.5 30.3 80.2v36.8.3.1 19c-28.7-18.8-62.3-28.9-97.5-28.9-35.9 0-70 10.4-99.1 29.9v-57.2c-.1-61.2 44-111 98.2-111zm-374.5 79.4c0-54.2 44.1-98.3 98.3-98.3 54.3 0 98.4 44.1 98.4 98.3v31.2.4.1 485.2 31.5c0 54.3-44.1 98.4-98.4 98.4-54.2 0-98.3-44.1-98.3-98.4zm-177.9-42.2c54.3 0 98.4 49.8 98.4 110.9v411.2c0 61.2-44.1 110.9-98.4 110.9-54.2 0-98.3-49.8-98.3-110.9v-411.2c0-61.1 44.1-110.9 98.3-110.9zm-701 1688.4v-260.4c0-34.2 11.9-67.3 33.7-93.3l195.2-229.1-72.6 3.8c-21.9 1.3-40.7-15.7-41.8-37.6-1.2-22 15.7-40.7 37.6-41.8l163.8-8.6h.3.9c.9-.1 1.8.1 2.7.1 1.5 0 2.9 0 4.4.2s2.9.6 4.3.9c1.1.3 2.2.5 3.2.8 1.4.5 2.7 1.1 4 1.7 1.1.5 2.2.9 3.2 1.5 1.3.8 2.5 1.7 3.7 2.6.8.6 1.6 1 2.3 1.6.2.1.3.3.5.5s.4.3.6.5c.9.9 1.7 1.9 2.5 2.8s1.6 1.6 2.3 2.6c.9 1.1 1.6 2.4 2.3 3.6.6 1 1.3 2 1.8 3.1.6 1.2 1 2.4 1.4 3.7.4 1.2.9 2.4 1.2 3.6s.4 2.4.6 3.5c.2 1.4.5 2.8.6 4.2 0 .3.1.6.1.9l5.5 163.3c.8 22-16.4 40.3-38.4 41.1-.5 0-.9 0-1.4 0-21.3 0-39-16.9-39.7-38.4l-2-60.8-188.3 221c-9.5 11.3-15 26.8-15 42.1v260.4c0 22-17.8 39.8-39.8 39.8-21.9-.1-39.7-17.9-39.7-39.9zm1935.7-465.3 5.5-163.3c0-.3.1-.6.1-.9.1-1.4.3-2.8.6-4.2.2-1.2.3-2.4.6-3.6s.8-2.4 1.2-3.6c.5-1.3.9-2.5 1.4-3.7.5-1 1.2-2 1.8-3 .7-1.2 1.4-2.5 2.3-3.6.7-.9 1.5-1.7 2.3-2.6s1.6-1.9 2.5-2.8c.2-.2.4-.3.7-.5.2-.1.3-.3.4-.5.7-.6 1.4-1 2.1-1.5 1.3-1 2.6-2 4-2.8.9-.5 1.8-.9 2.7-1.3 1.5-.7 3-1.4 4.6-2 .9-.3 1.8-.4 2.7-.7 1.6-.4 3.1-.8 4.8-1 1.5-.2 3-.2 4.4-.2.9 0 1.7-.2 2.6-.1h.9.3l163.7 8.6c22 1.1 38.8 19.8 37.6 41.8-1.2 21.9-20 38.9-41.8 37.6l-72.6-3.8 194.9 228.7c22 26.4 34 59.5 34 93.7v260.4c0 22-17.8 39.8-39.8 39.8s-39.8-17.8-39.8-39.8v-260.4c0-15.3-5.5-30.8-15.2-42.5l-188.1-220.6-2.1 60.8c-.7 21.5-18.4 38.4-39.7 38.4-.5 0-.9 0-1.4 0-21.7-.5-38.9-18.9-38.2-40.8z" fill="url(#SVGID_1_)" fill-rule="evenodd"/></g><g id="Master_Layer_2"/></svg>