<svg width="78" height="50" viewBox="0 0 78 50" fill="none" xmlns="http://www.w3.org/2000/svg">
<g id="US_00000018915571316295375450000015770580154443013021_">
<g id="Group">
<path id="Vector" d="M59.6571 13.6869C62.4044 13.6869 64.6324 15.9137 64.6324 18.6595C64.6324 21.4053 62.4044 23.6321 59.6571 23.6321C56.9097 23.6321 54.6816 21.4053 54.6816 18.6595C54.6816 15.9111 56.9072 13.6869 59.6571 13.6869Z" fill="#6F2B8C"/>
</g>
<g id="Group_2">
<path id="Vector_2" d="M64.6324 31.8234C64.6324 29.0776 62.4044 26.8508 59.6571 26.8508C56.9097 26.8508 54.6816 29.0776 54.6816 31.8234C54.6816 34.5692 56.9097 36.7961 59.6571 36.7961C62.4044 36.7961 64.6324 34.5718 64.6324 31.8234ZM62.3583 31.8234C62.3583 33.3088 61.151 34.5155 59.6622 34.5155C58.176 34.5155 56.9686 33.3088 56.9686 31.8234C56.9686 30.338 58.176 29.1288 59.6622 29.1288C61.1484 29.1314 62.3583 30.338 62.3583 31.8234Z" fill="#6F2B8C"/>
</g>
<g id="Group_3">
<path id="Vector_3" d="M64.6324 44.995C64.6324 42.2493 62.4044 40.0225 59.6571 40.0225C56.9097 40.0225 54.6816 42.2493 54.6816 44.995C54.6816 47.7408 56.9097 49.9676 59.6571 49.9676C62.4044 49.9676 64.6324 47.7408 64.6324 44.995ZM62.3583 44.995C62.3583 46.4804 61.151 47.6872 59.6622 47.6872C58.176 47.6872 56.9686 46.4804 56.9686 44.995C56.9686 43.5097 58.176 42.3029 59.6622 42.3029C61.1484 42.3004 62.3583 43.5097 62.3583 44.995Z" fill="#6F2B8C"/>
</g>
<g id="Group_4">
<path id="Vector_4" d="M59.6571 10.4605C56.9097 10.4605 54.6816 8.23363 54.6816 5.48784C54.6816 2.74205 56.9097 0.515259 59.6571 0.515259C62.4044 0.515259 64.6324 2.74205 64.6324 5.48784C64.6324 8.23363 62.4044 10.4605 59.6571 10.4605Z" fill="#6F2B8C"/>
</g>
<g id="Group_5">
<path id="Vector_5" d="M72.5213 0.515259C75.2686 0.515259 77.4967 2.74205 77.4967 5.48784C77.4967 8.23363 75.2686 10.4605 72.5213 10.4605C69.774 10.4605 67.5459 8.23363 67.5459 5.48784C67.5459 2.74205 69.7714 0.515259 72.5213 0.515259Z" fill="#6F2B8C"/>
</g>
<g id="Group_6">
<path id="Vector_6" d="M67.5459 18.6595C67.5459 21.4053 69.774 23.6321 72.5213 23.6321C75.2686 23.6321 77.4967 21.4053 77.4967 18.6595C77.4967 15.9137 75.2686 13.6869 72.5213 13.6869C69.7714 13.6869 67.5459 15.9111 67.5459 18.6595ZM69.82 18.6595C69.82 17.1741 71.0274 15.9648 72.5136 15.9648C73.9999 15.9648 75.2098 17.1715 75.2098 18.6595C75.2098 20.1449 74.0024 21.3516 72.5136 21.3516C71.0274 21.3516 69.82 20.1449 69.82 18.6595Z" fill="#6F2B8C"/>
</g>
<g id="Group_7">
<path id="Vector_7" d="M72.5213 40.0225C75.2686 40.0225 77.4967 42.2493 77.4967 44.995C77.4967 47.7408 75.2686 49.9676 72.5213 49.9676C69.774 49.9676 67.5459 47.7408 67.5459 44.995C67.5459 42.2493 69.7714 40.0225 72.5213 40.0225Z" fill="#6F2B8C"/>
</g>
<g id="Group_8">
<path id="Vector_8" d="M47.2068 40.0225C49.9541 40.0225 52.1822 42.2493 52.1822 44.995C52.1822 47.7408 49.9541 49.9676 47.2068 49.9676C44.4595 49.9676 42.2314 47.7408 42.2314 44.995C42.2314 42.2493 44.4569 40.0225 47.2068 40.0225Z" fill="#6F2B8C"/>
</g>
<g id="Group_9">
<path id="Vector_9" d="M72.5213 26.8508C75.2686 26.8508 77.4967 29.0776 77.4967 31.8234C77.4967 34.5692 75.2686 36.7961 72.5213 36.7961C69.774 36.7961 67.5459 34.5692 67.5459 31.8234C67.5459 29.0776 69.7714 26.8508 72.5213 26.8508Z" fill="#6F2B8C"/>
</g>
<g id="Group_10">
<path id="Vector_10" d="M47.2068 0.515259C49.9541 0.515259 52.1822 2.74205 52.1822 5.48784C52.1822 8.23363 49.9541 10.4605 47.2068 10.4605C44.4595 10.4605 42.2314 8.23363 42.2314 5.48784C42.2314 2.74205 44.4569 0.515259 47.2068 0.515259Z" fill="#6F2B8C"/>
</g>
<g id="Group_11">
<path id="Vector_11" d="M16.5442 17.7417H12.8479C11.8272 17.7417 11.001 18.5675 11.001 19.585C11.001 20.6025 11.8272 21.4283 12.8479 21.4283H16.5442C17.5649 21.4283 18.3911 20.6025 18.3911 19.585C18.3937 18.5675 17.5649 17.7417 16.5442 17.7417Z" fill="#6F2B8C"/>
</g>
<g id="Group_12">
<path id="Vector_12" d="M32.0869 17.7417H23.9319C22.9112 17.7417 22.085 18.5675 22.085 19.585C22.085 20.6025 22.9112 21.4283 23.9319 21.4283H32.0869C33.1075 21.4283 33.9338 20.6025 33.9338 19.585C33.9338 18.5675 33.1075 17.7417 32.0869 17.7417Z" fill="#6F2B8C"/>
</g>
<g id="Group_13">
<path id="Vector_13" d="M46.1535 17.7417H39.4719C38.4512 17.7417 37.625 18.5675 37.625 19.585C37.625 20.6025 38.4512 21.4283 39.4719 21.4283H46.1535C47.1742 21.4283 48.0004 20.6025 48.0004 19.585C48.0004 18.5675 47.1742 17.7417 46.1535 17.7417Z" fill="#6F2B8C"/>
</g>
<g id="Group_14">
<path id="Vector_14" d="M5.46256 24.1587H2.34689C1.32624 24.1587 0.5 24.9845 0.5 26.002C0.5 27.0195 1.32624 27.8454 2.34689 27.8454H5.46256C6.48321 27.8454 7.30945 27.0195 7.30945 26.002C7.30945 24.9845 6.48321 24.1587 5.46256 24.1587Z" fill="#6F2B8C"/>
</g>
<g id="Group_15">
<path id="Vector_15" d="M33.8212 24.1587H12.8479C11.8272 24.1587 11.001 24.9845 11.001 26.002C11.001 27.0195 11.8272 27.8454 12.8479 27.8454H33.8212C34.8418 27.8454 35.6681 27.0195 35.6681 26.002C35.6706 24.9845 34.8418 24.1587 33.8212 24.1587Z" fill="#6F2B8C"/>
</g>
<g id="Group_16">
<path id="Vector_16" d="M43.05 26.002C43.05 24.9845 42.2238 24.1587 41.2057 24.1587C40.1876 24.1587 39.3613 24.9845 39.3613 26.002C39.3613 27.0195 40.1876 27.8454 41.2057 27.8454C42.2238 27.8454 43.05 27.0195 43.05 26.002Z" fill="#6F2B8C"/>
</g>
<g id="Group_17">
<path id="Vector_17" d="M48.8003 30.829H31.132C30.1114 30.829 29.2852 31.6548 29.2852 32.6723C29.2852 33.6898 30.1114 34.5156 31.132 34.5156H48.8003C49.821 34.5156 50.6473 33.6898 50.6473 32.6723C50.6473 31.6548 49.821 30.829 48.8003 30.829Z" fill="#6F2B8C"/>
</g>
<g id="Group_18">
<path id="Vector_18" d="M24.9007 30.829H11.6936C10.6729 30.829 9.84668 31.6548 9.84668 32.6723C9.84668 33.6898 10.6729 34.5156 11.6936 34.5156H24.9007C25.9213 34.5156 26.7476 33.6898 26.7476 32.6723C26.7476 31.6548 25.9213 30.829 24.9007 30.829Z" fill="#6F2B8C"/>
</g>
</g>
</svg>
