<svg width="86" height="41" viewBox="0 0 86 41" fill="none" xmlns="http://www.w3.org/2000/svg">
<g id="Group">
<g id="Not_Used_00000088121522898449736620000006710656155831498642_">
<g id="Group_2">
<g id="Group_3">
<g id="Group_4">
<path id="Vector" d="M25.6886 25.6623C25.4328 24.1565 25.2845 22.4768 25.287 20.6207H22.1943C22.1943 20.6463 22.1943 20.6642 22.1943 20.6898C22.1943 22.4078 22.3248 24.0747 22.5678 25.6649H25.6886V25.6623Z" fill="#6F2B8C"/>
</g>
<g id="Group_5">
<path id="Vector_2" d="M76.7061 0.773804H65.9061C63.719 0.773804 61.7135 2.15693 60.107 4.67774L31.718 4.463C29.7304 1.46666 27.5791 0.773804 26.0648 0.773804C25.9957 0.773804 25.9343 0.799381 25.8755 0.817277C25.8141 0.809607 25.7552 0.773804 25.6861 0.773804C25.5915 0.773804 25.4969 0.799364 25.4022 0.799364C25.3511 0.799364 25.3076 0.773804 25.2564 0.773804H14.4641C11.6605 0.773804 9.14336 3.01339 7.39622 7.06816C6.73113 8.62513 6.19397 10.4045 5.79492 12.3246H6.44979C7.27604 12.3246 8.1048 12.3169 8.93104 12.3169C10.1384 7.10652 12.369 3.86729 14.4462 3.86729H20.5394C19.8667 4.7621 19.2374 5.82308 18.6951 7.0886C18.0326 8.63023 17.5056 10.4045 17.1091 12.3169C17.2805 12.3169 17.4621 12.3246 17.636 12.3246H20.1378C21.3682 7.01449 23.6423 3.70622 25.7501 3.70622C25.8192 3.70622 25.8806 3.68067 25.9445 3.66278C26.0059 3.67045 26.0673 3.70622 26.1389 3.70622C26.937 3.70622 27.6661 4.17153 28.2723 4.76722C26.648 5.49585 25.2155 7.14486 24.1437 9.62988C23.7933 10.4557 23.4939 11.3684 23.2305 12.3246H26.4715C27.4896 9.20038 28.9655 7.44397 30.1678 7.44397H30.8764C30.8764 7.44397 30.9097 7.55136 30.9276 7.55136C30.9455 7.55136 30.9711 7.60504 30.9711 7.60504L58.5799 7.81214C57.1858 11.3505 56.4004 15.8603 56.4004 20.6693C56.4004 25.4783 57.2267 30.369 58.7334 33.9585L37.4327 33.7923C37.3457 33.933 37.2484 34.0634 37.1333 34.1784C36.2738 35.0451 35.4757 35.9757 34.6521 36.8884L60.3552 37.052H60.3808C60.3808 37.052 60.3885 37.052 60.3987 37.052C61.9412 39.2686 63.8162 40.4676 65.8549 40.4676H76.724C82.0012 40.4676 85.9739 31.9388 85.9739 20.613C85.9764 9.28729 81.9859 0.773804 76.7061 0.773804ZM65.8549 37.3767C62.8288 37.3767 59.4497 30.4943 59.4497 20.6207C59.4497 10.7497 62.8185 3.86473 65.8549 3.86473H71.6643C69.1139 7.31103 67.4844 13.3932 67.4844 20.6207C67.4844 27.8482 69.1139 33.9304 71.6643 37.3767H65.8549ZM76.7164 37.3869C75.3555 37.3869 73.8463 35.7328 72.6824 32.9666C71.3036 29.7018 70.5438 25.3172 70.5438 20.631C70.5438 11.0411 73.8028 3.87497 76.7164 3.87497C78.0772 3.87497 79.5864 5.5291 80.7503 8.29534C82.1291 11.5601 82.8889 15.9447 82.8889 20.631C82.8889 30.2182 79.63 37.3869 76.7164 37.3869Z" fill="#6F2B8C"/>
</g>
</g>
<g id="Group_6">
<g id="Group_7">
<g id="Group_8">
<path id="Vector_3" d="M36.6834 30.5864C36.7806 30.3512 36.7959 30.0981 36.7627 29.8553C36.755 29.7939 36.7371 29.7427 36.7192 29.689C36.668 29.4794 36.5709 29.2877 36.4225 29.1138C36.4046 29.0882 36.4045 29.0524 36.379 29.0269L31.7413 24.2588C31.1734 23.6836 30.2499 23.6657 29.6744 24.2332C29.0988 24.8008 29.081 25.7238 29.6488 26.299L31.8717 28.5897H6.3477C5.66471 28.5897 5.04565 29.0474 4.89473 29.7121C4.67985 30.6708 5.39868 31.5171 6.32213 31.5171H32.0099L29.6207 34.1145C29.0707 34.7077 29.1142 35.6306 29.7077 36.1803C29.9865 36.4334 30.3446 36.5638 30.6925 36.5638C31.0838 36.5638 31.4855 36.4078 31.7745 36.0934L36.4123 31.0466C36.5069 30.9418 36.5606 30.8191 36.622 30.6989C36.6399 30.6733 36.6655 30.6554 36.6834 30.6299C36.6834 30.6043 36.6834 30.5966 36.6834 30.5864Z" fill="#6F2B8C"/>
</g>
</g>
<g id="Group_9">
<g id="Group_10">
<path id="Vector_4" d="M45.6332 17.085C45.7279 16.8497 45.7457 16.5966 45.7099 16.3538C45.7022 16.2924 45.6843 16.2413 45.6664 16.1876C45.6153 15.9779 45.5206 15.7862 45.3723 15.6123C45.3544 15.5868 45.3543 15.551 45.3288 15.5254L40.7422 10.7574C40.182 10.1821 39.2688 10.1642 38.6984 10.7318C38.1305 11.2993 38.1125 12.2223 38.6728 12.7975L40.8701 15.0882H4.93234C4.24678 15.0882 3.62517 15.5459 3.47936 16.2157C3.2696 17.1744 3.98074 18.0156 4.8914 18.0156H41.0083L38.6472 20.613C38.1049 21.2062 38.1484 22.1291 38.7341 22.6788C39.0104 22.9319 39.3634 23.0623 39.7088 23.0623C40.0976 23.0623 40.4941 22.9063 40.778 22.5919L45.3646 17.5451C45.4592 17.4403 45.5104 17.3176 45.5718 17.1974C45.5897 17.1719 45.6153 17.154 45.6332 17.1284C45.6332 17.1028 45.6332 17.0952 45.6332 17.085Z" fill="#6F2B8C"/>
</g>
</g>
<g id="Group_11">
<g id="Group_12">
<g id="Group_13">
<path id="Vector_5" d="M17.3595 24.6882H2.20573C1.46902 24.6882 0.865334 24.0696 0.906263 23.3154C0.944633 22.6174 1.55601 22.0856 2.25691 22.0856H17.3595C18.0732 22.0856 18.6615 22.666 18.6615 23.387C18.6615 24.1003 18.0835 24.6882 17.3595 24.6882Z" fill="#6F2B8C"/>
</g>
</g>
</g>
<g id="Group_14">
<g id="Group_15">
<g id="Group_16">
<path id="Vector_6" d="M25.6707 38.5144H1.36173C0.568744 38.5144 -0.0733334 37.8369 0.03922 37.0316C0.128751 36.3796 0.719654 35.9092 1.37963 35.9092H25.6707C26.4023 35.9092 27.006 36.4895 27.006 37.2105C26.9958 37.9366 26.4023 38.5144 25.6707 38.5144Z" fill="#6F2B8C"/>
</g>
</g>
</g>
</g>
</g>
</g>
</g>
</svg>
