<svg width="54" height="59" viewBox="0 0 54 59" fill="none" xmlns="http://www.w3.org/2000/svg">
<g id="Layer_1" clip-path="url(#clip0_2477_12307)">
<path id="Vector" d="M27.0007 58.8692C24.496 58.8692 22.4589 56.8672 22.4589 54.4057C22.4589 54.0692 22.4968 53.7361 22.5738 53.4098L15.3812 49.3291L8.18755 45.2462C7.35111 46.0095 6.24236 46.4408 5.09799 46.4408C2.59554 46.4408 0.55957 44.44 0.55957 41.9808C0.55957 40.0308 1.88892 38.2885 3.76518 37.7183V21.3933C1.89007 20.8231 0.55957 19.0809 0.55957 17.1309C0.55957 14.6694 2.59669 12.6674 5.09913 12.6674C6.24465 12.6674 7.35226 13.0999 8.1887 13.862L15.3824 9.7791L22.5749 5.69842C22.4991 5.37097 22.46 5.03675 22.46 4.7014C22.46 2.24215 24.4971 0.241333 27.0019 0.241333C29.5066 0.241333 31.5403 2.24215 31.5403 4.7014C31.5403 5.03788 31.5012 5.3721 31.4254 5.69842L38.6179 9.7791L45.8127 13.8632C46.6492 13.0999 47.7568 12.6674 48.9 12.6674C51.4025 12.6674 53.4384 14.6694 53.4384 17.1309C53.4384 19.0809 52.1091 20.8231 50.234 21.3933V37.7183C52.1102 38.2885 53.4396 40.0308 53.4396 41.9819C53.4396 44.4411 51.4036 46.442 48.9012 46.442C47.7568 46.442 46.6492 46.0095 45.8127 45.2462L38.6179 49.3291L31.4242 53.4087C31.5001 53.7361 31.5391 54.0692 31.5391 54.4057C31.5391 56.8672 29.5032 58.8692 27.0007 58.8692ZM27.0007 52.5686C25.9678 52.5686 25.1268 53.3929 25.1268 54.4068C25.1268 55.4208 25.9678 56.2484 27.0007 56.2484C28.0336 56.2484 28.8724 55.4219 28.8724 54.4068C28.8724 53.3917 28.0325 52.5686 27.0007 52.5686ZM16.7152 47.0585L23.91 51.1403C24.4144 50.6796 25.0119 50.3397 25.6668 50.1432V41.1475C23.5734 41.0108 21.6638 40.5614 20.1253 39.8388C18.434 39.0439 17.3437 37.9938 16.9369 36.7766L9.52495 40.9826C9.60078 41.3101 9.63985 41.6443 9.63985 41.9796C9.63985 42.315 9.60078 42.6503 9.52495 42.9767L16.7152 47.0573V47.0585ZM28.3347 50.1432C28.9873 50.3408 29.5847 50.6796 30.088 51.1403L37.284 47.0585L44.4753 42.9755C44.3995 42.6492 44.3604 42.3161 44.3604 41.9808C44.3604 41.6454 44.3995 41.3112 44.4753 40.986L37.0622 36.7789C36.6555 37.9961 35.5663 39.0461 33.8761 39.8388C32.3342 40.5614 30.4258 41.012 28.3358 41.1475V50.1432H28.3347ZM48.9012 40.1437C47.8694 40.1437 47.0295 40.9679 47.0295 41.9819C47.0295 42.9958 47.8694 43.8201 48.9012 43.8201C49.9329 43.8201 50.7728 42.9958 50.7728 41.9819C50.7728 40.9679 49.9329 40.1437 48.9012 40.1437ZM5.09799 40.1437C4.06621 40.1437 3.22632 40.9679 3.22632 41.9819C3.22632 42.9958 4.06621 43.8201 5.09799 43.8201C6.12976 43.8201 6.97195 42.9958 6.97195 41.9819C6.97195 40.9679 6.13091 40.1437 5.09799 40.1437ZM45.8116 38.7164C46.3137 38.2558 46.9111 37.9159 47.5661 37.7194V21.3956C46.9123 21.198 46.3148 20.8581 45.8116 20.3974L37.2426 25.2583V33.8544L45.8116 38.7176V38.7164ZM6.43193 37.7183C7.08684 37.9159 7.68546 38.2546 8.1887 38.7153L16.7565 33.8521V25.2561L8.1887 20.3963C7.68431 20.857 7.0857 21.1969 6.43193 21.3945V37.7194V37.7183ZM19.4233 35.6983C19.4233 36.8421 22.4451 38.5708 27.0007 38.5708C31.5564 38.5708 34.5747 36.8421 34.5747 35.6983V33.3587C34.353 33.4863 34.1186 33.6083 33.875 33.7223C32.0171 34.5951 29.5756 35.075 27.0007 35.075C24.4259 35.075 21.9832 34.5951 20.1253 33.7223C19.8806 33.6083 19.6462 33.4863 19.4233 33.3576V35.6983ZM19.4244 29.5818C19.4244 30.7256 22.4462 32.4543 27.0019 32.4543C31.5575 32.4543 34.5759 30.7256 34.5759 29.5818V27.1824C34.3518 27.3111 34.1163 27.4342 33.8692 27.5493C32.0068 28.4233 29.5675 28.9043 27.0019 28.9043C24.4362 28.9043 21.9935 28.4233 20.1311 27.5493C19.884 27.433 19.6473 27.3111 19.4244 27.1824V29.5818ZM27.0007 20.5408C22.4462 20.5408 19.4244 22.2695 19.4233 23.4133C19.4233 24.5549 22.4451 26.2825 27.0007 26.2825C31.5564 26.2825 34.5747 24.556 34.5747 23.4133C34.5747 22.2707 31.5541 20.5408 27.0007 20.5408ZM16.9392 22.3316C17.3529 21.1269 18.4639 20.0564 20.1311 19.2751C21.6753 18.5513 23.5825 18.0997 25.6679 17.9642V8.96838C25.013 8.77078 24.4144 8.43091 23.91 7.9691L16.7152 12.0509L9.5261 16.1316C9.60308 16.4579 9.641 16.7933 9.641 17.132C9.641 17.4707 9.60193 17.8016 9.5261 18.1279L16.9392 22.3328V22.3316ZM28.3335 17.9642C30.42 18.1008 32.3262 18.5513 33.8681 19.2751C35.5605 20.07 36.6532 21.1178 37.0611 22.3305L44.4753 18.1256C44.3995 17.7993 44.3616 17.4651 44.3616 17.1309C44.3616 16.7966 44.4007 16.4602 44.4765 16.1327L37.284 12.0498L30.0891 7.9691C29.5859 8.43091 28.9884 8.77078 28.3335 8.96838V17.9642ZM48.9012 15.2893C47.8694 15.2893 47.0295 16.1158 47.0295 17.1309C47.0295 18.146 47.8694 18.9691 48.9012 18.9691C49.9329 18.9691 50.7728 18.1448 50.7728 17.1309C50.7728 16.1169 49.9329 15.2893 48.9012 15.2893ZM5.09913 15.2893C4.06736 15.2893 3.22747 16.1158 3.22747 17.1309C3.22747 18.146 4.06736 18.9691 5.09913 18.9691C6.13091 18.9691 6.9731 18.1448 6.9731 17.1309C6.9731 16.1169 6.13205 15.2893 5.09913 15.2893ZM27.0007 2.86317C25.9678 2.86317 25.1268 3.68744 25.1268 4.7014C25.1268 5.71536 25.9678 6.54301 27.0007 6.54301C28.0336 6.54301 28.8724 5.71649 28.8724 4.7014C28.8724 3.68631 28.0325 2.86317 27.0007 2.86317Z" fill="#6F2B8C"/>
</g>
<defs>
<clipPath id="clip0_2477_12307">
<rect width="52.88" height="58.6278" fill="white" transform="translate(0.55957 0.241333)"/>
</clipPath>
</defs>
</svg>
