<svg width="54" height="72" viewBox="0 0 54 72" fill="none" xmlns="http://www.w3.org/2000/svg">
<g id="Group 1000002058">
<g id="AI_x2F_ML_vert_00000057141352616322835740000001989642854606122911_">
<g id="Group">
<path id="Vector" d="M39.0575 56.3321H32.9669C32.0613 56.3321 31.3272 55.5983 31.3272 54.6933V53.4713C31.3272 49.8025 29.2321 48.1663 16.8155 48.1663H12.4668C7.89048 48.1663 3.81809 45.6583 1.84329 41.6214C-0.141746 37.5692 0.35709 32.8241 3.14279 29.2423C8.15653 22.7971 16.0659 19.246 25.413 19.246C37.7401 19.246 47.8239 25.7985 51.73 36.3445C52.7379 39.0699 52.3926 41.9563 50.7861 44.2649C49.2001 46.5403 46.7649 47.7419 43.7439 47.7419C42.8588 47.7419 40.7842 47.7419 40.7842 52.4154C40.7842 52.4358 40.7842 52.4563 40.7842 52.4767L40.6972 54.7496C40.664 55.6367 39.94 56.3321 39.0575 56.3321ZM34.5989 53.0545H37.4792L37.5048 52.3872C37.5099 49.6312 38.1571 47.5501 39.4259 46.2003C40.4926 45.0677 41.9839 44.4669 43.7439 44.4669C45.6726 44.4669 47.1358 43.7689 48.0925 42.396C49.0927 40.9592 49.2922 39.2131 48.6527 37.4848C45.2352 28.258 36.3307 22.5287 25.413 22.5287C17.1019 22.5287 10.1109 25.6298 5.73407 31.2569C3.72346 33.8416 3.36276 37.2624 4.79014 40.182C6.21241 43.0863 9.15415 44.8887 12.4668 44.8887H16.8155C22.1976 44.8887 26.3953 45.1086 29.3959 46.19C32.7188 47.384 34.4659 49.6926 34.5989 53.0545Z" fill="#6F2B8C"/>
</g>
<g id="Group_2">
<path id="Vector_2" d="M36.0555 36.8022C35.8483 36.8022 35.6386 36.7996 35.4263 36.7919C34.9735 36.7766 34.6179 36.3982 34.6333 35.9457C34.6486 35.4932 35.0298 35.1353 35.48 35.1532C37.4829 35.2196 42.3764 34.9742 44.5943 31.2518C44.827 30.8632 45.3284 30.7354 45.7198 30.968C46.1086 31.2007 46.2365 31.7017 46.0037 32.0929C44.2105 35.102 40.6037 36.8022 36.0555 36.8022Z" fill="#6F2B8C"/>
</g>
<g id="Group_3">
<path id="Vector_3" d="M27.4905 36.7919C27.1042 36.7919 26.7589 36.5184 26.6847 36.1247C26.5952 35.6543 25.8482 31.4768 26.828 29.6258C27.2859 28.7617 28.5776 28.8077 31.2201 28.9841C32.3482 29.0582 34.213 29.1835 34.7092 28.9867C34.8934 28.6543 34.8013 28.0126 34.6888 27.2124C34.5839 26.4633 34.4509 25.5327 34.5072 24.4845C34.5328 24.032 34.919 23.6868 35.3718 23.7098C35.8245 23.7354 36.1699 24.1214 36.1469 24.574C36.0983 25.4611 36.2134 26.269 36.3131 26.9823C36.4717 28.1097 36.6227 29.1758 35.9831 30.0297C35.359 30.8606 33.8063 30.7993 31.1101 30.6203C30.1381 30.5564 28.7107 30.4592 28.1991 30.5641C27.7642 31.7018 28.0149 34.3427 28.2937 35.8205C28.3781 36.2653 28.0839 36.6948 27.6388 36.7766C27.5902 36.7869 27.5391 36.7919 27.4905 36.7919Z" fill="#6F2B8C"/>
</g>
<g id="Group_4">
<path id="Vector_4" d="M39.2435 40.7112C38.8393 40.7112 38.4888 40.4121 38.4326 40.003C38.4172 39.8957 38.0744 37.3339 38.2407 35.621C38.2842 35.171 38.6884 34.8412 39.136 34.8847C39.5862 34.9282 39.9162 35.3296 39.8727 35.7795C39.7244 37.3033 40.0544 39.7576 40.0569 39.7832C40.1183 40.2306 39.8037 40.6447 39.356 40.7061C39.3176 40.7087 39.2793 40.7112 39.2435 40.7112Z" fill="#6F2B8C"/>
</g>
<g id="Group_5">
<path id="Vector_5" d="M27.2023 42.6798C24.8515 42.6798 19.3747 36.1451 18.4308 34.2609C17.1595 31.7222 16.6172 28.5596 16.6172 23.6893C16.6172 23.2368 16.9855 22.8687 17.4383 22.8687C17.8911 22.8687 18.2595 23.2368 18.2595 23.6893C18.2595 29.4724 19.0882 31.9088 19.9017 33.5272C21.0477 35.8153 26.0998 41.0129 27.2074 41.041C27.6551 41.0538 28.0235 41.4219 28.0158 41.8719C28.0081 42.3218 27.6525 42.6798 27.2023 42.6798Z" fill="#6F2B8C"/>
</g>
<g id="Group_6">
<path id="Vector_6" d="M13.9643 35.9099C13.5396 35.9099 13.1815 35.5826 13.1483 35.1531C13.0255 33.5987 11.6825 32.3639 10.1221 30.9347C9.42376 30.293 8.69986 29.6309 8.02965 28.8843C7.7278 28.5469 7.75594 28.0304 8.09104 27.7262C8.4287 27.4245 8.94543 27.4526 9.24984 27.7875C9.86632 28.4753 10.5595 29.1093 11.2298 29.7229C12.9667 31.3157 14.6089 32.8215 14.7803 35.0202C14.8161 35.4727 14.4784 35.8664 14.0257 35.9022C14.0078 35.9099 13.9847 35.9099 13.9643 35.9099Z" fill="#6F2B8C"/>
</g>
<g id="Group_7">
<path id="Vector_7" d="M21.118 46.7396C20.6652 46.7396 20.2969 46.3715 20.2969 45.919C20.2969 42.6286 21.9417 39.6732 23.0519 38.7119C23.3947 38.4153 23.9114 38.4537 24.2081 38.7937C24.5048 39.1363 24.4665 39.6527 24.1237 39.9493C23.3844 40.5885 21.9366 43.0735 21.9366 45.9164C21.9366 46.3741 21.5708 46.7396 21.118 46.7396Z" fill="#6F2B8C"/>
</g>
<g id="Group_8">
<path id="Vector_8" d="M25.6098 27.4859C25.3156 27.4859 25.0342 27.3274 24.8858 27.0512C24.2745 25.9059 24.3793 23.4822 24.4075 23.0093C24.4331 22.5568 24.8219 22.2116 25.2721 22.2372C25.7249 22.2627 26.0702 22.6513 26.0446 23.1013C25.9884 24.0907 26.0395 25.7295 26.3337 26.2791C26.546 26.678 26.3951 27.174 25.996 27.3887C25.8707 27.4552 25.7402 27.4859 25.6098 27.4859Z" fill="#6F2B8C"/>
</g>
<g id="Group_9">
<path id="Vector_9" d="M5.98354 43.8072C5.78145 43.8072 5.57679 43.7331 5.41819 43.5822C5.09076 43.2703 5.07798 42.7513 5.39006 42.4241C6.87627 40.8646 8.89968 39.0724 11.3733 39.0724C11.8261 39.0724 12.1944 39.4405 12.1944 39.893C12.1944 40.3456 11.8261 40.7137 11.3733 40.7137C9.52128 40.7137 7.8381 42.2324 6.57699 43.5567C6.41583 43.7229 6.19841 43.8072 5.98354 43.8072Z" fill="#6F2B8C"/>
</g>
<g id="Group_10">
<path id="Vector_10" d="M38.6696 48.289C38.5084 48.289 38.3447 48.2404 38.2015 48.1407C36.6692 47.0721 32.6659 43.8431 32.5482 41.739C32.5226 41.2865 32.868 40.9004 33.3207 40.8749C33.7735 40.8493 34.1598 41.1944 34.1854 41.647C34.2365 42.5546 36.6462 45.0574 39.1403 46.7959C39.5112 47.0542 39.6032 47.5655 39.3449 47.9362C39.1837 48.1663 38.9279 48.289 38.6696 48.289Z" fill="#6F2B8C"/>
</g>
<g id="Group_11">
<path id="Vector_11" d="M21.5985 20.964C21.1457 20.964 20.7774 20.5958 20.7774 20.1433V14.6773H17.4852C17.0324 14.6773 16.6641 14.3091 16.6641 13.8566V9.96803C16.6641 9.51551 17.0324 9.14734 17.4852 9.14734C17.938 9.14734 18.3063 9.51551 18.3063 9.96803V13.0385H21.5985C22.0513 13.0385 22.4196 13.4067 22.4196 13.8592V20.1459C22.4196 20.5958 22.0513 20.964 21.5985 20.964Z" fill="#6F2B8C"/>
</g>
<g id="Group_12">
<path id="Vector_12" d="M21.5946 63.1556C21.1418 63.1556 20.7734 62.7875 20.7734 62.335V47.7291C20.7734 47.2766 21.1418 46.9084 21.5946 46.9084C22.0473 46.9084 22.4157 47.2766 22.4157 47.7291V62.335C22.4157 62.7901 22.0473 63.1556 21.5946 63.1556Z" fill="#6F2B8C"/>
</g>
<g id="Group_13">
<path id="Vector_13" d="M9.56339 55.854C9.56083 55.854 9.55571 55.854 9.55315 55.854C9.10038 55.8488 8.73712 55.4756 8.74224 55.0231L8.78318 51.7838C8.78829 51.3364 9.15408 50.9734 9.6043 50.9734H16.667V46.576C16.667 46.1235 17.0354 45.7554 17.4882 45.7554C17.9409 45.7554 18.3093 46.1235 18.3093 46.576V51.7941C18.3093 52.2466 17.9409 52.6147 17.4882 52.6147H10.4152L10.3845 55.0461C10.3768 55.4935 10.011 55.854 9.56339 55.854Z" fill="#6F2B8C"/>
</g>
<g id="Group_14">
<path id="Vector_14" d="M17.4742 10.3745C14.6962 10.3745 12.4375 8.11708 12.4375 5.34061C12.4375 2.56414 14.6962 0.306641 17.4742 0.306641C20.2523 0.306641 22.511 2.56414 22.511 5.34061C22.511 8.11708 20.2523 10.3745 17.4742 10.3745ZM17.4742 2.79165C16.0673 2.79165 14.9239 3.93448 14.9239 5.34061C14.9239 6.74674 16.0673 7.88954 17.4742 7.88954C18.8812 7.88954 20.0246 6.74674 20.0246 5.34061C20.0246 3.93448 18.8812 2.79165 17.4742 2.79165Z" fill="#6F2B8C"/>
</g>
<g id="Group_15">
<path id="Vector_15" d="M17.4868 22.7792C17.0341 22.7792 16.6657 22.411 16.6657 21.9585V18.0878H5.30549C4.85272 18.0878 4.48438 17.7197 4.48438 17.2671V12.8826C4.48438 12.4301 4.85272 12.0619 5.30549 12.0619C5.75826 12.0619 6.12661 12.4301 6.12661 12.8826V16.4465H17.4868C17.9396 16.4465 18.308 16.8146 18.308 17.2671V21.9585C18.308 22.411 17.9396 22.7792 17.4868 22.7792Z" fill="#6F2B8C"/>
</g>
<g id="Group_16">
<path id="Vector_16" d="M5.34925 14.1251C2.57123 14.1251 0.3125 11.8676 0.3125 9.09113C0.3125 6.31466 2.57123 4.05719 5.34925 4.05719C8.12727 4.05719 10.386 6.31466 10.386 9.09113C10.386 11.8676 8.12471 14.1251 5.34925 14.1251ZM5.34925 6.5422C3.94233 6.5422 2.7989 7.685 2.7989 9.09113C2.7989 10.4973 3.94233 11.6401 5.34925 11.6401C6.75617 11.6401 7.89963 10.4973 7.89963 9.09113C7.89963 7.685 6.75617 6.5422 5.34925 6.5422Z" fill="#6F2B8C"/>
</g>
<g id="Group_17">
<path id="Vector_17" d="M25.6258 20.9487C25.173 20.9487 24.8047 20.5806 24.8047 20.1281V13.8593C24.8047 13.4067 25.173 13.0386 25.6258 13.0386H38.9148V9.41844C38.9148 8.96592 39.2831 8.59778 39.7359 8.59778C40.1887 8.59778 40.557 8.96592 40.557 9.41844V13.8567C40.557 14.3092 40.1887 14.6774 39.7359 14.6774H26.447V20.1281C26.447 20.5806 26.0786 20.9487 25.6258 20.9487Z" fill="#6F2B8C"/>
</g>
<g id="Group_18">
<path id="Vector_18" d="M29.4774 20.9487C29.0246 20.9487 28.6562 20.5806 28.6562 20.128V17.2672C28.6562 16.8147 29.0246 16.4465 29.4774 16.4465H43.8612C44.3139 16.4465 44.6823 16.8147 44.6823 17.2672C44.6823 17.7197 44.3139 18.0879 43.8612 18.0879H30.2959V20.128C30.2959 20.5806 29.9301 20.9487 29.4774 20.9487Z" fill="#6F2B8C"/>
</g>
<g id="Group_19">
<path id="Vector_19" d="M48.154 22.4545C45.3759 22.4545 43.1172 20.197 43.1172 17.4206C43.1172 14.6441 45.3759 12.3866 48.154 12.3866C50.932 12.3866 53.1907 14.6441 53.1907 17.4206C53.1907 20.197 50.9294 22.4545 48.154 22.4545ZM48.154 14.8716C46.7471 14.8716 45.6036 16.0144 45.6036 17.4206C45.6036 18.8267 46.7471 19.9695 48.154 19.9695C49.5609 19.9695 50.7043 18.8267 50.7043 17.4206C50.7043 16.0144 49.5609 14.8716 48.154 14.8716Z" fill="#6F2B8C"/>
</g>
<g id="Group_20">
<path id="Vector_20" d="M39.7321 10.5561C36.954 10.5561 34.6953 8.2986 34.6953 5.52213C34.6953 2.74566 36.954 0.488159 39.7321 0.488159C42.5101 0.488159 44.7688 2.74566 44.7688 5.52213C44.7688 8.2986 42.5101 10.5561 39.7321 10.5561ZM39.7321 2.9732C38.3251 2.9732 37.1817 4.116 37.1817 5.52213C37.1817 6.92826 38.3251 8.07105 39.7321 8.07105C41.139 8.07105 42.2824 6.92826 42.2824 5.52213C42.2824 4.116 41.139 2.9732 39.7321 2.9732Z" fill="#6F2B8C"/>
</g>
<g id="Group_21">
<path id="Vector_21" d="M21.5992 71.5234C18.8212 71.5234 16.5625 69.2659 16.5625 66.4894C16.5625 63.7129 18.8212 61.4554 21.5992 61.4554C24.3773 61.4554 26.636 63.7129 26.636 66.4894C26.636 69.2659 24.3773 71.5234 21.5992 71.5234ZM21.5992 63.9405C20.1923 63.9405 19.0489 65.0833 19.0489 66.4894C19.0489 67.8955 20.1923 69.0383 21.5992 69.0383C23.0062 69.0383 24.1496 67.8955 24.1496 66.4894C24.1496 65.0833 23.0062 63.9405 21.5992 63.9405Z" fill="#6F2B8C"/>
</g>
<g id="Group_22">
<path id="Vector_22" d="M36.4386 63.1556C35.9858 63.1556 35.6175 62.7875 35.6175 62.335V59.9369L25.6258 59.9625H25.6232C25.4058 59.9625 25.1986 59.8755 25.0451 59.7221C24.8916 59.5687 24.8047 59.3591 24.8047 59.1418V47.7291C24.8047 47.2766 25.173 46.9084 25.6258 46.9084C26.0786 46.9084 26.447 47.2766 26.447 47.7291V58.3186L36.4386 58.293H36.4412C36.6586 58.293 36.8658 58.3799 37.0193 58.5333C37.1728 58.6867 37.2597 58.8964 37.2597 59.1137V62.335C37.2572 62.7901 36.8914 63.1556 36.4386 63.1556Z" fill="#6F2B8C"/>
</g>
<g id="Group_23">
<path id="Vector_23" d="M36.2477 71.7074C33.4697 71.7074 31.2109 69.4499 31.2109 66.6735C31.2109 63.897 33.4697 61.6395 36.2477 61.6395C39.0257 61.6395 41.2845 63.897 41.2845 66.6735C41.2845 69.4499 39.0232 71.7074 36.2477 71.7074ZM36.2477 64.1245C34.8408 64.1245 33.6973 65.2673 33.6973 66.6735C33.6973 68.0796 34.8408 69.2224 36.2477 69.2224C37.6546 69.2224 38.798 68.0796 38.798 66.6735C38.798 65.2673 37.6546 64.1245 36.2477 64.1245Z" fill="#6F2B8C"/>
</g>
<g id="Group_24">
<path id="Vector_24" d="M9.54903 64.1783C8.51047 64.1783 7.50004 63.8587 6.63798 63.2426C5.54315 62.4628 4.81667 61.3021 4.59412 59.9778C4.37157 58.6509 4.67854 57.3189 5.45874 56.2247C6.23894 55.1304 7.40029 54.4044 8.72535 54.1819C11.4624 53.7218 14.0665 55.5753 14.5269 58.3109C14.7495 59.6377 14.4425 60.9697 13.6623 62.064C12.8821 63.1582 11.7208 63.8843 10.3957 64.1067C10.1118 64.1553 9.83041 64.1783 9.54903 64.1783ZM9.56695 56.5928C9.4237 56.5928 9.28044 56.6056 9.13975 56.6286C8.46698 56.7411 7.8812 57.1093 7.48471 57.664C7.08821 58.2188 6.93471 58.8938 7.04726 59.5662C7.15982 60.2385 7.52819 60.8266 8.08328 61.2203C8.63837 61.6166 9.31368 61.7699 9.98644 61.6574C10.6592 61.545 11.245 61.1768 11.6415 60.622C12.038 60.0673 12.1915 59.3923 12.0789 58.7199C11.9664 58.0475 11.598 57.4621 11.0429 57.0658C10.6029 56.7564 10.0913 56.5928 9.56695 56.5928Z" fill="#6F2B8C"/>
</g>
</g>
</g>
</svg>
