<svg width="49" height="49" viewBox="0 0 49 49" fill="none" xmlns="http://www.w3.org/2000/svg">
<g id="Group 1000002063">
<g id="Group">
<path id="Vector" d="M47.7264 32.9959C46.7138 31.558 44.7725 31.1213 43.227 31.9721L34.1218 37.0086C34.1522 36.8204 34.1751 36.6322 34.1751 36.4365C34.1751 34.6146 32.6753 33.139 30.8406 33.139H25.7474C24.7806 33.139 23.7909 32.8378 22.8849 32.2581C21.5755 31.43 19.695 30.9482 17.7232 30.9482C15.2566 30.9482 13.026 31.6709 11.7622 32.8755C10.8867 33.7111 9.66099 34.1704 8.32109 34.1704H5.4738V33.3573C5.4738 33.0486 5.21496 32.7927 4.90282 32.7927H0.570981C0.258844 32.7927 0 33.0486 0 33.3573V47.5561C0 47.8647 0.258844 48.1207 0.570981 48.1207H4.90282C5.21496 48.1207 5.4738 47.8647 5.4738 47.5561V46.8936C12.6605 44.8006 21.3471 46.6903 21.4689 46.7129C21.7506 46.7581 22.0322 46.7957 22.3063 46.8258C27.034 47.398 31.9901 46.3515 36.2611 43.8746L46.6377 37.8594C47.4599 37.3851 48.0537 36.5795 48.2593 35.6535C48.4648 34.7275 48.2745 33.7714 47.7264 32.9959ZM4.33184 46.999H1.14196V33.9219H4.33184V34.735V46.4795V46.999ZM47.1478 35.4201C47.0107 36.045 46.6225 36.5644 46.0667 36.8882L35.6901 42.9035C31.6399 45.2524 26.9351 46.2461 22.451 45.7041C22.1845 45.6739 21.918 45.6363 21.6896 45.6062C21.4536 45.5535 17.8298 44.763 13.3 44.763C10.8258 44.763 8.08508 44.9964 5.48141 45.7116V35.2997H8.3287C9.96551 35.2997 11.4729 34.7275 12.5616 33.6886C13.6046 32.6948 15.584 32.0775 17.7308 32.0775C19.4895 32.0775 21.1415 32.4915 22.2759 33.2067C23.3721 33.8994 24.575 34.2683 25.755 34.2683H30.8482C32.0587 34.2683 33.0407 35.2394 33.0407 36.4365C33.0407 37.0463 32.7895 37.5959 32.3784 37.9949C32.3556 38.0175 32.3327 38.0325 32.3099 38.0551C31.9216 38.4014 31.4115 38.6047 30.8482 38.6047H22.2454C21.9333 38.6047 21.6744 38.8606 21.6744 39.1693C21.6744 39.478 21.9333 39.734 22.2454 39.734H30.8482C31.7008 39.734 32.485 39.4178 33.0712 38.8908L43.7904 32.9583C44.8258 32.3861 46.1124 32.6797 46.79 33.6434C47.1554 34.1629 47.2848 34.7952 47.1478 35.4201Z" fill="#F26B66"/>
<path id="Vector_2" d="M10.8358 32.0022C10.8814 32.0022 10.9271 31.9947 10.9728 31.9871C11.2773 31.9118 11.4676 31.6032 11.3839 31.302C11.1251 30.2857 10.9804 29.2844 10.9423 28.2982H18.3803C18.3879 28.652 18.3879 29.0058 18.4032 29.3522C18.4184 29.6533 18.6696 29.8942 18.9741 29.8942H19.0046C19.3167 29.8791 19.5603 29.6157 19.5451 29.307C19.5299 28.9757 19.5299 28.6445 19.5223 28.3057H25.1179V31.4601C25.1179 31.7688 25.3767 32.0248 25.6889 32.0248C26.001 32.0248 26.2598 31.7688 26.2598 31.4601V28.3057H31.8555C31.8326 29.3823 31.7717 30.4814 31.6423 31.5881C31.6042 31.8968 31.8326 32.1753 32.1448 32.213H32.2133C32.5026 32.213 32.7462 32.0022 32.7766 31.7161C32.9137 30.5718 32.9822 29.4274 32.9974 28.3057H40.4354C40.3897 29.322 40.2375 30.3534 39.971 31.3999C39.8949 31.701 40.0776 32.0097 40.3821 32.085C40.4278 32.1001 40.4811 32.1001 40.5267 32.1001C40.778 32.1001 41.014 31.9344 41.0825 31.6785C41.4327 30.3459 41.6078 29.0209 41.6078 27.7411C41.6078 24.0596 40.2907 20.4685 37.8926 17.6453C37.6871 17.4044 37.3293 17.3743 37.0856 17.5776C36.842 17.7808 36.8116 18.1347 37.0171 18.3756C37.3597 18.7821 37.6795 19.2112 37.9764 19.6554H35.1367C34.8246 19.6554 34.5657 19.9114 34.5657 20.2201C34.5657 20.5287 34.8246 20.7847 35.1367 20.7847H38.6615C39.7426 22.7496 40.3516 24.9329 40.443 27.1839H33.005C32.9746 25.2115 32.7843 23.2842 32.4188 21.4547C32.3579 21.1461 32.061 20.9503 31.7489 21.0106C31.4367 21.0708 31.2388 21.3644 31.2997 21.6731C31.6499 23.4272 31.8326 25.2792 31.8631 27.1839H26.2675V20.7245C26.4959 20.2878 26.9526 20.0846 27.6683 20.1523C28.087 20.19 28.6275 20.2351 29.1909 20.2125C32.0077 20.0996 34.1774 19.2037 35.6392 17.5474C37.885 15.0028 37.5881 11.6225 37.5729 11.487C37.4358 9.83072 37.0628 8.9273 36.4233 8.64875C36.0426 8.48312 35.6772 8.58852 35.4564 8.73909C33.9034 9.63498 32.2666 10.1921 31.0637 10.5158C33.4237 5.29856 28.8102 1.43643 28.7645 1.39879C27.4779 0.322214 26.572 -0.0542111 25.9173 0.19423C25.5062 0.352328 25.3234 0.721226 25.3082 0.909438C24.6992 3.22822 23.5344 5.21575 22.9025 6.19445C22.263 7.17316 21.8976 8.25727 21.8443 9.3489C21.8214 9.73285 21.8443 10.1168 21.9052 10.5008C20.8013 10.2071 19.3015 9.70274 17.9159 8.90472C17.7104 8.74662 17.3373 8.62616 16.9491 8.79179C16.34 9.05529 15.9974 9.89095 15.868 11.4117C15.8528 11.5397 15.5863 14.6414 17.6418 16.9753C18.9817 18.4885 20.9688 19.3166 23.5572 19.422C23.6562 19.4296 23.7551 19.4296 23.8541 19.4296C24.2119 19.4296 24.5469 19.407 24.8438 19.3769C24.9504 20.1749 25.1027 20.7094 25.1255 20.7772V20.7847V27.1764H19.5299C19.568 24.8576 19.842 22.5765 20.3369 20.5438C20.3673 20.4158 20.3445 20.2878 20.2912 20.1824C20.276 19.8888 20.0324 19.6479 19.7278 19.6479H13.4394C14.0789 18.6993 14.825 17.8109 15.6929 17.0205C15.9213 16.8097 15.9365 16.4483 15.7234 16.2224C15.5102 15.9966 15.1524 15.9815 14.9164 16.1923C11.658 19.1585 9.78516 23.367 9.78516 27.726C9.78516 28.9757 9.95264 30.2706 10.28 31.5655C10.3485 31.829 10.5845 32.0022 10.8358 32.0022ZM36.0046 9.7178C36.1036 9.85331 36.3319 10.29 36.4385 11.5773C36.4385 11.6075 36.6974 14.6339 34.7713 16.8021C33.5303 18.2024 31.6347 18.9703 29.1452 19.0682C28.658 19.0908 28.1631 19.0456 27.7825 19.0155C27.4856 18.9854 27.2115 19.0005 26.9526 19.0381C27.8434 17.5625 29.5182 15.4319 31.7869 15.4319H31.8478C32.1752 15.4395 32.4264 15.191 32.4264 14.8748C32.434 14.5662 32.1828 14.3027 31.8631 14.3027C31.8326 14.3027 31.8098 14.3027 31.7793 14.3027C28.9016 14.3027 26.9146 16.8473 25.9096 18.5337C25.8107 16.9226 26.0315 14.6414 27.7596 13.0981C28.4296 12.5033 29.2822 12.0742 30.2339 11.8709C31.4443 11.615 33.7892 10.9901 36.0046 9.7178ZM23.8541 6.79673C24.5165 5.78038 25.7269 3.71757 26.3893 1.24822C26.5491 1.27081 27.0212 1.42138 28.0261 2.25704C28.2088 2.40761 32.495 6.02883 29.5791 10.8847C28.6047 11.1557 27.7139 11.6225 26.9983 12.2549C26.7547 12.4732 26.5415 12.6991 26.3512 12.9325C26.1228 12.6238 25.8792 12.3377 25.5899 12.0817C24.9123 11.4719 24.0673 11.0428 23.1309 10.7944C23.0167 10.3125 22.9558 9.85331 22.9786 9.38654C23.0243 8.50571 23.3288 7.60981 23.8541 6.79673ZM23.6029 18.2852C21.3494 18.1949 19.6365 17.5023 18.5097 16.2375C16.774 14.2801 17.0023 11.5397 17.0023 11.5096C17.0937 10.4481 17.2688 10.034 17.3602 9.88342C19.37 11.0278 21.4865 11.5924 22.5827 11.8258C23.443 12.0065 24.2119 12.3904 24.8134 12.9325C25.1407 13.2261 25.4148 13.5799 25.6508 13.9714C24.8743 15.4018 24.6992 16.9753 24.7372 18.2476C24.4023 18.2702 23.9988 18.3003 23.6029 18.2852ZM19.1264 20.7621C18.6772 22.7496 18.426 24.9329 18.3879 27.1614H10.9576C11.0489 24.9103 11.6656 22.7195 12.7466 20.7621H19.1264Z" fill="#F26B66"/>
</g>
</g>
</svg>
