<svg width="48" height="49" viewBox="0 0 48 49" fill="none" xmlns="http://www.w3.org/2000/svg">
<g id="Layer_2" clip-path="url(#clip0_2438_2996)">
<path id="Vector" d="M20.7405 29.9216C20.136 29.9216 19.9793 29.7212 19.9009 29.5052C19.8287 29.3069 19.8358 29.1459 19.9243 29.0119C20.0576 28.8105 20.3731 28.6703 20.7099 28.6609C22.5885 28.6121 24.4539 27.9517 25.9601 26.801C29.3204 24.235 30.5599 19.5037 28.9072 15.5503C27.5038 12.1929 24.1181 9.93842 20.481 9.93842C20.309 9.93842 20.135 9.94361 19.964 9.95296C16.1468 10.1731 12.7651 12.9894 11.7413 16.8006C10.7359 20.5412 12.1199 24.5964 15.1861 26.8903L15.1891 26.8924C15.4802 27.1126 15.4415 27.3982 15.3927 27.5487C15.3194 27.7762 15.1098 28.0202 14.8228 28.0202C14.7373 28.0202 14.6477 27.9974 14.5582 27.9527C13.6688 27.5114 12.8139 26.422 12.2491 25.6421C10.9221 23.8113 10.1914 21.5589 10.1914 19.3002C10.1914 16.8847 11.0177 14.5056 12.5188 12.599C14.031 10.6788 16.1356 9.36311 18.4457 8.89372C19.1051 8.75976 19.7818 8.69226 20.4596 8.69226C23.4871 8.69226 26.3488 9.99969 28.3098 12.2802C30.9507 15.3499 31.6101 19.9243 29.9513 23.6618C28.4309 27.0897 25.2172 29.4616 21.5658 29.851C21.5159 29.8562 21.4651 29.8624 21.4131 29.8687C21.1923 29.8936 20.9633 29.9196 20.7425 29.9196L20.7405 29.9216Z" fill="#6F2B8C"/>
<path id="Vector_2" d="M20.4348 24.7054C19.5616 24.7054 18.7271 24.4811 17.9567 24.0387C16.5931 23.2557 15.6477 21.8755 15.3617 20.2514C15.0758 18.6283 15.492 16.9989 16.5025 15.7797C17.0887 15.0736 17.8407 14.5336 18.6783 14.2169C19.3204 13.9749 19.8526 13.8513 20.2607 13.8513C20.4938 13.8513 20.68 13.8918 20.8123 13.9707C21.0148 14.0912 21.1227 14.3124 21.1013 14.5627C21.0799 14.8119 20.9365 15.0102 20.7177 15.0933C20.5772 15.1463 20.392 15.1556 20.1966 15.165C20.0226 15.1733 19.8435 15.1816 19.6593 15.2211C19.2563 15.3072 18.8706 15.4557 18.5134 15.6614C16.9421 16.5679 16.2043 18.3666 16.6348 20.242C17.0612 22.1009 18.4931 23.3668 20.2841 23.4675C20.3574 23.4717 20.4297 23.4737 20.5019 23.4737C22.1902 23.4737 23.7279 22.3906 24.3273 20.78C24.4352 20.4892 24.4708 20.1673 24.5044 19.8557C24.5654 19.2867 24.6224 18.9284 24.8952 18.7653C24.9857 18.7113 25.0844 18.6833 25.1872 18.6833C25.4895 18.6833 25.8131 18.9325 25.8131 19.3033C25.8131 20.7644 25.2289 22.1341 24.1685 23.1601C23.1539 24.1425 21.7933 24.7064 20.4368 24.7064L20.4348 24.7054Z" fill="#6F2B8C"/>
<path id="Vector_3" d="M0.577014 48.1207C0.0162826 48.1207 0 47.561 0 47.4977C0 47.4343 0.0162826 46.8746 0.577014 46.8746H3.0194V42.3053C3.0194 41.7331 3.56792 41.7165 3.63 41.7165C3.69207 41.7165 4.24059 41.7331 4.24059 42.3053V46.8746H6.07238V39.1899C6.07238 38.6177 6.6209 38.6011 6.68298 38.6011C6.74505 38.6011 7.29357 38.6177 7.29357 39.1899V46.8746H9.12536V44.3822C9.12536 43.8101 9.67388 43.7934 9.73596 43.7934C9.79804 43.7934 10.3466 43.8101 10.3466 44.3822V46.8746H19.0638L18.3871 46.1684C17.3776 45.1154 16.3345 44.0634 15.326 43.0457C14.349 42.0602 13.3395 41.0415 12.3625 40.0248C9.81839 37.3768 7.18061 34.4971 5.13104 31.3838C2.78839 27.8249 1.51937 24.4437 1.25172 21.0479C0.654356 13.4619 4.76265 5.94652 11.4741 2.34616C14.1882 0.890231 17.285 0.120728 20.4295 0.120728C24.8309 0.120728 29.1122 1.61093 32.4837 4.31613C35.4492 6.69526 37.7328 10.0412 38.9123 13.7371C40.1325 17.5587 40.1508 21.509 38.9662 25.1592L38.8716 25.451L47.2001 31.4606L47.2083 31.4658C47.483 31.6434 47.5146 31.9404 47.4525 32.1585C47.3894 32.3797 47.2062 32.6154 46.8796 32.6154H45.6004V46.8725H47.3884C47.9491 46.8725 47.9654 47.4322 47.9654 47.4956C47.9654 47.5589 47.9491 48.1187 47.3884 48.1187H0.577014V48.1207ZM24.6884 44.1102C23.9679 44.808 23.2658 45.4913 22.5992 46.1632L21.8929 46.8746H27.5898V41.272L26.8988 41.9564C26.2953 42.5535 25.6827 43.1485 25.1067 43.7062L24.6884 44.1112V44.1102ZM37.0856 38.3062C38.8645 38.3062 40.3675 39.84 40.3675 41.6552V46.8735H44.3802V32.6164H28.81V46.8735H33.8036V41.6552C33.8036 39.84 35.3067 38.3062 37.0856 38.3062ZM37.0856 39.6084C36.0618 39.6084 35.0248 40.3115 35.0248 41.6552V46.8735H39.1464V41.6552C39.1464 40.3115 38.1094 39.6084 37.0856 39.6084ZM16.479 42.458C17.8976 43.89 19.071 45.0801 20.1822 46.2712L20.4743 46.5838L20.7694 46.2733C21.9041 45.0791 23.1101 43.9129 24.2763 42.784C25.3347 41.7601 26.4286 40.7019 27.4718 39.6209L27.5888 39.4994V32.6164H26.3096C25.9911 32.6164 25.8079 32.388 25.7417 32.174C25.6766 31.9601 25.7 31.6662 25.9615 31.4814L36.3559 24.1384C36.4567 24.0678 36.5768 24.0293 36.7029 24.0293C36.8291 24.0293 36.9553 24.0688 37.0561 24.1415L37.8376 24.7054L37.9974 24.1467C38.5378 22.2588 38.7342 20.2981 38.5816 18.3199C38.0758 11.7516 33.9146 5.73675 27.9796 2.99416C25.643 1.9152 23.1385 1.36689 20.5354 1.36689C16.4698 1.36689 12.5009 2.74909 9.36044 5.25906C3.96582 9.57389 1.34128 16.8058 2.83011 23.2546C3.57199 26.4666 5.25113 29.6724 8.11381 33.3433C9.86317 35.5864 11.8313 37.7101 13.7394 39.677L13.7313 39.6853L13.7669 39.7216L13.7751 39.7133L13.7679 39.7216C13.7679 39.7216 13.7761 39.7133 13.7761 39.7143L13.7689 39.7226L13.7771 39.7154C14.5424 40.5036 15.2985 41.2668 16.0261 42.0021L16.3233 42.3022C16.3731 42.3531 16.4261 42.406 16.483 42.4538L16.478 42.458H16.479ZM28.2645 31.3713H44.9602L36.7009 25.4115L28.2645 31.3713Z" fill="#6F2B8C"/>
<path id="Vector_4" d="M39.7563 6.58101C38.0466 6.58101 36.6016 5.10639 36.6016 3.36176C36.6016 1.61714 38.0466 0.142517 39.7563 0.142517C41.466 0.142517 42.9111 1.61714 42.9111 3.36176C42.9111 5.10639 41.466 6.58101 39.7563 6.58101ZM39.7563 1.38868C38.5199 1.38868 37.8736 2.38145 37.8736 3.36176C37.8736 4.34208 38.5209 5.33485 39.7563 5.33485C40.9918 5.33485 41.64 4.34208 41.64 3.36176C41.64 2.38145 40.9928 1.38868 39.7563 1.38868Z" fill="#6F2B8C"/>
<path id="Vector_5" d="M45.3529 19.0426C43.9191 19.0426 42.707 17.8058 42.707 16.3426C42.707 14.8794 43.9191 13.6426 45.3529 13.6426C46.7868 13.6426 47.9989 14.8794 47.9989 16.3426C47.9989 17.8058 46.7868 19.0426 45.3529 19.0426ZM45.3529 14.8887C44.4401 14.8887 43.9618 15.6198 43.9618 16.3426C43.9618 17.0654 44.4401 17.7964 45.3529 17.7964C45.7732 17.7964 46.1447 17.6303 46.4001 17.3271C46.622 17.0633 46.7441 16.7133 46.7441 16.3426C46.7441 15.6198 46.2658 14.8887 45.3529 14.8887Z" fill="#6F2B8C"/>
</g>
<defs>
<clipPath id="clip0_2438_2996">
<rect width="48" height="48" fill="white" transform="translate(0 0.120728)"/>
</clipPath>
</defs>
</svg>
