<svg width="53" height="54" viewBox="0 0 53 54" fill="none" xmlns="http://www.w3.org/2000/svg">
<path d="M26.4801 26.2392C22.291 26.2392 18.5444 28.1687 16.079 31.1854L7.93113 24.7689C7.76582 24.6394 7.52656 24.6677 7.39606 24.832C7.26556 24.9974 7.29492 25.2369 7.46022 25.3675L15.6135 31.7894C14.0007 34.0073 13.048 36.7345 13.048 39.6804C13.048 47.0916 19.0729 53.1206 26.4791 53.1206C33.8852 53.1206 39.9101 47.0916 39.9101 39.6804C39.9101 32.2693 33.8863 26.2392 26.4801 26.2392ZM26.4801 52.3577C19.4938 52.3577 13.8103 46.6704 13.8103 39.6793C13.8103 32.6883 19.4938 27.001 26.4801 27.001C33.4665 27.001 39.1499 32.6883 39.1499 39.6793C39.1499 46.6704 33.4665 52.3577 26.4801 52.3577Z" fill="#2A3853"/>
<path d="M43.9626 5.97987C39.9996 5.97987 36.6261 8.54602 35.4091 12.1036L21.2113 7.91264C21.27 7.55678 21.3016 7.19112 21.3016 6.81893C21.3016 3.12533 18.2989 0.120605 14.6078 0.120605C10.9167 0.120605 7.914 3.12533 7.914 6.81893C7.914 8.83441 8.81013 10.6442 10.2228 11.8729L5.36917 18.7007C4.84715 18.4058 4.24465 18.236 3.60301 18.236C1.61608 18.236 0 19.8532 0 21.8415C0 23.8297 1.61608 25.4469 3.60301 25.4469C5.58994 25.4469 7.20602 23.8297 7.20602 21.8415C7.20602 20.7684 6.73403 19.8031 5.98798 19.1425L10.8232 12.3397C10.9243 12.4094 11.0276 12.4779 11.1331 12.5422C11.1353 12.5432 11.1375 12.5443 11.1396 12.5465C12.151 13.1625 13.3386 13.5173 14.6067 13.5173C17.6605 13.5173 20.2412 11.4593 21.0427 8.65702L35.1916 12.8338C35.0165 13.5358 34.9219 14.2703 34.9219 15.0256C34.9219 17.9084 36.278 20.4789 38.3835 22.1364L34.6837 27.2861C34.5608 27.4569 34.6 27.6953 34.7707 27.8172C34.8381 27.865 34.9154 27.889 34.9926 27.889C35.1111 27.889 35.2275 27.8335 35.3014 27.7301L39.0001 22.5826C39.0893 22.6413 39.1785 22.7001 39.2709 22.7567C39.2742 22.7589 39.2775 22.761 39.2796 22.7621C40.6456 23.5936 42.2486 24.0724 43.9604 24.0724C48.9446 24.0724 53 20.0142 53 15.0267C53 10.0391 48.9478 5.97987 43.9626 5.97987ZM6.44474 21.8425C6.44474 23.4107 5.17015 24.6862 3.60301 24.6862C2.03587 24.6862 0.761276 23.4107 0.761276 21.8425C0.761276 20.2743 2.03587 18.9989 3.60301 18.9989C5.17015 18.9989 6.44474 20.2743 6.44474 21.8425ZM11.6943 11.9882L11.6127 11.2253C11.5442 10.5854 11.9662 9.99342 12.5958 9.84868C12.9058 9.77686 13.2212 9.72135 13.5311 9.68218C13.7214 9.65823 13.865 9.49608 13.865 9.30454V8.11941C13.865 7.991 13.8008 7.87129 13.6932 7.80164C13.1983 7.47625 12.8764 6.95279 12.8079 6.36403C12.7883 6.19317 12.6578 6.05931 12.4925 6.03211L12.2718 5.93416C12.2217 5.9124 12.188 5.86451 12.1815 5.81119L12.1239 5.29861H12.3501C12.4545 5.29861 12.5534 5.25617 12.6263 5.17999C12.6992 5.10381 12.7361 5.0026 12.7307 4.89921L12.7231 4.7338C12.6981 4.21251 12.8819 3.71844 13.2408 3.34081C13.5996 2.96318 14.0847 2.75532 14.6067 2.75532C15.1287 2.75532 15.6127 2.96318 15.9726 3.34081C16.3315 3.71844 16.5153 4.2136 16.4903 4.73488L16.4827 4.9003C16.4773 5.00478 16.5153 5.10599 16.5871 5.18108C16.6589 5.25617 16.7589 5.2997 16.8623 5.2997H17.0906L17.033 5.81227C17.0265 5.86669 16.9928 5.91348 16.9427 5.93525L16.723 6.0332C16.5567 6.05931 16.4251 6.19426 16.4055 6.36621C16.3381 6.95387 16.0151 7.47842 15.5202 7.80382C15.4137 7.87455 15.3484 7.99426 15.3484 8.12159V9.30563C15.3484 9.49826 15.492 9.66041 15.6823 9.68326C15.9987 9.72244 16.3185 9.77903 16.6317 9.85195C17.2538 9.99669 17.6714 10.5876 17.6029 11.2264L17.5213 11.9904C16.66 12.479 15.666 12.7587 14.6078 12.7587C13.5496 12.7565 12.5556 12.4758 11.6943 11.9882ZM18.3478 11.4234L18.3609 11.3059C18.4707 10.2851 17.8019 9.34046 16.8057 9.10865C16.5762 9.05533 16.3435 9.00962 16.1108 8.97262V8.3153C16.635 7.91047 16.9938 7.33477 17.1254 6.68616L17.2527 6.62957C17.5474 6.49789 17.754 6.21711 17.7899 5.89607L17.8497 5.36499C17.8737 5.15496 17.8062 4.94274 17.6659 4.78495C17.5572 4.66306 17.4115 4.58144 17.2527 4.54988C17.232 3.90018 16.9775 3.29075 16.524 2.81408C16.0194 2.28409 15.3386 1.99135 14.6067 1.99135C13.8748 1.99135 13.194 2.283 12.6894 2.81408C12.2359 3.29075 11.9814 3.90018 11.9607 4.54988C11.803 4.58144 11.6584 4.66306 11.5496 4.78386C11.4083 4.94166 11.3408 5.15387 11.3648 5.36391L11.4246 5.89607C11.4615 6.21711 11.6671 6.49789 11.9618 6.62957L12.0869 6.68507C12.2185 7.33368 12.5774 7.91047 13.1016 8.3153V8.97262C12.8743 9.00853 12.647 9.05315 12.4218 9.10539C11.418 9.33719 10.7438 10.284 10.8536 11.3059L10.8667 11.4234C9.53008 10.3341 8.67419 8.67443 8.67419 6.81893C8.67419 3.5454 11.3354 0.882397 14.6067 0.882397C17.878 0.882397 20.5392 3.5454 20.5392 6.81893C20.5392 8.67552 19.6844 10.3341 18.3478 11.4234ZM39.8332 22.2017L39.7125 21.0829C39.6103 20.135 40.2367 19.2568 41.1698 19.0413C41.5994 18.9423 42.0355 18.865 42.4683 18.8106C42.6586 18.7867 42.8022 18.6245 42.8022 18.433V16.8082C42.8022 16.6798 42.738 16.5601 42.6303 16.4904C41.9169 16.0214 41.4515 15.265 41.3536 14.4173C41.3329 14.241 41.1948 14.1038 41.023 14.0832L40.7032 13.9406C40.5901 13.8905 40.5107 13.7817 40.4966 13.6587L40.4139 12.9296C40.4085 12.8839 40.4303 12.8523 40.4433 12.8371C40.4564 12.8229 40.4857 12.7979 40.5314 12.7979H40.8685C40.9729 12.7979 41.0719 12.7555 41.1437 12.6793C41.2155 12.6042 41.2535 12.5019 41.2481 12.3985L41.2372 12.1721C41.2002 11.4191 41.4656 10.703 41.9865 10.1567C42.5075 9.61035 43.2078 9.3089 43.9615 9.3089C44.7151 9.3089 45.4166 9.61035 45.9365 10.1567C46.4563 10.703 46.7227 11.4191 46.6858 12.1721L46.6749 12.3985C46.6694 12.503 46.7075 12.6042 46.7793 12.6793C46.8511 12.7544 46.9511 12.7979 47.0544 12.7979H47.3938C47.4394 12.7979 47.4688 12.8229 47.4818 12.8371C47.4949 12.8523 47.5166 12.8839 47.5112 12.9296L47.4286 13.6587C47.4144 13.7817 47.335 13.8905 47.2219 13.9406L46.9033 14.0821C46.7293 14.1017 46.589 14.2388 46.5683 14.4173C46.4704 15.265 46.005 16.0214 45.2915 16.4904C45.185 16.5612 45.1197 16.6809 45.1197 16.8082V18.4319C45.1197 18.6245 45.2633 18.7867 45.4536 18.8095C45.8908 18.8639 46.3345 18.9423 46.7706 19.0446C47.6939 19.259 48.3127 20.135 48.2116 21.0818L48.0909 22.2006C46.875 22.9047 45.4645 23.3095 43.9615 23.3095C42.4596 23.3095 41.0501 22.9058 39.8332 22.2017ZM48.9163 21.6608L48.9696 21.1656C49.1121 19.8369 48.242 18.606 46.9446 18.3046C46.5933 18.2229 46.2366 18.1544 45.8821 18.1021V17.0095C46.6227 16.4599 47.124 15.6535 47.2893 14.747L47.5319 14.6393C47.8908 14.4793 48.142 14.1376 48.1855 13.7469L48.2681 13.0177C48.2964 12.7685 48.217 12.5193 48.0506 12.3321C47.8962 12.1591 47.6798 12.0546 47.4503 12.0405C47.4514 11.1394 47.1132 10.2905 46.4878 9.6332C45.8233 8.93453 44.925 8.54928 43.9615 8.54928C42.9979 8.54928 42.0996 8.93453 41.4351 9.6332C40.8098 10.2905 40.4716 11.1394 40.4727 12.0405C40.2443 12.0557 40.029 12.1602 39.8756 12.3321C39.7092 12.5193 39.6298 12.7685 39.6581 13.0177L39.7408 13.7469C39.7853 14.1376 40.0355 14.4793 40.3944 14.6393L40.6336 14.7459C40.7989 15.6535 41.3003 16.4599 42.0409 17.0106V18.1043C41.6929 18.1566 41.3438 18.2229 40.999 18.3024C39.6918 18.6049 38.8131 19.8369 38.9566 21.1678L39.0099 21.663C36.9926 20.1503 35.6842 17.7398 35.6842 15.0289C35.6842 10.4603 39.3982 6.74493 43.9626 6.74493C48.527 6.74493 52.2409 10.4614 52.2409 15.0289C52.242 17.7376 50.9337 20.1481 48.9163 21.6608Z" fill="#2A3853"/>
</svg>
