<svg width="57" height="54" viewBox="0 0 57 54" fill="none" xmlns="http://www.w3.org/2000/svg">
<g clip-path="url(#clip0_1713_1334)">
<path d="M1.28125 21.3685C2.5687 21.3685 3.76954 20.7573 4.55137 19.7426C6.41817 17.32 9.36291 15.7545 12.6693 15.7545H13.7344C14.7737 15.7545 15.6609 14.9867 15.7744 13.9627C16.486 7.52996 21.96 2.67667 28.5002 2.67667C35.0405 2.67667 40.5145 7.52996 41.2261 13.9627C41.3396 14.9867 42.2268 15.7545 43.2661 15.7545H44.3312C47.6376 15.7545 50.5823 17.32 52.4491 19.7426C53.2309 20.7573 54.4318 21.3685 55.7192 21.3685C53.9133 16.8898 49.4962 13.725 44.3312 13.725H43.2602C42.4374 6.36795 36.1442 0.647217 28.5002 0.647217C20.8563 0.647217 14.563 6.36795 13.7402 13.725H12.6693C7.5043 13.725 3.08602 16.8898 1.28125 21.3685Z" fill="#EBECED"/>
<path d="M28.5196 26.0756C31.9132 26.0756 34.6643 23.3498 34.6643 19.9873C34.6643 16.6248 31.9132 13.8989 28.5196 13.8989C25.126 13.8989 22.375 16.6248 22.375 19.9873C22.375 23.3498 25.126 26.0756 28.5196 26.0756Z" fill="#6F2B8C"/>
<path d="M57 25.8704C57 18.9494 51.3177 13.318 44.3315 13.318H43.6222C42.6052 5.83682 36.1679 0.241333 28.5006 0.241333C20.8332 0.241333 14.396 5.83682 13.3778 13.3191H12.6685C5.6835 13.3191 0 18.9506 0 25.8716C0 32.7926 5.68233 38.424 12.6685 38.424H19.8759C20.1017 38.424 20.2855 38.2419 20.2855 38.0181C20.2855 37.7943 20.1017 37.6122 19.8759 37.6122H12.6685C6.13527 37.6122 0.819285 32.3449 0.819285 25.8716C0.819285 19.3982 6.13527 14.1309 12.6685 14.1309H13.7394C13.9477 14.1309 14.1233 13.9755 14.1467 13.7702C14.959 6.51988 21.1294 1.05311 28.5006 1.05311C35.8718 1.05311 42.0422 6.51988 42.8533 13.7691C42.8767 13.9743 43.0511 14.1297 43.2606 14.1297H44.3315C50.8647 14.1297 56.1807 19.397 56.1807 25.8704C56.1807 32.3438 50.8647 37.6111 44.3315 37.6111H34.7096L32.9329 31.8312C32.8674 31.6167 32.638 31.496 32.4215 31.561C32.2049 31.6259 32.0832 31.8532 32.1487 32.0678L33.8529 37.6111H28.9278V33.914C28.9278 33.6902 28.744 33.5081 28.5181 33.5081C28.2923 33.5081 28.1085 33.6902 28.1085 33.914V37.6111H23.1893L24.8934 32.0678C24.9589 31.8532 24.8372 31.6271 24.6207 31.561C24.4042 31.496 24.1748 31.6167 24.1092 31.8312L21.1141 41.5702L16.6104 43.2831C16.6057 43.275 16.6011 43.2657 16.5964 43.2576C16.223 42.6163 15.6191 42.1582 14.8969 41.9669C14.1748 41.7755 13.4211 41.8741 12.7738 42.244C11.4384 43.0083 10.9796 44.7072 11.7509 46.0304C12.2682 46.9187 13.2104 47.4151 14.1783 47.4151C14.6523 47.4151 15.1334 47.2956 15.5734 47.044C16.2207 46.674 16.683 46.0756 16.8761 45.3601C16.9943 44.9217 17.0025 44.4706 16.9054 44.0392L21.594 42.2568C21.7122 42.2116 21.8023 42.1153 21.8386 41.9958L22.9376 38.4217H28.1062V47.7305C27.2916 47.8511 26.5366 48.3243 26.0931 49.0839C25.3218 50.4071 25.7806 52.106 27.116 52.8702C27.5561 53.1219 28.0359 53.2413 28.5111 53.2413C29.4779 53.2413 30.4201 52.7438 30.9385 51.8567C31.3119 51.2154 31.4114 50.4685 31.2183 49.753C31.0252 49.0375 30.5628 48.4402 29.9156 48.0691C29.6008 47.8894 29.2649 47.7769 28.9254 47.7282V38.4205H34.0998L35.1988 41.9947C35.2351 42.1141 35.3264 42.2104 35.4434 42.2556L40.1333 44.0392C39.8746 45.1896 40.3814 46.4235 41.464 47.0428C41.8947 47.2898 42.3734 47.4162 42.8591 47.4162C43.1014 47.4162 43.346 47.3849 43.5871 47.3211C44.3093 47.1298 44.912 46.6717 45.2866 46.0304C46.0579 44.7072 45.5991 43.0083 44.2636 42.244C42.9282 41.4798 41.2135 41.9344 40.4422 43.2576C40.4376 43.2657 40.4329 43.275 40.4282 43.2831L35.9245 41.5702L34.9566 38.4217H44.328C51.3177 38.4229 57 32.7926 57 25.8704ZM16.0884 45.1525C15.9515 45.6581 15.6249 46.0814 15.1673 46.3424C14.2228 46.8828 13.0102 46.5615 12.4648 45.6257C11.9194 44.6898 12.2436 43.4884 13.1881 42.948C13.4936 42.774 13.8319 42.6847 14.1748 42.6847C14.3469 42.6847 14.5189 42.7067 14.6898 42.752C15.2001 42.8877 15.6273 43.2112 15.8906 43.6646C16.154 44.1181 16.2242 44.6457 16.0884 45.1525ZM29.5095 48.7742C29.9671 49.0363 30.2948 49.4584 30.4306 49.9652C30.5675 50.4708 30.4973 50.9997 30.2328 51.4519C29.6874 52.3878 28.4748 52.709 27.5303 52.1686C26.5858 51.6282 26.2616 50.4268 26.807 49.4909C27.3524 48.555 28.565 48.2338 29.5095 48.7742ZM41.155 43.6646C41.5214 43.0373 42.1873 42.6859 42.872 42.6859C43.2079 42.6859 43.5473 42.7705 43.8587 42.948C44.8032 43.4884 45.1274 44.6898 44.582 45.6257C44.3175 46.0791 43.8914 46.4038 43.38 46.5383C42.8697 46.674 42.336 46.6044 41.8795 46.3424C40.9338 45.8019 40.6096 44.6005 41.155 43.6646Z" fill="#2A3853"/>
<path d="M20.3807 25.2163C20.5036 25.4042 20.7576 25.4576 20.9472 25.3358C21.1368 25.214 21.1906 24.9624 21.0678 24.7745C20.3854 23.7331 19.9383 22.5688 19.7475 21.3511C19.7475 21.3163 19.7417 21.2804 19.7311 21.2467C19.6715 20.8327 19.641 20.4118 19.641 19.9885C19.641 15.1375 23.6239 11.1899 28.5209 11.1899C33.4179 11.1899 37.4008 15.1363 37.4008 19.9885C37.4008 21.6955 36.9069 23.3504 35.9729 24.7745C35.85 24.9624 35.9038 25.214 36.0934 25.3358C36.1625 25.3799 36.2397 25.4019 36.3158 25.4019C36.4504 25.4019 36.5815 25.3369 36.6599 25.2175C37.2837 24.2666 37.7262 23.2217 37.9766 22.1281L43.4635 26.7251L43.3078 28.8102C43.2797 28.8137 43.2516 28.816 43.2247 28.8218C42.1948 29.0155 41.5159 30.0035 41.7114 31.0252C41.8062 31.5192 42.0894 31.9483 42.5096 32.2313C42.8291 32.447 43.1978 32.5583 43.5758 32.5583C43.6952 32.5583 43.8146 32.5467 43.9352 32.5247C44.9651 32.331 45.644 31.3418 45.4485 30.3213C45.3116 29.6081 44.7825 29.0665 44.1259 28.8693L44.2968 26.579C44.3062 26.4491 44.2523 26.3227 44.1529 26.2392L38.1416 21.2038C38.1931 20.8037 38.2201 20.3978 38.2201 19.9908C38.2201 19.7415 38.2072 19.4944 38.1885 19.2497L46.6283 19.9792L49.0826 22.9631C49.1634 23.0616 49.2816 23.1127 49.3998 23.1127C49.4911 23.1127 49.5824 23.0825 49.6585 23.021C49.834 22.8796 49.8598 22.6233 49.717 22.4505L47.1538 19.3332C47.0836 19.2486 46.9817 19.1952 46.8717 19.1848L38.089 18.4264C37.3528 13.994 33.5466 10.573 28.9118 10.3909V7.94976C29.6351 7.77465 30.1735 7.12986 30.1735 6.36099C30.1735 5.45875 29.4326 4.72351 28.5209 4.72351C27.6092 4.72351 26.8683 5.45759 26.8683 6.36099C26.8683 7.1171 27.3879 7.75261 28.0925 7.94048V10.3886C23.4753 10.588 19.6867 14.0033 18.9528 18.4241L10.1759 19.1825C10.0659 19.1918 9.9641 19.2451 9.89387 19.3309L7.32951 22.4482C7.18672 22.6221 7.21247 22.8772 7.38803 23.0187C7.46411 23.0802 7.5554 23.1103 7.64669 23.1103C7.76607 23.1103 7.88311 23.0593 7.96387 22.9607L10.4182 19.9769L18.8522 19.2486C18.8334 19.4933 18.8206 19.7403 18.8206 19.9896C18.8206 20.399 18.8487 20.8049 18.899 21.2073L12.8925 26.2392C12.7918 26.3227 12.7391 26.4491 12.7485 26.579L12.9194 28.8682C12.7356 28.9227 12.5589 29.005 12.395 29.1152C11.9749 29.3982 11.6916 29.8261 11.5968 30.3213C11.4014 31.3418 12.0802 32.3299 13.1102 32.5247C13.2295 32.5467 13.3489 32.5583 13.466 32.5583C14.3613 32.5583 15.1607 31.9274 15.3339 31.0252C15.5294 30.0047 14.8505 29.0166 13.8206 28.8218C13.7925 28.816 13.7644 28.8137 13.7375 28.8102L13.5818 26.7262L19.064 22.1339C19.3157 23.2228 19.7581 24.2666 20.3807 25.2163ZM44.6421 30.4697C44.7533 31.0507 44.367 31.6132 43.7807 31.7233C43.4963 31.7767 43.2083 31.7175 42.9696 31.5563C42.7308 31.3951 42.5693 31.1516 42.5155 30.8698C42.4616 30.588 42.5213 30.3027 42.684 30.0661C42.8467 29.8296 43.0925 29.6695 43.3769 29.6162C43.4448 29.6034 43.5126 29.5976 43.5794 29.5976C44.0885 29.5976 44.5438 29.956 44.6421 30.4697ZM27.6864 6.36099C27.6864 5.90639 28.0598 5.53529 28.5197 5.53529C28.9797 5.53529 29.3531 5.90523 29.3531 6.36099C29.3531 6.81675 28.9797 7.18669 28.5197 7.18669C28.0598 7.18669 27.6864 6.81559 27.6864 6.36099ZM13.6684 29.6162C14.2548 29.7264 14.641 30.2888 14.5299 30.8698C14.4187 31.4508 13.851 31.8335 13.2646 31.7233C12.6783 31.6132 12.292 31.0507 12.4032 30.4697C12.4571 30.1879 12.6186 29.9444 12.8573 29.7832C13.0973 29.622 13.3852 29.5628 13.6684 29.6162Z" fill="#2A3853"/>
</g>
<defs>
<clipPath id="clip0_1713_1334">
<rect width="57" height="53" fill="white" transform="translate(0 0.241333)"/>
</clipPath>
</defs>
</svg>
