<svg width="53" height="54" viewBox="0 0 53 54" fill="none" xmlns="http://www.w3.org/2000/svg">
<g clip-path="url(#clip0_1941_1792)">
<path d="M26.5117 27.9309C28.5235 27.9309 30.1543 26.3001 30.1543 24.2884C30.1543 22.2767 28.5235 20.6459 26.5117 20.6459C24.5 20.6459 22.8691 22.2767 22.8691 24.2884C22.8691 26.3001 24.5 27.9309 26.5117 27.9309Z" fill="#6F2B8C"/>
<path d="M41.6261 33.4192C43.1062 31.9391 43.9214 29.9747 43.9214 27.8863C43.9214 23.5701 40.4094 20.0582 36.0931 20.0582H35.796C35.4673 17.8588 34.3692 15.8465 32.6943 14.3816C30.9824 12.8852 28.7829 12.0614 26.5018 12.0614C24.2206 12.0614 22.0212 12.8852 20.3092 14.3816C18.6332 15.8465 17.5351 17.8577 17.2064 20.0582H16.9093C12.5931 20.0582 9.08105 23.5701 9.08105 27.8863C9.08105 32.2025 12.5931 35.7144 16.9093 35.7144H21.2767C21.4977 35.7144 21.6772 35.5349 21.6772 35.3139C21.6772 35.093 21.4977 34.9134 21.2767 34.9134H16.9093C13.0349 34.9134 9.88206 31.7606 9.88206 27.8863C9.88206 24.012 13.0349 20.8592 16.9093 20.8592H17.558C17.7626 20.8592 17.9334 20.7057 17.9563 20.5033C18.4395 16.1469 22.1137 12.8624 26.5018 12.8624C30.8899 12.8624 34.564 16.1469 35.0472 20.5033C35.0701 20.7057 35.241 20.8592 35.4456 20.8592H36.0942C39.9686 20.8592 43.1215 24.012 43.1215 27.8863C43.1215 31.7606 39.9686 34.9134 36.0942 34.9134H30.3773L29.3336 31.4875C29.2824 31.3177 29.1279 31.2034 28.9505 31.2034C28.9113 31.2034 28.8721 31.2089 28.834 31.2208C28.6229 31.2851 28.5032 31.5092 28.5674 31.7215L29.5403 34.9145H26.9142V32.8065C26.9142 32.5856 26.7347 32.406 26.5137 32.406C26.2928 32.406 26.1132 32.5856 26.1132 32.8065V34.9145H23.4904L24.4633 31.7215C24.5276 31.5103 24.4078 31.2872 24.1967 31.2219C24.1586 31.21 24.1194 31.2045 24.0803 31.2045C23.9029 31.2045 23.7483 31.3188 23.6972 31.4886L21.9036 37.373L19.3624 38.3481C19.1143 37.9715 18.7399 37.7016 18.2991 37.5841C18.1413 37.5417 17.9802 37.521 17.8181 37.521C17.497 37.521 17.1781 37.607 16.8963 37.7691C16.0147 38.2784 15.7111 39.4103 16.2204 40.2929C16.5491 40.8621 17.1629 41.2158 17.8235 41.2158C18.1457 41.2158 18.4645 41.1298 18.7453 40.9687C19.173 40.7228 19.4778 40.3234 19.6062 39.8467C19.6715 39.6018 19.6856 39.345 19.6497 39.0968L22.3727 38.0521C22.4891 38.0075 22.5762 37.9139 22.6121 37.7952L23.2455 35.7177H26.1121V41.1309C25.6061 41.243 25.174 41.5575 24.9128 42.0091C24.4035 42.8917 24.706 44.0236 25.5887 44.5329C25.8694 44.695 26.1872 44.7799 26.5105 44.7799C27.1689 44.7799 27.7838 44.4262 28.1136 43.857C28.3606 43.4293 28.4259 42.932 28.2986 42.4553C28.1712 41.9787 27.8654 41.5803 27.4377 41.3333C27.2723 41.2386 27.0971 41.17 26.9142 41.1298V35.7177H29.7841L30.4175 37.7952C30.4524 37.9117 30.5416 38.0085 30.657 38.0532L33.3799 39.099C33.2678 39.8478 33.6194 40.5878 34.2832 40.9709C34.564 41.1341 34.8829 41.2201 35.205 41.2201C35.3661 41.2201 35.5283 41.1983 35.6861 41.157C36.1628 41.0297 36.5611 40.7238 36.8081 40.2972C37.3175 39.4146 37.0149 38.2828 36.1323 37.7735C35.8526 37.6113 35.5337 37.5264 35.2116 37.5264C34.5891 37.5264 34.0079 37.841 33.6683 38.3535L31.1271 37.3784L30.6221 35.7209H36.0964C38.1849 35.7209 40.1504 34.9058 41.6305 33.4257L41.6261 33.4192ZM18.8324 39.6377C18.7595 39.9087 18.5864 40.134 18.3448 40.2733C18.1859 40.3647 18.0064 40.4137 17.8235 40.4137C17.4491 40.4137 17.102 40.2134 16.9159 39.8913C16.7766 39.6497 16.7395 39.3678 16.8114 39.0979C16.8832 38.828 17.0562 38.6017 17.2979 38.4624C17.4578 38.3699 17.6385 38.322 17.8192 38.322C17.9106 38.322 18.002 38.3339 18.0912 38.3579C18.3622 38.4308 18.5875 38.6038 18.7257 38.8444C18.865 39.086 18.902 39.3689 18.8302 39.6388L18.8324 39.6377ZM27.035 42.0244C27.2777 42.1648 27.4508 42.39 27.5226 42.6599C27.5955 42.9298 27.5585 43.2117 27.4181 43.4533C27.232 43.7754 26.8838 43.9757 26.5105 43.9757C26.3276 43.9757 26.1481 43.9278 25.9892 43.8353C25.7476 43.696 25.5745 43.4707 25.5027 43.1997C25.4309 42.9298 25.4679 42.648 25.6072 42.4063C25.7933 42.0842 26.1415 41.884 26.5148 41.884C26.6977 41.884 26.8772 41.9319 27.0361 42.0244H27.035ZM34.2996 38.8444C34.4857 38.5222 34.8339 38.322 35.2083 38.322C35.3901 38.322 35.5707 38.3699 35.7296 38.4624C35.9712 38.6017 36.1443 38.8269 36.2161 39.0979C36.2879 39.3678 36.2509 39.6497 36.1116 39.8913C35.9712 40.134 35.7459 40.307 35.476 40.3789C35.3868 40.4028 35.2943 40.4148 35.2029 40.4148C35.0211 40.4148 34.8415 40.3658 34.6816 40.2744C34.44 40.1351 34.2669 39.9098 34.194 39.6388C34.1211 39.3689 34.1581 39.087 34.2985 38.8454L34.2996 38.8444Z" fill="#2A3853"/>
<path d="M20.4298 24.2894C20.4298 27.6425 23.1571 30.3708 26.5102 30.3708C29.8633 30.3708 32.5918 27.6425 32.5918 24.2894C32.5918 20.9364 30.0723 18.4235 26.8998 18.2222V17.0969C27.3548 16.9347 27.6638 16.5038 27.6638 16.013C27.6638 15.3763 27.1469 14.8583 26.5102 14.8583C25.8736 14.8583 25.3566 15.3763 25.3566 16.013C25.3566 16.4929 25.6559 16.9195 26.0988 17.0893V18.2244C22.9373 18.4366 20.4287 21.0757 20.4287 24.2905L20.4298 24.2894ZM26.0063 16.0119C26.0063 15.7333 26.2316 15.5069 26.5113 15.5069C26.791 15.5069 27.0152 15.7322 27.0152 16.0119C27.0152 16.2916 26.7899 16.5158 26.5113 16.5158C26.2327 16.5158 26.0063 16.2894 26.0063 16.0119ZM26.5113 18.9666C29.4465 18.9666 31.8332 21.3543 31.8332 24.2884C31.8332 27.2224 29.4454 29.6101 26.5113 29.6101C23.5772 29.6101 21.1894 27.2224 21.1894 24.2884C21.1894 21.3543 23.5772 18.9666 26.5113 18.9666Z" fill="#2A3853"/>
<path d="M45.2392 7.88233C40.234 2.87726 33.579 0.120605 26.5005 0.120605C20.6497 0.120605 15.0884 2.00553 10.5088 5.48481C10.3434 5.61106 10.1801 5.73839 10.0169 5.8679C8.82952 4.83401 7.02074 4.88081 5.89107 6.01155C4.76139 7.14229 4.71351 8.94995 5.74741 10.1373C5.6179 10.3005 5.48948 10.4649 5.36432 10.6303C1.88388 15.2098 0 20.7699 0 26.6206C0 33.6989 2.75671 40.3538 7.76188 45.3589C12.4373 50.0342 18.6472 52.7811 25.2479 53.0912C25.668 53.1108 26.0881 53.1206 26.5071 53.1206C32.5015 53.1206 38.2979 51.1029 42.9842 47.3722C43.5523 47.8674 44.2608 48.1144 44.9704 48.1144C45.7453 48.1144 46.5201 47.8195 47.1111 47.2297C48.2908 46.0499 48.2908 44.1291 47.1111 42.9494C45.9314 41.7697 44.0105 41.7697 42.8307 42.9494C41.7838 43.9963 41.6663 45.6244 42.476 46.803C37.6123 50.6621 31.5231 52.6243 25.2838 52.3305C18.8736 52.029 12.8422 49.3616 8.3006 44.8202C3.43908 39.9588 0.761823 33.4954 0.761823 26.6206C0.761823 20.9571 2.5804 15.5733 5.94004 11.1331C6.06411 10.9687 6.18926 10.8066 6.31769 10.6455C6.83137 10.9992 7.43104 11.1766 8.03179 11.1766C8.80667 11.1766 9.58155 10.8817 10.1725 10.2918C11.2195 9.24488 11.337 7.6157 10.5262 6.43816C10.6862 6.31083 10.8484 6.18568 11.0116 6.06161C15.4508 2.70204 20.8348 0.882412 26.5005 0.882412C33.3754 0.882412 39.839 3.55962 44.7005 8.42104C53.4146 17.135 54.7304 30.853 47.8283 41.0383C47.7108 41.2125 47.7554 41.4497 47.9295 41.5673C48.1037 41.6848 48.3409 41.6402 48.4584 41.466C55.5652 30.9781 54.2113 16.8542 45.2392 7.88233ZM43.3684 43.4881C43.8102 43.0462 44.3903 42.8253 44.9704 42.8253C45.5505 42.8253 46.1305 43.0462 46.5724 43.4881C47.455 44.3707 47.455 45.8083 46.5724 46.691C45.6898 47.5746 44.2521 47.5746 43.3695 46.691C42.4858 45.8083 42.4858 44.3707 43.3684 43.4881ZM9.6327 9.75311C8.75008 10.6368 7.31241 10.6368 6.42978 9.75311C5.54716 8.8705 5.54716 7.43286 6.42978 6.55026C6.87164 6.10841 7.45171 5.88748 8.03179 5.88748C8.61186 5.88748 9.19193 6.10841 9.63379 6.55026C10.5153 7.43286 10.5153 8.8705 9.6327 9.75311Z" fill="#2A3853"/>
<path d="M8.03182 6.45007C7.5965 6.45007 7.16008 6.61658 6.82814 6.94851C6.16536 7.61128 6.16536 8.69196 6.82814 9.35473C7.49093 10.0186 8.57163 10.0186 9.23441 9.35473C9.8972 8.69196 9.8972 7.61128 9.23441 6.94851C8.90248 6.61658 8.46715 6.45007 8.03074 6.45007H8.03182Z" fill="#6F2B8C"/>
<path d="M44.3295 12.8972C44.0106 12.8972 43.6917 13.0191 43.449 13.2618C42.9636 13.7472 42.9636 14.5362 43.449 15.0216C43.9344 15.5069 44.7234 15.5069 45.2088 15.0216C45.6942 14.5362 45.6942 13.7472 45.2088 13.2618C44.9661 13.0191 44.6472 12.8972 44.3284 12.8972H44.3295Z" fill="#6F2B8C"/>
<path d="M46.1035 46.2219C46.7282 45.5973 46.7282 44.5808 46.1035 43.9561C45.7912 43.6438 45.3809 43.4871 44.9706 43.4871C44.5603 43.4871 44.15 43.6438 43.8377 43.9561C43.213 44.5808 43.213 45.5973 43.8377 46.2219C44.4624 46.8466 45.4788 46.8466 46.1035 46.2219Z" fill="#6F2B8C"/>
<path d="M11.3815 11.502C13.5189 9.36462 16.021 7.73653 18.818 6.6613C19.0139 6.5862 19.1129 6.36528 19.0367 6.16939C18.9616 5.97349 18.7407 5.87446 18.5448 5.95064C15.6466 7.06396 13.0553 8.75082 10.8428 10.9633C7.66053 14.1455 5.54593 18.1581 4.72969 22.5667C3.93195 26.872 4.4119 31.2698 6.11621 35.2856C6.17824 35.4304 6.31863 35.5175 6.46664 35.5175C6.51671 35.5175 6.56677 35.5077 6.61574 35.487C6.80946 35.4043 6.89979 35.1812 6.81708 34.9875C5.17046 31.1099 4.70792 26.8633 5.47845 22.705C6.26748 18.4486 8.30808 14.5743 11.3815 11.502Z" fill="#2A3853"/>
<path d="M40.5561 43.6165C40.6432 43.6165 40.7303 43.5871 40.8021 43.5262C41.2668 43.1322 41.7239 42.7121 42.1581 42.2779C49.23 35.2061 50.5077 24.5027 45.9955 16.1163C47.0077 15.2642 47.2199 13.7613 46.4472 12.6577C45.6745 11.5531 44.1889 11.2386 43.0418 11.8992C42.7578 11.5803 42.4639 11.268 42.1581 10.9633C40.4048 9.21002 38.3958 7.77673 36.1876 6.70258C35.9982 6.61117 35.7708 6.68952 35.6783 6.87889C35.5858 7.06825 35.6652 7.2957 35.8546 7.38821C37.9866 8.42535 39.9271 9.80967 41.6194 11.5031C41.9035 11.7871 42.1777 12.0777 42.4422 12.3737C41.6238 13.2465 41.4975 14.6058 42.2104 15.6244C42.6065 16.1903 43.1986 16.568 43.8788 16.6877C44.03 16.7149 44.1824 16.728 44.3337 16.728C44.683 16.728 45.0248 16.6561 45.3447 16.5179C49.6784 24.6083 48.4377 34.9221 41.6194 41.7392C41.1993 42.1582 40.7596 42.5641 40.3102 42.945C40.1502 43.081 40.1295 43.3216 40.2655 43.4815C40.3406 43.5708 40.4484 43.6165 40.5561 43.6165ZM45.3752 15.6353C44.9758 15.9139 44.4926 16.0217 44.0126 15.9368C43.5327 15.8519 43.1148 15.5853 42.8361 15.1869C42.2593 14.3631 42.4607 13.2237 43.2845 12.6469C43.6023 12.4248 43.9669 12.3182 44.3271 12.3182C44.9029 12.3182 45.4699 12.5892 45.8236 13.0952C46.4004 13.9191 46.199 15.0585 45.3752 15.6353Z" fill="#2A3853"/>
</g>
<defs>
<clipPath id="clip0_1941_1792">
<rect width="53" height="53" fill="white" transform="translate(0 0.120605)"/>
</clipPath>
</defs>
</svg>
