<svg width="53" height="54" viewBox="0 0 53 54" fill="none" xmlns="http://www.w3.org/2000/svg">
<path d="M31.5133 44.1734C30.8789 43.2135 30.5035 42.0991 30.4306 40.9498C30.3587 39.8245 30.0225 38.7122 29.4588 37.736L25.7958 31.3911C25.5509 30.9667 25.1548 30.663 24.6804 30.5368C24.2059 30.4106 23.7107 30.4769 23.2842 30.7229L23.2526 30.7414C22.8782 30.958 22.6018 31.2943 22.4604 31.698C21.889 31.2551 21.0827 31.1735 20.4188 31.5576C20.0151 31.7905 19.7354 32.1562 19.5983 32.5676C19.0281 32.1355 18.2304 32.0594 17.572 32.4392C17.2336 32.634 16.9735 32.9267 16.8179 33.2761L15.0114 30.1461C14.7666 29.7216 14.3716 29.418 13.8982 29.2918C13.4248 29.1655 12.9307 29.2297 12.5063 29.4746C11.6303 29.9807 11.33 31.1038 11.8349 31.9799L14.9309 37.3421C13.6109 38.3226 13.205 40.1641 14.0462 41.6213L16.3706 45.6481C16.8473 46.473 17.6112 47.0792 18.5232 47.3535L19.792 47.7366C20.5396 47.9619 21.1654 48.4603 21.5539 49.1372L22.4789 50.7512L23.4822 52.5023C23.6781 52.8441 23.9948 53.0878 24.3746 53.1901C24.5019 53.225 24.6314 53.2413 24.7598 53.2413C25.0144 53.2413 25.2658 53.1749 25.4922 53.0432L32.7452 48.8554C33.0945 48.654 33.3481 48.3123 33.4406 47.9194C33.5331 47.5265 33.458 47.1086 33.236 46.7723L31.5133 44.1734ZM32.6984 47.7475C32.6527 47.939 32.5341 48.099 32.3632 48.198L25.1102 52.3859C24.9459 52.4806 24.7554 52.5056 24.5726 52.4566C24.3898 52.4076 24.2374 52.2901 24.1428 52.1258L23.3277 50.7033L28.4326 47.7562C28.6143 47.6506 28.6774 47.4177 28.5719 47.2359C28.4663 47.0542 28.2334 46.9911 28.0517 47.0966L22.949 50.0427L22.2155 48.7618C21.7302 47.9151 20.9477 47.2925 20.0129 47.0107L18.7441 46.6276C18.0182 46.4088 17.4099 45.9267 17.0312 45.2704L14.7067 41.2437C14.0756 40.1499 14.3574 38.7754 15.3151 38.0103L17.3881 41.6017C17.4589 41.7236 17.5873 41.7922 17.7179 41.7922C17.7821 41.7922 17.8485 41.7759 17.9083 41.741C18.09 41.6355 18.1532 41.4026 18.0476 41.2208L12.4944 31.6023C12.1984 31.0908 12.3747 30.4334 12.8872 30.1374C13.3987 29.8425 14.056 30.0177 14.352 30.5303L18.3294 37.4204C18.435 37.6022 18.6679 37.6653 18.8496 37.5597C19.0314 37.4541 19.0945 37.2212 18.9889 37.0395L17.5612 34.5658C17.4175 34.3176 17.3794 34.0292 17.4545 33.7528C17.5285 33.4763 17.7059 33.2445 17.954 33.102C18.4655 32.807 19.1228 32.9822 19.4188 33.4938L20.8465 35.9675C20.9521 36.1493 21.185 36.2124 21.3667 36.1068C21.5484 36.0012 21.6115 35.7683 21.506 35.5866L20.408 33.6842C20.2654 33.4361 20.2273 33.1477 20.3013 32.8712C20.3753 32.5948 20.5527 32.363 20.8008 32.2204C21.0489 32.0768 21.3373 32.0387 21.6137 32.1138C21.8901 32.1878 22.1219 32.3652 22.2645 32.6133L23.3625 34.5157C23.4681 34.6974 23.7009 34.7606 23.8827 34.655C24.0644 34.5494 24.1275 34.3165 24.022 34.1348L23.2548 32.8049C23.1198 32.5687 23.0839 32.2933 23.1547 32.03C23.2254 31.7644 23.3962 31.5424 23.6335 31.4053L23.665 31.3868C23.9164 31.242 24.207 31.2028 24.4845 31.2769C24.7609 31.3509 24.9927 31.5272 25.1352 31.7753L28.7982 38.1202C29.3042 38.9963 29.6057 39.9921 29.6699 41.0021C29.7515 42.283 30.1694 43.527 30.8778 44.5968L32.5983 47.1979C32.7082 47.36 32.743 47.5559 32.6984 47.7475Z" fill="#2A3853"/>
<path d="M11.6743 28.0327C12.3936 27.6169 13.2327 27.507 14.0358 27.7214C14.8389 27.9369 15.5092 28.4517 15.9249 29.1711C16.0305 29.3528 16.2634 29.4159 16.4451 29.3104C16.6268 29.2048 16.69 28.9719 16.5844 28.7901C16.0675 27.8945 15.2317 27.2534 14.2327 26.9857C13.2337 26.718 12.1901 26.8551 11.2934 27.3732C9.44344 28.4408 8.80792 30.8144 9.87547 32.6646C9.9462 32.7864 10.0746 32.855 10.2052 32.855C10.2694 32.855 10.3358 32.8387 10.3956 32.8039C10.5774 32.6983 10.6405 32.4654 10.5349 32.2836C10.1192 31.5643 10.0093 30.7252 10.2237 29.922C10.4392 29.1199 10.9539 28.4484 11.6743 28.0327Z" fill="#2A3853"/>
<path d="M44.1984 1.98482C43.9536 1.92823 43.7011 1.98591 43.5052 2.14154C43.3093 2.29717 43.1972 2.53007 43.1972 2.77929L43.1896 12.3021C42.1253 12.5284 40.987 12.7341 39.7856 12.917V2.14698C39.7856 1.5767 39.3601 1.09022 38.7954 1.01404C35.0355 0.509059 30.7838 0.241333 26.4995 0.241333C22.2151 0.241333 17.9645 0.507971 14.2036 1.01404C13.6388 1.09022 13.2133 1.5767 13.2133 2.14698V12.917C12.0119 12.7341 10.8736 12.5284 9.80929 12.3021L9.80168 3.1787C9.80168 2.92839 9.68959 2.69658 9.49371 2.54095C9.29783 2.38532 9.04536 2.32764 8.80051 2.38423C5.51405 3.14279 0 4.83295 0 7.62775V27.7965C0 29.1873 1.39184 31.1931 8.02133 32.8528C8.05289 32.8604 8.08336 32.8648 8.11383 32.8648C8.28468 32.8648 8.43921 32.7494 8.48274 32.5764C8.53389 32.3717 8.40983 32.165 8.20524 32.1138C3.54763 30.946 0.763937 29.3321 0.763937 27.7954V9.36035C1.69002 10.3779 3.4486 11.3095 5.97982 12.1094C6.99296 12.4294 8.11927 12.7243 9.33809 12.9899C9.3468 12.9921 9.3555 12.9942 9.36421 12.9953C12.5375 13.6853 16.3343 14.1816 20.4043 14.4265C20.6045 14.4384 20.7612 14.605 20.7612 14.8063V20.9499V29.6194C20.7612 29.8294 20.9321 30.0003 21.1421 30.0003C21.3521 30.0003 21.523 29.8294 21.523 29.6194V21.2948C24.7866 21.1349 28.2167 21.1349 31.4781 21.2948V33.4503C31.4781 33.7637 31.6098 34.0673 31.8383 34.2828C32.0505 34.482 32.3335 34.5941 32.6229 34.5941C32.6458 34.5941 32.6686 34.593 32.6926 34.5919C38.3154 34.248 43.4149 33.4231 47.0517 32.2705C50.9432 31.0375 53 29.4899 53 27.7975V7.22833C52.9989 4.43353 47.4859 2.74338 44.1984 1.98482ZM0.763937 7.62666C0.763937 5.99527 3.83274 4.31164 8.97353 3.12538C8.9953 3.12102 9.01162 3.12864 9.02142 3.13626C9.03556 3.14714 9.04209 3.16129 9.04209 3.1787L9.04862 12.1334C3.96877 10.9678 0.763937 9.32988 0.763937 7.62666ZM31.4781 14.8063V20.5308C28.2156 20.372 24.7888 20.373 21.523 20.5308V14.8063C21.523 14.2034 21.0518 13.7017 20.45 13.6657C18.1604 13.5275 15.9872 13.3099 13.9761 13.028V2.14698C13.9761 1.95652 14.1176 1.79436 14.3059 1.76933C18.033 1.26871 22.2499 1.00316 26.5005 1.00316C30.7512 1.00316 34.967 1.26762 38.6941 1.76933C38.8824 1.79436 39.0239 1.95761 39.0239 2.14698V13.028C37.0128 13.3109 34.8386 13.5286 32.55 13.6657C31.9493 13.7027 31.4781 14.2034 31.4781 14.8063ZM52.2372 27.7954C52.2372 29.085 50.2631 30.4509 46.821 31.5414C43.2419 32.6754 38.2077 33.4884 32.6458 33.8279C32.538 33.8334 32.4379 33.7974 32.3596 33.7245C32.2823 33.6516 32.2399 33.5537 32.2399 33.447V14.8063C32.2399 14.605 32.3966 14.4384 32.5968 14.4265C38.2425 14.0869 43.3659 13.2641 47.0213 12.1094C49.5525 11.3095 51.3111 10.379 52.2372 9.36035V27.7954ZM52.2372 7.62666C52.2372 9.32988 49.0323 10.9678 43.9525 12.1334L43.959 2.77929C43.959 2.76188 43.9655 2.74773 43.9797 2.73685C43.9895 2.72923 44.0058 2.72052 44.0276 2.72596C49.1683 3.91332 52.2372 5.59695 52.2372 7.22833V7.62666Z" fill="#2A3853"/>
<path d="M16.2547 23.0776C16.2547 23.9711 16.0348 24.8591 15.6202 25.6427C15.5223 25.8288 15.593 26.0596 15.7791 26.1575C15.8357 26.188 15.8966 26.2021 15.9565 26.2021C16.0925 26.2021 16.2253 26.1281 16.2938 25.9997C16.7672 25.1062 17.0164 24.0951 17.0164 23.0776C17.0164 22.8675 16.8456 22.6967 16.6355 22.6967C16.4255 22.6967 16.2547 22.8675 16.2547 23.0776Z" fill="#2A3853"/>
<path d="M10.7628 17.3116C12.9295 17.3116 14.8992 18.5904 15.7817 20.5701C15.8677 20.7616 16.093 20.8487 16.2845 20.7627C16.4771 20.6767 16.5631 20.4514 16.4771 20.2599C15.4727 18.006 13.2288 16.5509 10.7628 16.5509C7.31424 16.5509 4.50879 19.3566 4.50879 22.8055C4.50879 25.1726 5.82119 27.3111 7.93236 28.3842C7.98786 28.4125 8.04662 28.4255 8.1043 28.4255C8.24359 28.4255 8.37635 28.3494 8.44382 28.2166C8.53959 28.0294 8.4645 27.7998 8.27732 27.704C6.42189 26.7604 5.27055 24.8831 5.27055 22.8044C5.27055 19.7756 7.7343 17.3116 10.7628 17.3116Z" fill="#2A3853"/>
<path d="M49.2008 16.1613C46.219 17.5206 41.3971 18.5697 35.623 19.116C35.414 19.1356 35.2595 19.3217 35.2802 19.5307C35.2987 19.7277 35.4652 19.8757 35.6589 19.8757C35.6708 19.8757 35.6828 19.8757 35.6948 19.8735C41.5516 19.3195 46.4595 18.2465 49.5164 16.8534C49.7079 16.7664 49.7917 16.54 49.7046 16.3484C49.6176 16.158 49.3923 16.0742 49.2008 16.1613Z" fill="#2A3853"/>
<path d="M49.2008 21.3089C46.219 22.6682 41.3971 23.7174 35.623 24.2637C35.414 24.2833 35.2595 24.4694 35.2802 24.6784C35.2987 24.8754 35.4652 25.0234 35.6589 25.0234C35.6708 25.0234 35.6828 25.0234 35.6948 25.0212C41.5505 24.4672 46.4595 23.3942 49.5164 22.0011C49.7079 21.914 49.7928 21.6877 49.7046 21.4961C49.6176 21.3057 49.3912 21.2208 49.2008 21.3089Z" fill="#2A3853"/>
<path d="M49.2012 25.6678C47.275 26.546 44.5152 27.3122 41.2201 27.8857C41.0133 27.9217 40.874 28.1186 40.9099 28.3265C40.9426 28.5115 41.1026 28.6421 41.2843 28.6421C41.3061 28.6421 41.3278 28.6399 41.3496 28.6367C44.7079 28.0523 47.5318 27.2665 49.5167 26.3621C49.7083 26.275 49.7932 26.0487 49.705 25.8571C49.6179 25.6656 49.3916 25.5807 49.2012 25.6678Z" fill="#2A3853"/>
</svg>
