<svg width="53" height="54" viewBox="0 0 53 54" fill="none" xmlns="http://www.w3.org/2000/svg">
<g clip-path="url(#clip0_1713_1435)">
<path d="M41.8081 45.2532H35.0781L35.1478 45.0758C35.4634 44.2726 36.2382 43.7437 37.1013 43.7437H39.7937C40.7253 43.7437 41.5459 44.3586 41.8081 45.2532Z" fill="#EBECED"/>
<path d="M18.147 45.2532H11.417L11.4866 45.0758C11.8022 44.2726 12.5771 43.7437 13.4401 43.7437H16.1326C17.0652 43.7437 17.8858 44.3586 18.147 45.2532Z" fill="#EBECED"/>
<path d="M43.2549 48.997H9.74414C10.4994 47.9577 11.7074 47.3417 12.9927 47.3417H40.0064C41.2917 47.3417 42.4997 47.9577 43.2549 48.997Z" fill="#EBECED"/>
<path d="M26.4998 9.19495C18.6575 9.19495 12.3008 15.5518 12.3008 23.3942C12.3008 31.2367 18.6575 37.5935 26.4998 37.5935C34.342 37.5935 40.6988 31.2367 40.6988 23.3942C40.6988 15.5518 34.342 9.19495 26.4998 9.19495ZM20.0941 21.9011C20.6567 19.4796 22.5852 17.5511 25.0055 16.9884C25.2112 16.9405 25.4147 17.0678 25.4626 17.2735C25.5105 17.4781 25.3832 17.6827 25.1775 17.7306C23.0368 18.228 21.3325 19.9323 20.8352 22.073C20.7938 22.2493 20.6371 22.3679 20.4641 22.3679C20.4358 22.3679 20.4064 22.3647 20.3781 22.3582C20.1746 22.3103 20.0462 22.1057 20.0941 21.9011ZM25.4637 29.5149C25.4224 29.6912 25.2656 29.8099 25.0926 29.8099C25.0643 29.8099 25.0349 29.8066 25.0066 29.8001C22.5852 29.2374 20.6567 27.3089 20.0952 24.8885C20.0473 24.6839 20.1746 24.4793 20.3803 24.4314C20.586 24.3835 20.7895 24.5108 20.8374 24.7165C21.3347 26.8573 23.039 28.5616 25.1797 29.0589C25.3832 29.1057 25.5116 29.3103 25.4637 29.5149ZM24.0468 23.3942C24.0468 22.0393 25.1448 20.9412 26.4998 20.9412C27.8547 20.9412 28.9528 22.0393 28.9528 23.3942C28.9528 24.7492 27.8547 25.8473 26.4998 25.8473C25.1448 25.8473 24.0468 24.7492 24.0468 23.3942ZM32.9055 24.8885C32.3428 27.31 30.4144 29.2385 27.994 29.8001C27.9646 29.8066 27.9363 29.8099 27.908 29.8099C27.735 29.8099 27.5783 29.6912 27.5369 29.5149C27.489 29.3103 27.6164 29.1057 27.8221 29.0578C29.9627 28.5605 31.667 26.8562 32.1644 24.7155C32.2122 24.5108 32.4157 24.3824 32.6214 24.4303C32.8249 24.4782 32.9534 24.6828 32.9055 24.8885ZM32.6203 22.3582C32.591 22.3647 32.5627 22.3679 32.5344 22.3679C32.3613 22.3679 32.2046 22.2493 32.1633 22.073C31.6659 19.9323 29.9616 18.228 27.821 17.7306C27.6164 17.6827 27.489 17.4781 27.5358 17.2735C27.5837 17.0689 27.7883 16.9416 27.9929 16.9884C30.4144 17.5511 32.3428 19.4796 32.9044 21.9011C32.9534 22.1057 32.8249 22.3103 32.6203 22.3582Z" fill="#6F2B8C"/>
<path d="M10.9858 16.3507C10.7921 16.268 10.569 16.3572 10.4863 16.551C9.60697 18.6068 9.14009 20.7845 9.09438 23.0319H8.12253C7.9582 22.3539 7.34876 21.8489 6.62069 21.8489C5.76746 21.8489 5.07422 22.5432 5.07422 23.3954C5.07422 24.2476 5.76855 24.9419 6.62069 24.9419C7.3357 24.9419 7.93644 24.4532 8.11383 23.7937H9.09547C9.30769 33.2109 17.0346 40.8063 26.5017 40.8063C35.9688 40.8063 43.7142 33.1914 43.9079 23.7578H44.8808C45.0451 24.4358 45.6546 24.9408 46.3827 24.9408C47.2359 24.9408 47.9291 24.2465 47.9291 23.3943C47.9291 22.5422 47.2348 21.8478 46.3827 21.8478C45.6676 21.8478 45.0669 22.3365 44.8895 22.996H43.9079C43.8056 18.4893 41.9838 14.4005 39.0737 11.3608L40.9706 9.46384C41.1197 9.31474 41.1197 9.07422 40.9706 8.92512C40.8215 8.77602 40.581 8.77602 40.4319 8.92512L38.535 10.8221C35.4877 7.90428 31.3849 6.08026 26.8652 5.98775V4.81999C27.5432 4.65565 28.0481 4.04619 28.0481 3.31811C28.0481 2.46486 27.3538 1.77161 26.5017 1.77161C25.6495 1.77161 24.9552 2.46595 24.9552 3.31811C24.9552 4.03313 25.4439 4.63388 26.1034 4.81128V5.98993C21.7066 6.09005 17.5744 7.83354 14.4619 10.8166L12.5704 8.92621C12.4213 8.77711 12.1808 8.77711 12.0317 8.92621C11.8826 9.07531 11.8826 9.31583 12.0317 9.46493L13.9221 11.3553C13.2125 12.0976 12.5617 12.9062 11.9827 13.779C11.8663 13.9542 11.9142 14.1904 12.0894 14.3069C12.2646 14.4233 12.5007 14.3754 12.6172 14.2002C15.7156 9.5324 20.9046 6.74522 26.4995 6.74522C35.6804 6.74522 43.1482 14.2143 43.1482 23.3943C43.1482 32.5743 35.6814 40.0445 26.5006 40.0445C17.3197 40.0445 9.85184 32.5754 9.85184 23.3954C9.85184 21.1241 10.3013 18.9224 11.1872 16.8513C11.2699 16.6565 11.1796 16.4334 10.9858 16.3507ZM25.7159 3.31811C25.7159 2.88496 26.0685 2.53343 26.5006 2.53343C26.9326 2.53343 27.2852 2.88604 27.2852 3.31811C27.2852 3.75017 26.9326 4.10278 26.5006 4.10278C26.0685 4.10278 25.7159 3.75126 25.7159 3.31811ZM46.3816 22.6096C46.8147 22.6096 47.1662 22.9622 47.1662 23.3943C47.1662 23.8264 46.8136 24.179 46.3816 24.179C45.9495 24.179 45.5969 23.8264 45.5969 23.3943C45.5969 22.9622 45.9484 22.6096 46.3816 22.6096ZM6.6196 24.179C6.18646 24.179 5.83494 23.8264 5.83494 23.3943C5.83494 22.9622 6.18755 22.6096 6.6196 22.6096C7.05165 22.6096 7.40426 22.9622 7.40426 23.3943C7.40426 23.8264 7.05274 24.179 6.6196 24.179Z" fill="#2A3853"/>
<path d="M52.6096 52.3599H50.6517L48.8996 48.8283C48.8353 48.6988 48.7026 48.6171 48.5578 48.6171H46.9167L45.1645 45.0856C45.1003 44.956 44.9675 44.8744 44.8228 44.8744H43.2197L41.1509 37.3465C41.0965 37.155 40.8875 37.0385 40.7058 37.118C40.6622 37.1365 40.622 37.1637 40.5872 37.1996C36.8467 41.0174 31.8438 43.119 26.5003 43.119C21.7934 43.119 17.2356 41.4332 13.6682 38.3728C10.1388 35.3451 7.78375 31.1638 7.03826 26.6005C6.97406 26.2043 6.63342 25.917 6.23075 25.917H4.04328C4.0128 25.917 3.98886 25.8931 3.98886 25.8626V20.9292C3.98886 20.8988 4.0128 20.8748 4.04328 20.8748H6.23293C6.6356 20.8748 6.97406 20.5886 7.03826 20.1935C7.52364 17.2192 8.71206 14.3504 10.4751 11.8973C10.708 11.573 10.671 11.1311 10.387 10.8471L8.83831 9.2973C8.81654 9.27663 8.81654 9.2418 8.83831 9.22003L12.3263 5.73197C12.3481 5.71021 12.3818 5.71021 12.4036 5.73197L13.9522 7.28065C14.2363 7.5647 14.6781 7.6017 15.0024 7.3688C17.4554 5.60573 20.3231 4.41729 23.2974 3.9319C23.6925 3.86768 23.9787 3.52922 23.9787 3.12654V0.936844C23.9787 0.906371 24.0026 0.882428 24.0331 0.882428H28.9663C28.9968 0.882428 29.0207 0.906371 29.0207 0.936844V3.12654C29.0207 3.52922 29.307 3.86768 29.702 3.9319C32.6763 4.41729 35.5451 5.60573 37.997 7.3688C38.3213 7.60279 38.7632 7.56579 39.0472 7.28174L40.5959 5.73306C40.6176 5.7113 40.6514 5.7113 40.6731 5.73306L44.1611 9.22112C44.1829 9.2418 44.1829 9.27663 44.1611 9.29839L42.6125 10.8471C42.3284 11.1311 42.2914 11.573 42.5254 11.8973C44.2884 14.3504 45.4769 17.2181 45.9622 20.1925C46.0265 20.5875 46.3649 20.8737 46.7676 20.8737H48.9572C48.9877 20.8737 49.0116 20.8977 49.0116 20.9282V25.8615C49.0116 25.892 48.9877 25.9159 48.9572 25.9159H46.7665C46.3649 25.9159 46.0265 26.2054 45.9612 26.6037C45.479 29.5531 44.3026 32.4012 42.5613 34.8412C42.4558 34.9892 42.459 35.196 42.5831 35.3288C42.7539 35.5116 43.0369 35.4855 43.174 35.2929C44.9871 32.756 46.2104 29.7947 46.7121 26.7267C46.7164 26.6973 46.7393 26.6777 46.7665 26.6777H48.9572C49.4078 26.6777 49.7735 26.3121 49.7735 25.8615V20.9282C49.7735 20.4776 49.4078 20.1119 48.9572 20.1119H46.7676C46.7415 20.1119 46.7186 20.0934 46.7143 20.0695C46.2104 16.9797 44.9752 13.9999 43.1446 11.4522C43.1305 11.4326 43.1338 11.4032 43.1523 11.3847L44.7009 9.83602C45.0187 9.51823 45.0187 9.00019 44.7009 8.68132L41.2129 5.19326C40.8941 4.87438 40.3771 4.87547 40.0582 5.19326L38.5096 6.74193C38.4911 6.76043 38.4617 6.7637 38.4421 6.74955C35.8944 4.919 32.9147 3.68376 29.825 3.17987C29.8011 3.17551 29.7836 3.15266 29.7836 3.12654V0.936844C29.7836 0.48628 29.418 0.120605 28.9674 0.120605H24.0342C23.5836 0.120605 23.218 0.48628 23.218 0.936844V3.12654C23.218 3.15266 23.1995 3.17551 23.1766 3.17987C20.0869 3.68376 17.1072 4.919 14.5595 6.74955C14.5399 6.7637 14.5105 6.76043 14.492 6.74193L12.9434 5.19326C12.6256 4.87438 12.1075 4.87547 11.7887 5.19326L8.2996 8.68132C7.98182 8.9991 7.98182 9.51714 8.2996 9.83602L9.84824 11.3847C9.86674 11.4032 9.87001 11.4326 9.85586 11.4522C8.02426 13.9999 6.79013 16.9797 6.28625 20.0695C6.2819 20.0934 6.25905 20.1108 6.23293 20.1108H4.04328C3.59272 20.1108 3.22705 20.4765 3.22705 20.9271V25.8604C3.22705 26.311 3.59272 26.6767 4.04328 26.6767H6.23075C6.25904 26.6767 6.28299 26.6952 6.28734 26.7213C6.95447 30.8046 8.86225 34.5909 11.7201 37.5729L9.78186 44.8722H8.17662C8.03188 44.8722 7.90019 44.9539 7.8349 45.0834L6.08383 48.6161H4.44268C4.29794 48.6161 4.16625 48.6977 4.10095 48.8272L2.3488 52.3588H0.390955C0.20921 52.3588 0.043789 52.4818 0.00787522 52.6603C-0.0410981 52.9051 0.145 53.1206 0.381161 53.1206H52.6193C52.8555 53.1206 53.0416 52.9051 52.9926 52.6603C52.9567 52.4829 52.7913 52.3599 52.6096 52.3599ZM34.3392 42.3321C36.6584 41.3722 38.7969 39.9792 40.6579 38.1954L42.4307 44.8722H34.3382V42.3321H34.3392ZM33.5774 42.6303V44.8733H19.4231V42.6183C21.6726 43.4465 24.0668 43.8797 26.5003 43.8797C28.9565 43.8786 31.3432 43.4498 33.5774 42.6303ZM12.3415 38.1954C12.6114 38.4533 12.8868 38.7058 13.1719 38.9496C14.8228 40.3666 16.6784 41.4985 18.6613 42.319V44.8733H10.5687L12.3415 38.1954ZM8.41387 45.6341H44.5866L46.0656 48.6161H6.93379L8.41387 45.6341ZM3.19985 52.3599L4.67884 49.3779H48.3217L49.8007 52.3599H3.19985Z" fill="#2A3853"/>
</g>
<defs>
<clipPath id="clip0_1713_1435">
<rect width="53" height="53" fill="white" transform="translate(0 0.120605)"/>
</clipPath>
</defs>
</svg>
