<svg width="53" height="54" viewBox="0 0 53 54" fill="none" xmlns="http://www.w3.org/2000/svg">
<g clip-path="url(#clip0_1628_1272)">
<path d="M42.3002 31.2474H10.6983C9.68614 31.2474 8.77306 30.6378 8.38672 29.7017H44.6161L44.5573 29.8258C44.1405 30.6955 43.2633 31.2474 42.3002 31.2474Z" fill="#EBECED"/>
<path d="M23.9761 29.7028H22.4971V21.3754C22.4971 20.559 23.1588 19.8961 23.9761 19.8961V29.7028Z" fill="#EBECED"/>
<path d="M19.2856 29.7028H17.8066V10.7534C18.6229 10.7534 19.2856 11.4153 19.2856 12.2327V29.7028Z" fill="#EBECED"/>
<path d="M26.5008 42.4039C27.2407 42.4039 27.8405 41.8039 27.8405 41.0639C27.8405 40.3238 27.2407 39.7239 26.5008 39.7239C25.7609 39.7239 25.1611 40.3238 25.1611 41.0639C25.1611 41.8039 25.7609 42.4039 26.5008 42.4039Z" fill="#6F2B8C"/>
<path d="M41.2528 48.6533C41.9927 48.6533 42.5925 48.0533 42.5925 47.3133C42.5925 46.5732 41.9927 45.9733 41.2528 45.9733C40.5129 45.9733 39.9131 46.5732 39.9131 47.3133C39.9131 48.0533 40.5129 48.6533 41.2528 48.6533Z" fill="#6F2B8C"/>
<path d="M49.534 31.0428C50.2739 31.0428 50.8737 30.4428 50.8737 29.7028C50.8737 28.9627 50.2739 28.3628 49.534 28.3628C48.7941 28.3628 48.1943 28.9627 48.1943 29.7028C48.1943 30.4428 48.7941 31.0428 49.534 31.0428Z" fill="#6F2B8C"/>
<path d="M11.8377 48.6533C12.5776 48.6533 13.1774 48.0533 13.1774 47.3133C13.1774 46.5732 12.5776 45.9733 11.8377 45.9733C11.0978 45.9733 10.498 46.5732 10.498 47.3133C10.498 48.0533 11.0978 48.6533 11.8377 48.6533Z" fill="#6F2B8C"/>
<path d="M3.4686 31.0428C4.20849 31.0428 4.80829 30.4428 4.80829 29.7028C4.80829 28.9627 4.20849 28.3628 3.4686 28.3628C2.72871 28.3628 2.12891 28.9627 2.12891 29.7028C2.12891 30.4428 2.72871 31.0428 3.4686 31.0428Z" fill="#6F2B8C"/>
<path d="M14.939 19.5151H11.168C10.958 19.5151 10.7871 19.686 10.7871 19.8961C10.7871 20.1062 10.958 20.2771 11.168 20.2771H14.939C15.149 20.2771 15.3199 20.1062 15.3199 19.8961C15.3199 19.686 15.149 19.5151 14.939 19.5151Z" fill="#2A3853"/>
<path d="M14.939 13.145H11.168C10.958 13.145 10.7871 13.3159 10.7871 13.526C10.7871 13.7361 10.958 13.907 11.168 13.907H14.939C15.149 13.907 15.3199 13.7361 15.3199 13.526C15.3199 13.3159 15.149 13.145 14.939 13.145Z" fill="#2A3853"/>
<path d="M14.939 25.8854H11.168C10.958 25.8854 10.7871 26.0563 10.7871 26.2664C10.7871 26.4765 10.958 26.6474 11.168 26.6474H14.939C15.149 26.6474 15.3199 26.4765 15.3199 26.2664C15.3199 26.0563 15.149 25.8854 14.939 25.8854Z" fill="#2A3853"/>
<path d="M49.5338 26.2344C47.7511 26.2344 46.2787 27.5874 46.0882 29.3215H45.1425V19.8609C45.1425 19.3537 44.73 18.9411 44.2229 18.9411H41.4423C41.3966 15.0779 38.2416 11.9494 34.3695 11.9494C31.1263 11.9494 28.3055 14.1428 27.5099 17.2833C27.4588 17.4868 27.5818 17.6947 27.7853 17.7459C27.9888 17.7971 28.1967 17.6741 28.2478 17.4705C28.9574 14.6686 31.4746 12.7114 34.3684 12.7114C37.8215 12.7114 40.6359 15.4981 40.6816 18.9411H25.9123V1.04114C25.9123 0.694987 25.7208 0.381487 25.4139 0.22256C25.1059 0.0636328 24.7402 0.0908463 24.4584 0.291138L16.1982 6.18124C15.8499 6.42942 15.6421 6.83218 15.6421 7.25998V8.74693H9.43661C8.59862 8.74693 7.91735 9.42836 7.91735 10.2665V29.3215H6.91285C6.7224 27.5874 5.24994 26.2344 3.46731 26.2344C1.55517 26.2344 0 27.7899 0 29.7024C0 31.615 1.51382 33.127 3.39004 33.1684C4.04411 37.664 5.98563 41.8451 9.03612 45.2719C8.61712 45.8455 8.36899 46.5509 8.36899 47.3129C8.36899 49.2254 9.92417 50.781 11.8363 50.781C12.8179 50.781 13.7049 50.3706 14.3361 49.712C17.9623 51.9326 22.1403 53.1202 26.5 53.1202C30.8597 53.1202 35.0594 51.9098 38.7129 49.6707C39.3462 50.3532 40.2506 50.781 41.2518 50.781C43.164 50.781 44.7192 49.2254 44.7192 47.3129C44.7192 46.5237 44.4536 45.7954 44.0074 45.212C46.5693 42.3045 48.3976 38.7874 49.265 35.0058C49.3118 34.8012 49.1844 34.5965 48.9787 34.5497C48.7741 34.5029 48.5695 34.6303 48.5227 34.836C47.688 38.4717 45.9348 41.856 43.4796 44.659C42.8767 44.1517 42.0996 43.8459 41.2518 43.8459C40.3246 43.8459 39.4823 44.2116 38.8598 44.807C36.4481 42.9935 33.7295 41.7537 30.8347 41.1376C37.2513 40.221 43.1803 37.283 47.8154 32.7144C48.3214 33.0051 48.908 33.1716 49.5327 33.1716C51.4448 33.1716 53 31.6161 53 29.7035C53 27.791 51.4459 26.2344 49.5338 26.2344ZM44.3807 19.8609V29.3215H41.4445V19.7031H44.2229C44.31 19.7031 44.3807 19.7739 44.3807 19.8609ZM40.6827 19.7031V29.3215H38.3657V21.6146C38.3657 21.4045 38.1948 21.2336 37.9848 21.2336H30.7541C30.5441 21.2336 30.3732 21.4045 30.3732 21.6146V29.3215H28.0563V19.7031H40.6827ZM31.134 29.3215V21.9956H37.6028V29.3215H31.134ZM24.3571 29.3215V19.8609C24.3571 19.7739 24.4279 19.7031 24.5149 19.7031H27.2934V29.3215H24.3571ZM16.4039 7.26107C16.4039 7.07928 16.492 6.90838 16.64 6.80279L24.9002 0.912695C24.9688 0.863711 25.0319 0.884393 25.0645 0.900721C25.0961 0.917049 25.1505 0.957325 25.1505 1.04114V18.9411H24.5149C24.0078 18.9411 23.5953 19.3537 23.5953 19.8609V29.3215H18.1887V10.2665C18.1887 9.42836 17.5074 8.74693 16.6694 8.74693H16.4039V7.26107ZM8.68025 10.2665C8.68025 9.84853 9.01979 9.50891 9.4377 9.50891H16.6705C17.0884 9.50891 17.428 9.84853 17.428 10.2665V29.3215H8.68025V10.2665ZM0.762895 29.7024C0.762895 28.2101 1.97634 26.9963 3.4684 26.9963C4.96045 26.9963 6.1739 28.2101 6.1739 29.7024C6.1739 31.1948 4.96045 32.4086 3.4684 32.4086C1.97634 32.4086 0.762895 31.1948 0.762895 29.7024ZM11.8374 50.019C10.3453 50.019 9.13189 48.8053 9.13189 47.3129C9.13189 45.8205 10.3453 44.6068 11.8374 44.6068C13.3294 44.6068 14.5429 45.8205 14.5429 47.3129C14.5429 48.8053 13.3294 50.019 11.8374 50.019ZM26.5011 52.3572C22.2263 52.3572 18.2246 51.1619 14.8128 49.0905C15.1251 48.5701 15.3047 47.9616 15.3047 47.3118C15.3047 46.5814 15.0772 45.9043 14.6909 45.3448C17.2049 43.4747 20.0595 42.2533 23.1013 41.733C23.1938 42.2065 23.382 42.6561 23.6639 43.0567C23.7847 43.2287 24.023 43.27 24.195 43.1492C24.3669 43.0284 24.4083 42.79 24.2875 42.618C23.9664 42.1608 23.7956 41.6231 23.7956 41.0625C23.7956 39.5701 25.009 38.3563 26.5011 38.3563C27.9931 38.3563 29.2066 39.5701 29.2066 41.0625C29.2066 42.5549 27.9931 43.7686 26.5011 43.7686C26.291 43.7686 26.1202 43.9395 26.1202 44.1496C26.1202 44.3597 26.291 44.5306 26.5011 44.5306C28.1836 44.5306 29.5886 43.3255 29.902 41.7341C32.9645 42.2588 35.8419 43.4953 38.37 45.3883C38.0011 45.9391 37.7856 46.601 37.7856 47.3118C37.7856 47.9475 37.9576 48.5429 38.2579 49.0556C34.7362 51.199 30.6551 52.3572 26.5011 52.3572ZM41.2529 44.6068C42.745 44.6068 43.9584 45.8205 43.9584 47.3129C43.9584 48.8053 42.745 50.019 41.2529 50.019C39.7609 50.019 38.5485 48.8042 38.5485 47.3129C38.5485 45.8216 39.762 44.6068 41.2529 44.6068ZM29.9194 40.4844C29.643 38.8473 28.2162 37.5955 26.5011 37.5955C24.6205 37.5955 23.0849 39.102 23.036 40.9721C19.8342 41.5088 16.8305 42.7932 14.1903 44.7689C13.5721 44.1964 12.745 43.8448 11.8374 43.8448C10.9298 43.8448 10.1723 44.167 9.56285 44.6982C6.74308 41.5033 4.81027 37.5084 4.15294 33.102C4.51969 33.0279 4.86577 32.8951 5.18138 32.7155C8.68678 36.1727 12.9572 38.7177 17.6968 40.1503C17.7338 40.1611 17.7708 40.1666 17.8067 40.1666C17.9699 40.1666 18.1212 40.0599 18.1713 39.8955C18.2322 39.6942 18.1179 39.4819 17.9166 39.4209C13.3371 38.0374 9.20698 35.586 5.80606 32.2605C6.41115 31.7064 6.81926 30.9423 6.91394 30.0834H46.0882C46.1818 30.9412 46.5899 31.7054 47.1939 32.2583C42.4936 36.8531 36.4427 39.7344 29.9194 40.4844ZM49.5338 32.4086C48.0417 32.4086 46.8283 31.1948 46.8283 29.7024C46.8283 28.2101 48.0417 26.9963 49.5338 26.9963C51.0258 26.9963 52.2393 28.2101 52.2393 29.7024C52.2393 31.1948 51.0258 32.4086 49.5338 32.4086Z" fill="#2A3853"/>
</g>
<defs>
<clipPath id="clip0_1628_1272">
<rect width="53" height="53" fill="white" transform="translate(0 0.120605)"/>
</clipPath>
</defs>
</svg>
