<svg width="522" height="322" viewBox="0 0 522 322" fill="none" xmlns="http://www.w3.org/2000/svg">
<path d="M522 0H0V322H522V0Z" fill="#222222"/>
<mask id="mask0_3120_4363" style="mask-type:alpha" maskUnits="userSpaceOnUse" x="0" y="0" width="522" height="322">
<path d="M522 0H0V322H522V0Z" fill="#222222"/>
</mask>
<g mask="url(#mask0_3120_4363)">
<mask id="mask1_3120_4363" style="mask-type:alpha" maskUnits="userSpaceOnUse" x="-527" y="-2" width="1063" height="456">
<path d="M535.75 -1.75H-526.75V453.75H535.75V-1.75Z" fill="#D9D9D9" stroke="#98D69C" stroke-width="0.5"/>
</mask>
<g mask="url(#mask1_3120_4363)">
<path d="M405.25 -30V482" stroke="#CCDDFF" stroke-width="0.5"/>
<path d="M53.25 -30V482" stroke="#CCDDFF" stroke-width="0.5"/>
<path d="M21.25 -30V482" stroke="#CCDDFF" stroke-width="0.5"/>
<path d="M309.25 -30V482" stroke="#CCDDFF" stroke-width="0.5"/>
<path d="M181.25 -30V482" stroke="#CCDDFF" stroke-width="0.5"/>
<path d="M213.25 -30V482" stroke="#CCDDFF" stroke-width="0.5"/>
<path d="M437.25 -30V482" stroke="#CCDDFF" stroke-width="0.5"/>
<path d="M117.25 -30V482" stroke="#CCDDFF" stroke-width="0.5"/>
<path d="M373.25 -30V482" stroke="#CCDDFF" stroke-width="0.5"/>
<path d="M245.25 -30V482" stroke="#CCDDFF" stroke-width="0.5"/>
<path d="M501.25 -30V482" stroke="#CCDDFF" stroke-width="0.5"/>
<path d="M85.25 -30V482" stroke="#CCDDFF" stroke-width="0.5"/>
<path d="M341.25 -30V482" stroke="#CCDDFF" stroke-width="0.5"/>
<path d="M469.25 -30V482" stroke="#CCDDFF" stroke-width="0.5"/>
<path d="M149.25 -30V482" stroke="#CCDDFF" stroke-width="0.5"/>
<path d="M277.25 -30V482" stroke="#CCDDFF" stroke-width="0.5"/>
<path d="M536 226.25H-814" stroke="#CCDDFF" stroke-width="0.5"/>
<path d="M536 98.25H-814" stroke="#CCDDFF" stroke-width="0.5"/>
<path d="M536 34.25H-814" stroke="#CCDDFF" stroke-width="0.5"/>
<path d="M536 290.25H-814" stroke="#CCDDFF" stroke-width="0.5"/>
<path d="M536 162.25H-814" stroke="#CCDDFF" stroke-width="0.5"/>
<path d="M536 258.25H-814" stroke="#CCDDFF" stroke-width="0.5"/>
<path d="M536 130.25H-814" stroke="#CCDDFF" stroke-width="0.5"/>
<path d="M536 66.25H-814" stroke="#CCDDFF" stroke-width="0.5"/>
<path d="M536 194.25H-814" stroke="#CCDDFF" stroke-width="0.5"/>
</g>
</g>
<path d="M522 0H0V322H522V0Z" fill="url(#paint0_radial_3120_4363)"/>
<path d="M314.467 62.957H321.013V69.5026H314.467V62.957Z" fill="#C9E4EA"/>
<path d="M277 62.957H283.545V69.5026H277V62.957Z" fill="#C9E4EA"/>
<path d="M290.24 223H296.786V229.546H290.24V223Z" fill="#C9E4EA"/>
<path d="M161.982 205.338H168.528V211.883H161.982V205.338Z" fill="#C9E4EA"/>
<g filter="url(#filter0_d_3120_4363)">
<path d="M341.9 201.656L348.71 194.845C349.247 194.308 349.976 194.007 350.735 194.007H402.836C404.417 194.007 405.699 195.289 405.699 196.87V255.781C405.699 257.363 404.417 258.645 402.836 258.645H343.925C342.343 258.645 341.061 257.363 341.061 255.781V203.681C341.061 202.921 341.363 202.193 341.9 201.656Z" fill="white" stroke="#C1C1C1" stroke-width="0.818209"/>
</g>
<path d="M255.03 161.896H255.53V162.896H255.03V161.896ZM84.6855 177.8C84.6855 177.524 84.9094 177.3 85.1855 177.3C85.4617 177.3 85.6855 177.524 85.6855 177.8H84.6855ZM164.937 222.929V165.665H165.937V222.929H164.937ZM168.705 161.896H255.03V162.896H168.705V161.896ZM162.169 226.697H88.4539V225.697H162.169V226.697ZM84.6855 222.929V177.8H85.6855V222.929H84.6855ZM88.4539 226.697C86.3727 226.697 84.6855 225.01 84.6855 222.929H85.6855C85.6855 224.458 86.925 225.697 88.4539 225.697V226.697ZM164.937 165.665C164.937 163.583 166.624 161.896 168.705 161.896V162.896C167.176 162.896 165.937 164.136 165.937 165.665H164.937ZM165.937 222.929C165.937 225.01 164.25 226.697 162.169 226.697V225.697C163.697 225.697 164.937 224.458 164.937 222.929H165.937Z" fill="#C9E4EA"/>
<path d="M245.152 131.435L245.153 69.5035C245.153 67.696 246.618 66.2308 248.426 66.2308L401.931 66.2307C403.739 66.2307 405.204 67.696 405.204 69.5036V90.8384" stroke="#C9E4EA" stroke-linecap="round"/>
<g filter="url(#filter1_d_3120_4363)">
<path d="M373.9 86.6559L380.71 79.8455C381.247 79.3084 381.976 79.0067 382.735 79.0067H434.836C436.417 79.0067 437.699 80.2888 437.699 81.8704V140.781C437.699 142.363 436.417 143.645 434.836 143.645H375.925C374.343 143.645 373.061 142.363 373.061 140.781V88.6808C373.061 87.9213 373.363 87.1929 373.9 86.6559Z" fill="white" stroke="#C1C1C1" stroke-width="0.818209"/>
</g>
<path d="M420.922 99.3225C416.068 93.0356 407.903 90.294 400.239 92.3737C392.575 94.4533 386.915 100.948 385.904 108.826C384.893 116.704 388.727 124.417 395.62 128.364C402.513 132.311 411.104 131.72 417.389 126.863C425.981 120.232 427.535 107.904 420.924 99.3238L420.922 99.3225Z" fill="#FF6C37"/>
<path d="M412.004 104.198L403.725 112.543L401.385 110.138C409.534 101.988 410.352 102.725 412.021 104.199L412.004 104.198Z" fill="white"/>
<path d="M403.724 112.774C403.65 112.773 403.581 112.743 403.528 112.692L401.172 110.336C401.062 110.21 401.062 110.042 401.172 109.927C409.189 101.909 410.303 102.27 412.201 103.988C412.265 104.039 412.303 104.119 412.3 104.201C412.313 104.281 412.281 104.362 412.218 104.413L403.939 112.692C403.88 112.745 403.805 112.774 403.726 112.774H403.724ZM401.793 110.157L403.724 112.087L411.579 104.232C411.307 103.893 410.92 103.665 410.492 103.593C410.063 103.52 409.623 103.608 409.255 103.839C407.831 104.494 405.541 106.424 401.793 110.157Z" fill="#FF6C37"/>
<path d="M406.098 114.852L403.842 112.563L412.121 104.381C414.345 106.558 411.041 110.19 406.099 114.855L406.098 114.852Z" fill="white"/>
<path d="M406.096 115.149C406.024 115.143 405.955 115.115 405.901 115.067L403.609 112.809C403.575 112.726 403.575 112.632 403.609 112.547C403.584 112.479 403.584 112.403 403.609 112.335L411.889 104.056C412.009 103.942 412.195 103.942 412.315 104.056C412.859 104.555 413.157 105.266 413.134 106.002C413.134 108.21 410.612 110.992 406.326 115.05C406.269 115.107 406.194 115.141 406.114 115.149H406.096ZM404.265 112.531L406.114 114.381C409.399 111.273 412.494 108.098 412.528 105.937C412.545 105.478 412.394 105.03 412.102 104.677L404.265 112.531Z" fill="#FF6C37"/>
<path d="M401.451 110.189L403.087 111.825C403.108 111.844 403.12 111.871 403.12 111.898C403.12 111.926 403.107 111.954 403.087 111.972L399.65 112.708C399.581 112.722 399.509 112.713 399.445 112.682C399.382 112.652 399.33 112.602 399.297 112.54C399.263 112.477 399.251 112.406 399.262 112.336C399.273 112.266 399.306 112.202 399.356 112.152L401.369 110.156C401.369 110.156 401.434 110.156 401.467 110.189H401.451Z" fill="white"/>
<path d="M399.552 113.037C399.329 113.034 399.126 112.917 399.012 112.726C398.949 112.608 398.926 112.472 398.946 112.339C398.967 112.206 399.031 112.083 399.127 111.99L401.123 109.977C401.195 109.912 401.288 109.877 401.385 109.877C401.481 109.877 401.575 109.912 401.646 109.977L403.283 111.613C403.38 111.705 403.418 111.844 403.381 111.973C403.345 112.102 403.236 112.204 403.103 112.235L399.667 112.971L399.552 113.037ZM401.384 110.548L399.534 112.398L402.594 111.743L401.384 110.548Z" fill="#FF6C37"/>
<path d="M416.406 99.6042C415.222 98.4646 413.364 98.4165 412.11 99.4955C410.857 100.574 410.657 102.42 411.62 103.753C412.583 105.086 414.41 105.459 415.821 104.612L413.597 102.389L416.406 99.6042Z" fill="white"/>
<path d="M414.196 105.362C412.806 105.344 411.559 104.496 411.032 103.209C410.505 101.921 410.797 100.444 411.775 99.4539C412.43 98.81 413.311 98.4492 414.229 98.4492C415.148 98.4492 416.029 98.81 416.684 99.4539C416.715 99.48 416.74 99.5126 416.757 99.5494C416.774 99.5862 416.783 99.6262 416.783 99.6668C416.783 99.7074 416.774 99.7475 416.757 99.7843C416.74 99.8211 416.715 99.8541 416.684 99.8801L414.033 102.384L416.046 104.347C416.078 104.378 416.103 104.417 416.117 104.46C416.131 104.502 416.135 104.548 416.128 104.592C416.118 104.681 416.07 104.757 415.996 104.805C415.456 105.143 414.834 105.329 414.196 105.344V105.362ZM414.196 99.013C413.629 99.0163 413.075 99.187 412.605 99.5037C412.134 99.8201 411.767 100.269 411.551 100.793C411.334 101.317 411.277 101.894 411.386 102.45C411.496 103.007 411.768 103.519 412.167 103.921C413.001 104.758 414.259 104.998 415.342 104.528L413.411 102.597C413.348 102.547 413.313 102.471 413.313 102.393C413.313 102.314 413.351 102.237 413.411 102.188L415.964 99.6194C415.456 99.2303 414.835 99.0178 414.196 99.0143V99.013Z" fill="#FF6C37"/>
<path d="M416.457 99.6509L413.674 102.433L415.898 104.657C416.122 104.528 416.331 104.374 416.52 104.198C417.103 103.581 417.424 102.762 417.415 101.913C417.406 101.064 417.067 100.252 416.47 99.6484L416.457 99.6509Z" fill="white"/>
<path d="M415.832 104.905C415.757 104.909 415.686 104.88 415.637 104.823L413.413 102.6C413.35 102.549 413.314 102.473 413.314 102.395C413.314 102.317 413.352 102.24 413.413 102.19L416.195 99.4576C416.249 99.3755 416.342 99.3262 416.44 99.3262C416.539 99.3262 416.63 99.3768 416.685 99.4576C417.012 99.7776 417.271 100.159 417.448 100.581C417.625 101.002 417.716 101.455 417.716 101.912C417.716 102.369 417.625 102.821 417.448 103.243C417.271 103.664 417.012 104.046 416.685 104.366C416.493 104.571 416.272 104.745 416.031 104.889C415.97 104.919 415.899 104.927 415.835 104.905H415.832ZM414.032 102.385L415.882 104.234C416.008 104.146 416.129 104.047 416.242 103.94C416.511 103.672 416.725 103.353 416.87 103.002C417.016 102.651 417.092 102.275 417.092 101.895C417.093 101.208 416.842 100.545 416.388 100.03L414.032 102.385Z" fill="#FF6C37"/>
<path d="M412.348 104.543C411.888 104.111 411.173 104.111 410.712 104.543L403.299 111.939L404.525 113.182L412.38 106.309C412.499 106.194 412.594 106.057 412.658 105.904C412.723 105.751 412.755 105.587 412.754 105.422C412.752 105.256 412.717 105.092 412.65 104.941C412.582 104.79 412.485 104.654 412.363 104.541L412.348 104.543Z" fill="white"/>
<path d="M404.459 113.477C404.386 113.475 404.316 113.445 404.263 113.395L403.02 112.151C402.91 112.025 402.91 111.857 403.02 111.742L410.432 104.379C410.645 104.164 410.918 104.019 411.215 103.962C411.512 103.905 411.819 103.939 412.096 104.059C412.374 104.18 412.608 104.38 412.77 104.636C412.931 104.891 413.012 105.19 413.001 105.492C412.985 105.905 412.801 106.294 412.496 106.572L404.641 113.445C404.584 113.486 404.514 113.503 404.445 113.494L404.459 113.477ZM403.592 111.939L404.411 112.758L412.101 106.062C412.196 105.98 412.272 105.88 412.326 105.767C412.379 105.654 412.409 105.532 412.412 105.407C412.422 105.154 412.32 104.908 412.134 104.737C411.777 104.381 411.199 104.381 410.842 104.737L403.592 111.939Z" fill="#FF6C37"/>
<path d="M397.557 120.369C397.536 120.397 397.525 120.431 397.525 120.466C397.525 120.502 397.536 120.536 397.557 120.564L397.886 121.988C397.913 122.158 397.833 122.327 397.684 122.412C397.534 122.496 397.346 122.477 397.216 122.365L394.975 120.217L401.962 113.18H404.384L406.02 114.816C403.468 117.048 400.621 118.919 397.56 120.38L397.557 120.369Z" fill="white"/>
<path d="M397.408 122.77C397.222 122.767 397.046 122.691 396.915 122.558L394.787 120.431C394.724 120.38 394.689 120.304 394.689 120.226C394.689 120.148 394.727 120.07 394.787 120.021L401.825 112.984C401.864 112.942 401.916 112.913 401.973 112.902H404.427C404.491 112.879 404.56 112.879 404.623 112.902L406.259 114.538C406.323 114.596 406.353 114.682 406.342 114.765C406.344 114.847 406.307 114.927 406.243 114.977L406.112 115.091C403.549 117.228 400.729 119.037 397.717 120.475L398.046 121.784C398.096 121.991 398.048 122.209 397.92 122.377C397.791 122.546 397.591 122.647 397.376 122.65L397.408 122.77ZM395.412 120.202L397.342 122.165C397.38 122.198 397.436 122.198 397.474 122.165C397.499 122.131 397.499 122.084 397.474 122.052L397.145 120.628C397.092 120.417 397.196 120.198 397.39 120.105C400.321 118.686 403.068 116.917 405.572 114.836L404.218 113.493H402.024L395.412 120.202Z" fill="#FF6C37"/>
<path d="M393.284 121.888L394.92 120.252L397.441 122.772L393.432 122.494C393.363 122.489 393.298 122.461 393.246 122.417C393.193 122.372 393.157 122.312 393.14 122.245C393.124 122.178 393.129 122.108 393.155 122.044C393.181 121.98 393.226 121.925 393.284 121.888Z" fill="white"/>
<path d="M397.489 123.018L393.497 122.74C393.38 122.731 393.268 122.688 393.175 122.617C393.081 122.546 393.01 122.451 392.969 122.341C392.928 122.231 392.919 122.112 392.942 121.998C392.966 121.883 393.022 121.777 393.104 121.693L394.74 120.057C394.866 119.947 395.034 119.947 395.149 120.057L397.653 122.561C397.688 122.609 397.707 122.666 397.707 122.725C397.707 122.783 397.688 122.841 397.653 122.888C397.615 122.949 397.557 122.996 397.489 123.02V123.018ZM393.497 122.102L396.781 122.315L394.981 120.629L393.497 122.102Z" fill="#FF6C37"/>
<path d="M404.609 113.364L401.303 113.857L403.218 111.959L404.609 113.364Z" fill="white"/>
<path d="M401.303 114.182C401.248 114.184 401.194 114.169 401.147 114.14C401.101 114.11 401.064 114.068 401.041 114.018C401.007 113.97 400.988 113.913 400.988 113.854C400.988 113.795 401.007 113.738 401.041 113.691L402.939 111.777C403.059 111.663 403.245 111.663 403.365 111.777L404.754 113.166C404.782 113.21 404.797 113.261 404.797 113.314C404.797 113.366 404.782 113.417 404.754 113.461C404.742 113.515 404.714 113.564 404.673 113.602C404.632 113.64 404.581 113.665 404.526 113.673L401.241 114.166L401.303 114.182ZM403.217 112.382L402.153 113.446L403.985 113.168L403.217 112.382Z" fill="#FF6C37"/>
<path d="M404.608 113.364L402.318 113.659C402.191 113.688 402.06 113.63 401.995 113.517C401.931 113.405 401.949 113.262 402.038 113.168L403.232 111.974L404.608 113.364Z" fill="white"/>
<path d="M245.029 190.947V223C245.029 224.808 246.494 226.273 248.302 226.273H341.997" stroke="#C9E4EA"/>
<g filter="url(#filter2_d_3120_4363)">
<path d="M212.917 137.265L219.728 130.455C220.265 129.918 220.993 129.616 221.752 129.616H273.853C275.435 129.616 276.717 130.898 276.717 132.48V191.391C276.717 192.972 275.435 194.254 273.853 194.254H214.942C213.36 194.254 212.078 192.972 212.078 191.391V139.29C212.078 138.531 212.38 137.802 212.917 137.265Z" fill="white" stroke="#C1C1C1" stroke-width="0.818209"/>
</g>
<mask id="mask2_3120_4363" style="mask-type:luminance" maskUnits="userSpaceOnUse" x="230" y="142" width="29" height="40">
<path d="M258.719 142.299H230.488V181.573H258.719V142.299Z" fill="white"/>
</mask>
<g mask="url(#mask2_3120_4363)">
<path d="M250.009 161.936H253.953C254.104 161.938 254.251 161.881 254.36 161.777C254.469 161.672 254.532 161.528 254.536 161.377C254.537 161.297 254.521 161.218 254.491 161.144L247.706 142.675C247.666 142.565 247.593 142.469 247.496 142.402C247.4 142.335 247.286 142.299 247.168 142.299H243.21C243.135 142.298 243.061 142.313 242.992 142.341C242.922 142.37 242.859 142.412 242.806 142.464C242.753 142.517 242.711 142.58 242.682 142.649C242.653 142.718 242.638 142.792 242.637 142.867C242.637 142.937 242.649 143.007 242.674 143.072L249.459 161.561C249.5 161.674 249.575 161.77 249.674 161.837C249.773 161.905 249.89 161.939 250.009 161.936Z" fill="#306BEA"/>
<path d="M249.306 181.573H253.25C253.342 181.573 253.432 181.55 253.514 181.508C253.596 181.465 253.666 181.404 253.719 181.328C253.772 181.253 253.805 181.166 253.817 181.074C253.829 180.983 253.819 180.89 253.788 180.804L239.784 142.675C239.744 142.565 239.67 142.469 239.574 142.402C239.478 142.335 239.363 142.299 239.246 142.299H235.306C235.231 142.298 235.157 142.313 235.088 142.341C235.018 142.37 234.955 142.412 234.902 142.464C234.849 142.517 234.807 142.58 234.778 142.649C234.749 142.718 234.734 142.792 234.734 142.867C234.733 142.937 234.745 143.007 234.77 143.072L248.76 181.2C248.801 181.312 248.875 181.407 248.973 181.474C249.071 181.541 249.187 181.575 249.306 181.573Z" fill="#306BEA"/>
<path d="M241.534 181.572H245.476C245.57 181.576 245.663 181.557 245.748 181.516C245.832 181.475 245.906 181.414 245.961 181.338C246.016 181.261 246.052 181.173 246.065 181.08C246.077 180.986 246.067 180.891 246.034 180.803L239.229 162.31C239.188 162.2 239.115 162.105 239.019 162.038C238.922 161.971 238.808 161.935 238.691 161.935H234.728C234.577 161.939 234.434 162.002 234.329 162.11C234.225 162.219 234.167 162.365 234.17 162.516C234.171 162.581 234.185 162.645 234.209 162.705L240.994 181.2C241.034 181.31 241.108 181.405 241.205 181.472C241.301 181.539 241.416 181.574 241.534 181.572Z" fill="#306BEA"/>
<path d="M250.484 143.072L253.665 151.722C253.705 151.833 253.777 151.928 253.873 151.995C253.969 152.063 254.084 152.099 254.201 152.099H258.145C258.219 152.099 258.294 152.085 258.363 152.057C258.432 152.029 258.495 151.987 258.549 151.934C258.602 151.882 258.644 151.819 258.673 151.75C258.702 151.681 258.717 151.607 258.717 151.532C258.719 151.462 258.707 151.393 258.683 151.328L255.502 142.675C255.462 142.565 255.388 142.469 255.292 142.402C255.196 142.335 255.081 142.299 254.964 142.299H251.02C250.869 142.298 250.724 142.357 250.617 142.464C250.509 142.57 250.448 142.714 250.447 142.865C250.446 142.936 250.459 143.006 250.484 143.072Z" fill="#306BEA"/>
<path d="M234.258 181.572H238.202C238.294 181.573 238.385 181.551 238.467 181.509C238.549 181.466 238.619 181.404 238.672 181.329C238.725 181.253 238.758 181.166 238.77 181.074C238.781 180.982 238.77 180.89 238.738 180.803L235.538 172.128C235.498 172.018 235.425 171.924 235.329 171.857C235.233 171.79 235.119 171.754 235.003 171.754H231.063C230.912 171.753 230.767 171.811 230.659 171.917C230.551 172.023 230.49 172.167 230.488 172.318C230.488 172.388 230.501 172.457 230.525 172.523L233.706 181.198C233.747 181.31 233.823 181.407 233.922 181.474C234.021 181.541 234.138 181.575 234.258 181.572Z" fill="#306BEA"/>
</g>
<g filter="url(#filter3_d_3120_4363)">
<path d="M53.7059 121.656L60.5163 114.845C61.0534 114.308 61.7818 114.007 62.5413 114.007H114.642C116.224 114.007 117.506 115.289 117.506 116.87V175.781C117.506 177.363 116.224 178.645 114.642 178.645H55.7309C54.1493 178.645 52.8672 177.363 52.8672 175.781V123.681C52.8672 122.921 53.1689 122.193 53.7059 121.656Z" fill="white" stroke="#C1C1C1" stroke-width="0.818209"/>
</g>
<path d="M65.7702 165.809L84.5769 146.531C84.6947 146.41 84.7173 146.223 84.619 146.086C83.475 144.489 81.3651 144.212 80.583 143.14C78.2662 139.961 77.6784 138.163 76.6829 138.274C76.6133 138.282 76.5513 138.32 76.5025 138.37L69.7085 145.334C65.8001 149.34 65.2396 158.161 65.1368 165.548C65.1321 165.882 65.5371 166.048 65.7702 165.809Z" fill="#017CEE"/>
<path d="M104.26 165.332L84.9821 146.526C84.8613 146.408 84.6746 146.385 84.5374 146.483C82.9405 147.628 82.6637 149.737 81.5909 150.519C78.4128 152.836 76.614 153.424 76.7256 154.42C76.7334 154.489 76.7708 154.551 76.8209 154.6L83.7852 161.394C87.7916 165.302 96.6128 165.863 103.999 165.966C104.332 165.97 104.499 165.566 104.26 165.332Z" fill="#00AD46"/>
<path fill-rule="evenodd" clip-rule="evenodd" d="M83.785 161.394C81.5965 159.26 80.5811 155.036 84.7767 146.326C77.958 149.373 75.5685 153.379 76.744 154.526L83.785 161.394Z" fill="#04D659"/>
<path d="M103.783 126.843L84.9769 146.121C84.8591 146.242 84.8365 146.429 84.9348 146.566C86.0788 148.163 88.1887 148.44 88.9707 149.512C91.2876 152.69 91.8755 154.489 92.8709 154.378C92.9404 154.37 93.0024 154.333 93.0513 154.282L99.8452 147.318C103.753 143.312 104.314 134.491 104.417 127.104C104.421 126.77 104.016 126.604 103.783 126.843Z" fill="#00C7D4"/>
<path fill-rule="evenodd" clip-rule="evenodd" d="M99.844 147.318C97.709 149.506 93.4853 150.522 84.7754 146.326C87.8227 153.145 91.8284 155.534 92.9751 154.359L99.844 147.318Z" fill="#11E1EE"/>
<path d="M65.2944 127.319L84.5726 146.126C84.6934 146.243 84.8801 146.266 85.0172 146.168C86.6141 145.024 86.8909 142.914 87.9637 142.132C91.1419 139.815 92.9407 139.227 92.829 138.232C92.8213 138.162 92.7837 138.1 92.7339 138.051L85.7695 131.257C81.763 127.349 72.9419 126.788 65.5555 126.685C65.2217 126.681 65.0554 127.086 65.2944 127.319Z" fill="#E43921"/>
<path fill-rule="evenodd" clip-rule="evenodd" d="M85.7672 131.256C87.9556 133.391 88.9711 137.614 84.7754 146.324C91.5941 143.277 93.9838 139.271 92.8081 138.124L85.7672 131.256Z" fill="#FF7557"/>
<path fill-rule="evenodd" clip-rule="evenodd" d="M69.709 145.334C71.844 143.145 76.0675 142.13 84.7774 146.325C81.7302 139.507 77.7245 137.117 76.5778 138.293L69.709 145.334Z" fill="#0CB6FF"/>
<path d="M84.7888 147.163C85.2533 147.158 85.6251 146.777 85.6193 146.312C85.6136 145.848 85.2324 145.476 84.768 145.482C84.3036 145.487 83.9318 145.869 83.9376 146.333C83.9433 146.797 84.3244 147.169 84.7888 147.163Z" fill="#4A4848"/>
<path d="M382.073 208.075V211.508C379.665 208.733 376.082 207.058 371.191 207.058C361.625 207.058 353.742 215.448 353.742 226.328C353.742 237.208 361.625 245.598 371.191 245.598C376.09 245.598 379.665 243.923 382.073 241.149V244.581H393.022V208.075H382.073ZM373.382 235.234C368.349 235.234 364.692 231.802 364.692 226.328C364.692 220.855 368.341 217.46 373.382 217.46C378.423 217.46 382.073 220.855 382.073 226.328C382.073 231.802 378.416 235.234 373.382 235.234Z" fill="#2026D2"/>
<path d="M373.383 230.815C375.861 230.815 377.87 228.806 377.87 226.328C377.87 223.85 375.861 221.842 373.383 221.842C370.904 221.842 368.895 223.85 368.895 226.328C368.895 228.806 370.904 230.815 373.383 230.815Z" fill="#62E1FC"/>
<defs>
<filter id="filter0_d_3120_4363" x="338.652" y="193.598" width="73.4551" height="73.4562" filterUnits="userSpaceOnUse" color-interpolation-filters="sRGB">
<feFlood flood-opacity="0" result="BackgroundImageFix"/>
<feColorMatrix in="SourceAlpha" type="matrix" values="0 0 0 0 0 0 0 0 0 0 0 0 0 0 0 0 0 0 127 0" result="hardAlpha"/>
<feOffset dx="2" dy="4"/>
<feGaussianBlur stdDeviation="2"/>
<feComposite in2="hardAlpha" operator="out"/>
<feColorMatrix type="matrix" values="0 0 0 0 0.756863 0 0 0 0 0.756863 0 0 0 0 0.756863 0 0 0 0.2 0"/>
<feBlend mode="normal" in2="BackgroundImageFix" result="effect1_dropShadow_3120_4363"/>
<feBlend mode="normal" in="SourceGraphic" in2="effect1_dropShadow_3120_4363" result="shape"/>
</filter>
<filter id="filter1_d_3120_4363" x="370.652" y="78.5977" width="73.4551" height="73.4565" filterUnits="userSpaceOnUse" color-interpolation-filters="sRGB">
<feFlood flood-opacity="0" result="BackgroundImageFix"/>
<feColorMatrix in="SourceAlpha" type="matrix" values="0 0 0 0 0 0 0 0 0 0 0 0 0 0 0 0 0 0 127 0" result="hardAlpha"/>
<feOffset dx="2" dy="4"/>
<feGaussianBlur stdDeviation="2"/>
<feComposite in2="hardAlpha" operator="out"/>
<feColorMatrix type="matrix" values="0 0 0 0 0.756863 0 0 0 0 0.756863 0 0 0 0 0.756863 0 0 0 0.2 0"/>
<feBlend mode="normal" in2="BackgroundImageFix" result="effect1_dropShadow_3120_4363"/>
<feBlend mode="normal" in="SourceGraphic" in2="effect1_dropShadow_3120_4363" result="shape"/>
</filter>
<filter id="filter2_d_3120_4363" x="209.67" y="129.207" width="73.457" height="73.4562" filterUnits="userSpaceOnUse" color-interpolation-filters="sRGB">
<feFlood flood-opacity="0" result="BackgroundImageFix"/>
<feColorMatrix in="SourceAlpha" type="matrix" values="0 0 0 0 0 0 0 0 0 0 0 0 0 0 0 0 0 0 127 0" result="hardAlpha"/>
<feOffset dx="2" dy="4"/>
<feGaussianBlur stdDeviation="2"/>
<feComposite in2="hardAlpha" operator="out"/>
<feColorMatrix type="matrix" values="0 0 0 0 0.756863 0 0 0 0 0.756863 0 0 0 0 0.756863 0 0 0 0.2 0"/>
<feBlend mode="normal" in2="BackgroundImageFix" result="effect1_dropShadow_3120_4363"/>
<feBlend mode="normal" in="SourceGraphic" in2="effect1_dropShadow_3120_4363" result="shape"/>
</filter>
<filter id="filter3_d_3120_4363" x="50.459" y="113.598" width="73.4551" height="73.4562" filterUnits="userSpaceOnUse" color-interpolation-filters="sRGB">
<feFlood flood-opacity="0" result="BackgroundImageFix"/>
<feColorMatrix in="SourceAlpha" type="matrix" values="0 0 0 0 0 0 0 0 0 0 0 0 0 0 0 0 0 0 127 0" result="hardAlpha"/>
<feOffset dx="2" dy="4"/>
<feGaussianBlur stdDeviation="2"/>
<feComposite in2="hardAlpha" operator="out"/>
<feColorMatrix type="matrix" values="0 0 0 0 0.756863 0 0 0 0 0.756863 0 0 0 0 0.756863 0 0 0 0.2 0"/>
<feBlend mode="normal" in2="BackgroundImageFix" result="effect1_dropShadow_3120_4363"/>
<feBlend mode="normal" in="SourceGraphic" in2="effect1_dropShadow_3120_4363" result="shape"/>
</filter>
<radialGradient id="paint0_radial_3120_4363" cx="0" cy="0" r="1" gradientUnits="userSpaceOnUse" gradientTransform="translate(261 161) rotate(90) scale(161 261)">
<stop offset="0.598958" stop-color="#222222" stop-opacity="0"/>
<stop offset="1" stop-color="#222222"/>
</radialGradient>
</defs>
</svg>
